<?xml version="1.0" encoding="UTF-8" standalone="no"?>
<!-- Created with Inkscape (http://www.inkscape.org/) -->

<svg
   width="210mm"
   height="297mm"
   viewBox="0 0 210 297"
   version="1.1"
   id="svg5"
   inkscape:version="1.1 (c68e22c387, 2021-05-23)"
   sodipodi:docname="cars.svg"
   xmlns:inkscape="http://www.inkscape.org/namespaces/inkscape"
   xmlns:sodipodi="http://sodipodi.sourceforge.net/DTD/sodipodi-0.dtd"
   xmlns="http://www.w3.org/2000/svg"
   xmlns:svg="http://www.w3.org/2000/svg">
  <sodipodi:namedview
     id="namedview7"
     pagecolor="#ffffff"
     bordercolor="#666666"
     borderopacity="1.0"
     inkscape:pageshadow="2"
     inkscape:pageopacity="0.0"
     inkscape:pagecheckerboard="0"
     inkscape:document-units="mm"
     showgrid="false"
     inkscape:zoom="0.70710678"
     inkscape:cx="91.923881"
     inkscape:cy="142.12846"
     inkscape:window-width="1920"
     inkscape:window-height="1137"
     inkscape:window-x="1912"
     inkscape:window-y="-8"
     inkscape:window-maximized="1"
     inkscape:current-layer="layer1" />
  <defs
     id="defs2">
    <pattern
       id="EMFhbasepattern"
       patternUnits="userSpaceOnUse"
       width="6"
       height="6"
       x="0"
       y="0" />
    <pattern
       id="EMFhbasepattern-6"
       patternUnits="userSpaceOnUse"
       width="6"
       height="6"
       x="0"
       y="0" />
    <pattern
       id="EMFhbasepattern-3"
       patternUnits="userSpaceOnUse"
       width="6"
       height="6"
       x="0"
       y="0" />
  </defs>
  <g
     inkscape:label="Layer 1"
     inkscape:groupmode="layer"
     id="layer1">
    <path
       style="fill:#000000;stroke-width:0.0847133"
       d="m 91.996698,28.672016 c -0.183,-0.12245 -0.50085,-0.435401 -0.70645,-0.695267 -0.29461,-0.372395 -0.45621,-0.507664 -0.76287,-0.638455 -0.21401,-0.09119 -0.51928,-0.221523 -0.67848,-0.289313 -0.27555,-0.117706 -0.31103,-0.161614 -0.74138,-0.925728 -1.00656,-1.788904 -4.20193,-5.84828 -5.094981,-6.472542 -0.743921,-0.520066 -1.203009,-0.805616 -1.537472,-0.956308 -0.137754,-0.06199 -0.230075,-0.1289 -0.205239,-0.148585 0.02485,-0.01976 -0.04063,-0.05286 -0.145524,-0.07385 -0.104893,-0.02083 -0.362992,-0.144651 -0.573531,-0.275036 -0.210553,-0.130333 -0.484827,-0.254149 -0.609492,-0.275089 -0.180065,-0.03023 -0.709883,-0.267954 -0.913099,-0.409813 -0.166426,-0.116134 -0.887692,-0.445028 -0.960864,-0.438074 -0.05097,0.0048 -0.189124,-0.08026 -0.307169,-0.188943 -0.117951,-0.108775 -0.266325,-0.192338 -0.329627,-0.185921 -0.0633,0.0065 -0.09227,-0.0069 -0.06448,-0.02985 0.06076,-0.05004 -0.431775,-0.28581 -0.699658,-0.334895 -0.104369,-0.01907 -0.207165,-0.08956 -0.228151,-0.15733 -0.02114,-0.0674 -0.0976,-0.12951 -0.170328,-0.137785 -0.0725,-0.0085 -0.190902,-0.07022 -0.263066,-0.137277 -0.07219,-0.06708 -0.211202,-0.131289 -0.309032,-0.142619 -0.0978,-0.01136 -0.209171,-0.06001 -0.247255,-0.108687 -0.03824,-0.04826 -0.122978,-0.07098 -0.188259,-0.05055 -0.06533,0.0205 -0.206861,-0.03058 -0.314548,-0.113555 -0.10769,-0.08298 -0.306324,-0.209153 -0.44143,-0.280377 -0.261583,-0.138082 -0.665545,-0.430962 -1.210776,-0.877962 -0.184345,-0.151176 -0.367579,-0.273456 -0.407163,-0.271806 -0.128578,0.0053 -0.494716,-0.181342 -0.826045,-0.421273 -0.387409,-0.28047 -1.400386,-0.853189 -1.834515,-1.037161 -0.171205,-0.0721 -0.511419,-0.252673 -0.756313,-0.400445 -0.244906,-0.147744 -0.472456,-0.247081 -0.505659,-0.220759 -0.03313,0.02625 -0.145127,-0.01869 -0.248536,-0.100566 -0.103561,-0.08143 -0.479429,-0.28211 -0.835222,-0.44598 -0.355782,-0.163881 -0.691133,-0.334718 -0.745276,-0.379501 -0.05414,-0.04481 -0.209352,-0.08343 -0.344972,-0.08572 -0.135623,-0.0023 -0.266679,-0.02954 -0.291243,-0.06059 -0.03612,-0.0456 -1.016364,-0.393806 -1.46531,-0.52058 -0.217193,-0.0614 -0.4814,-0.158005 -0.601396,-0.22006 -0.382957,-0.1980744 -1.765931,-0.5457154 -1.864418,-0.4686714 -0.06045,0.04728 -0.302518,-0.02471 -0.864396,-0.256947 -0.109425,-0.04547 -0.326942,-0.100936 -0.483162,-0.12375 -0.156228,-0.02278 -0.433516,-0.07657 -0.616185,-0.119535 -0.182656,-0.04296 -0.507864,-0.100405 -0.722682,-0.127598 -0.214819,-0.02719 -0.406482,-0.06964 -0.425991,-0.09413 -0.04049,-0.05109 -0.61671,-0.154142 -0.931105,-0.166616 -0.11615,-0.0046 -0.325318,-0.02727 -0.464842,-0.05046 -0.139584,-0.02309 -0.293132,-0.01087 -0.341309,0.02731 -0.04821,0.03824 -0.105499,0.04685 -0.127367,0.01928 -0.02186,-0.02759 -0.250566,-0.08599 -0.508225,-0.129804 -0.257658,-0.04381 -0.53397,-0.09212 -0.614031,-0.107262 -0.554945,-0.105366 -2.048668,-0.194696 -2.133251,-0.127658 -0.05692,0.04513 -0.124542,0.05523 -0.150439,0.02261 -0.06629,-0.08357 -0.594407,-0.147915 -1.433387,-0.174628 -0.395207,-0.01257 -0.902009,-0.03828 -1.126231,-0.05713 -0.697669,-0.05867 -0.7685,-0.06041 -0.819341,-0.02011 -0.02722,0.02161 -0.258949,0.01067 -0.515051,-0.02415 -0.256096,-0.03482 -0.497841,-0.0378 -0.537215,-0.0066 -0.03942,0.03128 -0.09243,0.03051 -0.11785,-0.0016 -0.02542,-0.03211 -0.155547,-0.02727 -0.289204,0.01088 -0.133636,0.03808 -0.373065,0.02751 -0.532061,-0.02348 -0.158989,-0.05095 -0.334861,-0.05651 -0.390763,-0.01242 -0.05591,0.04412 -0.195955,0.05159 -0.311186,0.01652 -0.115267,-0.03493 -0.3593,-0.0727 -0.542403,-0.08355 -0.655084,-0.03897 -2.318938,-0.257393 -2.360548,-0.309887 -0.02332,-0.02945 -0.112555,-0.06221 -0.198215,-0.07309 -0.0857,-0.01074 -0.441547,-0.08466 -0.790576,-0.164836 -0.829914,-0.190335 -1.606005,-0.347692 -2.104865,-0.426749 -0.220983,-0.03501 -0.432372,-0.102244 -0.469751,-0.149422 -0.03734,-0.04713 -0.106121,-0.05561 -0.152883,-0.01843 -0.04676,0.03698 -0.179919,0.03773 -0.295999,0.0016 -0.11602,-0.03627 -0.304977,-0.0688 -0.419698,-0.07268 -0.114704,-0.0039 -0.38282,-0.03522 -0.595735,-0.0697 -0.212906,-0.03449 -0.48015,-0.0659 -0.593865,-0.06977 -0.421118,-0.01439 -1.310778,-0.126245 -1.57593,-0.198148 -0.150527,-0.04078 -0.304377,-0.05083 -0.34193,-0.02225 -0.03761,0.02853 -0.307288,0.02346 -0.59939,-0.01137 -0.292122,-0.03476 -0.555044,-0.04434 -0.584277,-0.02115 -0.02929,0.02315 -0.08862,-0.0027 -0.132012,-0.05763 -0.04341,-0.05471 -0.108816,-0.07586 -0.145355,-0.04684 -0.112189,0.08894 -2.719753,-0.250478 -3.225292,-0.419821 -0.261896,-0.08777 -0.616465,-0.182978 -0.787955,-0.211521 -0.171462,-0.02861 -0.335044,-0.08134 -0.363435,-0.117342 -0.02853,-0.03594 -0.09459,-0.03103 -0.146809,0.01016 -0.05228,0.04159 -0.156244,0.03419 -0.230954,-0.01616 -0.141414,-0.09533 -1.101364,-0.08851 -1.027888,0.0073 0.02314,0.03001 -0.175071,-0.05113 -0.440071,-0.180679 -0.265157,-0.129177 -0.505481,-0.218417 -0.534073,-0.198219 -0.02856,0.02032 -0.07983,0.05885 -0.113926,0.08578 -0.03412,0.02706 -0.121279,0.009 -0.193861,-0.03987 -0.0726,-0.04898 -0.601389,-0.15271 -1.175075,-0.230684 -0.57369,-0.07794 -1.213849,-0.200935 -1.422569,-0.273329 -0.208496,-0.07291 -0.462807,-0.139038 -0.564685,-0.148076 -0.101959,-0.009 -0.275582,-0.05387 -0.386058,-0.09938 -0.110352,-0.04581 -0.289817,-0.117979 -0.398101,-0.161981 -0.194771,-0.0776 -0.595501,-0.177259 -0.854501,-0.212602 -0.0731,-0.01004 -0.27388,-0.08756 -0.44624,-0.172419 -0.17242,-0.08478 -0.33426,-0.137714 -0.35969,-0.117575 -0.0487,0.03837 -0.13253,0.03154 -1.10332,-0.09099 -0.328,-0.04135 -0.62753,-0.05051 -0.66566,-0.02028 -0.0381,0.03028 -0.15399,0.02475 -0.25747,-0.01213 -0.10358,-0.03669 -0.23274,-0.0317 -0.28719,0.01143 -0.0545,0.04315 -0.11871,0.05366 -0.14275,0.02328 -0.0241,-0.03039 -0.15947,-0.03249 -0.30095,-0.0047 -0.14148,0.02776 -0.37909,0.03763 -0.52802,0.02191 -0.14892,-0.01574 -0.30122,-0.0045 -0.33842,0.02501 -0.0371,0.02951 -0.29011,0.108325 -0.56204,0.17522 -0.27191,0.06689 -0.55327,0.168277 -0.6252,0.225302 -0.072,0.05698 -0.15451,0.0738 -0.18344,0.0373 -0.029,-0.03652 -0.17033,0.02688 -0.31423,0.140983 -0.14389,0.114055 -0.3038,0.192125 -0.35533,0.173499 -0.0515,-0.01832 -0.19643,0.04761 -0.32208,0.147189 -0.12564,0.09959 -0.24899,0.155133 -0.27413,0.123425 -0.0251,-0.03167 -0.17101,0.01434 -0.32419,0.102384 -0.15333,0.08796 -0.65887,0.355252 -1.12375,0.593856 -0.46484,0.238594 -0.89983,0.472252 -0.96665,0.519247 -0.0668,0.04689 -0.1361,0.06694 -0.15402,0.04432 -0.018,-0.02254 -0.0724,-0.01459 -0.12101,0.01781 -0.26308,0.175344 -0.58344,0.328799 -0.73818,0.353596 -0.30396,0.0487 -0.97711,0.326932 -1.00982,0.417382 -0.0166,0.04808 -0.0545,0.05746 -0.0829,0.02159 -0.0284,-0.03578 -0.15434,-0.01488 -0.28,0.04644 -0.12556,0.06136 -0.29806,0.09681 -0.3831,0.07887 -0.0851,-0.01795 -0.25555,0.04735 -0.37889,0.145103 -0.12336,0.09774 -0.24344,0.153502 -0.26692,0.12389 -0.0685,-0.0865 -0.72691,0.2541 -1.64822,0.852659 -0.47094,0.305947 -1.0035101,0.627787 -1.1835201,0.715175 -0.50065,0.243066 -0.66808,0.405867 -0.64338,0.625614 0.0123,0.109187 -0.0453,0.251952 -0.12784,0.317316 -0.0824,0.0654 -0.12893,0.145473 -0.10354,0.1777564 0.0258,0.03247 -0.0424,0.238061 -0.15124,0.456891 -0.10914,0.218736 -0.23293,0.516876 -0.27529,0.662481 -0.0423,0.145608 -0.1252,0.302333 -0.18308,0.348645 -0.0582,0.04615 -0.0851,0.110298 -0.0603,0.142183 0.0255,0.03219 -0.0659,0.204369 -0.20227,0.382958 -0.13679,0.178443 -0.28371,0.437984 -0.32618,0.576961 -0.043,0.138714 -0.15709,0.397915 -0.25379,0.575928 -0.0969,0.177919 -0.22548,0.434718 -0.28671,0.570195 -0.0601,0.135986 -0.13399,0.26582 -0.16333,0.288811 -0.0833,0.06615 -0.4213,1.008114 -0.53506,1.490539 -0.0565,0.240956 -0.115726,0.42194 -0.131346,0.402268 -0.0156,-0.01974 -0.0841,0.395353 -0.15216,0.922274 -0.0681,0.526883 -0.14872,0.977604 -0.17865,1.001673 -0.0303,0.02403 -0.008,0.103394 0.0501,0.176446 0.0579,0.07304 0.068,0.162603 0.0226,0.198997 -0.0454,0.03641 -0.0702,0.235304 -0.0551,0.441936 0.0152,0.206634 0.009,0.59754 -0.0141,0.86868 -0.0229,0.271135 -0.0405,0.628732 -0.039,0.794675 0.006,0.708985 0.005,0.816937 -0.0169,1.146447 -0.0125,0.190577 -0.005,0.368579 0.0163,0.395562 0.0212,0.02693 0.0316,0.196092 0.0228,0.375892 -0.009,0.179697 0.0323,0.423958 0.0915,0.542637 0.0592,0.118651 0.0755,0.289881 0.0363,0.380447 -0.0393,0.09051 -0.0383,0.205975 0.001,0.256375 0.04,0.05047 0.0544,0.122425 0.0322,0.159906 -0.0624,0.106025 0.18605,1.206444 0.307506,1.359688 0.0595,0.07511 0.15822,0.375262 0.2193,0.66702 0.23817,1.137851 1.57074,3.143482 3.18596,4.795191 0.26201,0.267954 0.5226101,0.547816 0.5791601,0.621902 0.21934,0.288014 1.15135,1.184725 1.69371,1.630211 0.80968,0.665074 1.33235,1.130665 1.48395,1.321941 0.072,0.0909 0.18036,0.172356 0.24064,0.181072 0.0604,0.0087 0.62966,0.600783 1.26527,1.315792 1.34256,1.510229 1.89605,2.027064 3.16202,2.952602 0.50725,0.370838 0.99177,0.728613 1.07673,0.795048 0.085,0.06644 0.19581,0.08803 0.2463,0.048 0.0536,-0.04243 0.14632,-0.0041 0.22241,0.09188 0.19024,0.240017 2.71441,1.414235 3.21054,1.493513 0.15316,0.02447 0.31875,0.09532 0.36799,0.157402 0.0493,0.06211 0.2088,0.135263 0.35461,0.162537 0.14582,0.02723 0.38214,0.114213 0.52521,0.193187 0.14308,0.07891 0.47826,0.198866 0.74491,0.266442 0.2666,0.06764 0.56392,0.183765 0.66068,0.258048 0.0968,0.07426 0.26552,0.148679 0.37504,0.165256 0.1095,0.01667 0.328957,0.111851 0.487672,0.211647 0.158742,0.09973 0.361703,0.196437 0.4511,0.214735 0.08942,0.01831 0.242577,0.09148 0.340437,0.16257 0.282704,0.205185 0.857965,0.485533 0.969593,0.472489 0.05616,-0.0066 0.142447,0.03902 0.191817,0.101287 0.04937,0.06228 0.22745,0.173644 0.395744,0.247457 0.168279,0.07379 0.385458,0.195993 0.48257,0.271565 0.09714,0.07552 0.2925,0.159181 0.434152,0.185889 0.141628,0.0267 0.291739,0.09161 0.333507,0.144245 0.04175,0.05268 0.179678,0.142646 0.306504,0.199948 0.126823,0.05727 0.384475,0.176758 0.572534,0.26551 0.403909,0.19059 1.132365,0.466389 2.492074,0.943372 0.656624,0.230372 0.697313,0.244011 1.247973,0.418629 0.269117,0.08535 0.563143,0.204967 0.653393,0.265813 0.09022,0.06087 0.206857,0.07678 0.259186,0.03527 0.05227,-0.04144 0.118715,-0.0456 0.147586,-0.0092 0.0628,0.07922 1.147748,0.390237 1.717706,0.492405 0.600368,0.107587 0.730969,0.142182 0.782384,0.207035 0.04724,0.0596 0.275715,0.113431 1.063639,0.250931 0.241467,0.04212 0.695712,0.124298 1.009456,0.182564 0.92653,0.172105 2.422906,0.348508 2.49204,0.29371 0.03519,-0.02788 0.126428,-0.0087 0.202664,0.04274 0.184418,0.124373 0.586768,0.196334 0.680805,0.12177 0.0414,-0.0328 0.093,-0.03722 0.114723,-0.0098 0.06358,0.0802 0.995751,0.21063 1.072236,0.14999 0.03842,-0.03043 0.248054,-0.0031 0.465983,0.06074 0.217928,0.06381 0.428586,0.09144 0.468133,0.06134 0.330373,-0.251259 1.759029,0.165019 1.689979,0.49241 -0.01757,0.08354 0.07658,0.318855 0.209346,0.522904 0.132761,0.204047 0.313672,0.532597 0.402029,0.730099 0.396693,0.886719 1.256681,2.036795 1.877801,2.511186 0.239922,0.18325 1.451142,1.344771 1.986271,1.904779 0.151505,0.158474 0.354689,0.322569 0.451598,0.364606 0.09689,0.04197 0.235519,0.15135 0.308081,0.242846 0.07255,0.09153 0.171371,0.161799 0.219593,0.156162 0.0482,-0.0057 0.189647,0.07828 0.31425,0.186519 0.124585,0.108228 0.369277,0.225883 0.543751,0.261409 0.174451,0.03553 0.373117,0.1349 0.441497,0.220754 0.391214,0.491979 1.217514,0.75055 1.833018,0.57458 0.179521,-0.05131 0.3233,-0.03535 0.385258,0.04283 0.05435,0.06857 0.141738,0.09073 0.194122,0.04925 0.05244,-0.04154 0.272909,-0.02417 0.490001,0.03859 0.217101,0.06276 0.489364,0.09749 0.605019,0.07723 0.115575,-0.02036 0.214718,9.19e-4 0.220133,0.04714 0.0054,0.04623 0.09407,0.01727 0.197067,-0.06432 0.152901,-0.121209 0.51944,-0.109832 2.001494,0.06208 2.761028,0.320262 2.454733,0.320094 3.593188,0.0019 0.21855,-0.06105 0.615759,-0.126099 0.882751,-0.144497 0.267002,-0.01839 0.510404,-0.05324 0.540927,-0.07741 0.03041,-0.0242 0.159098,-0.03564 0.285712,-0.02555 0.126677,0.01009 0.369444,-0.03263 0.539592,-0.09502 0.170153,-0.06238 0.331207,-0.08587 0.357904,-0.05219 0.02669,0.0337 0.09336,0.0257 0.1481,-0.01772 0.05481,-0.04341 0.120755,-0.05226 0.146474,-0.01977 0.02578,0.03253 0.127813,0.02308 0.226657,-0.0209 0.09882,-0.04405 0.422799,-0.100961 0.719884,-0.126483 0.297095,-0.02552 0.591329,-0.08695 0.653876,-0.136514 0.0626,-0.04953 0.163567,-0.0855 0.224475,-0.07993 0.116304,0.01066 0.541644,-0.203392 0.965547,-0.486011 0.137961,-0.09195 0.419471,-0.227719 0.625722,-0.301588 0.206483,-0.07396 0.540638,-0.277726 0.743645,-0.453396 0.202768,-0.175443 0.386098,-0.29707 0.407838,-0.26964 0.02153,0.02714 0.221064,-0.09074 0.44342,-0.262004 0.222387,-0.171206 0.492406,-0.327241 0.600048,-0.346687 0.107645,-0.01942 0.329712,-0.157834 0.493418,-0.307616 0.194607,-0.17803 0.364325,-0.270763 0.490104,-0.268 0.130868,0.0028 0.378721,-0.138037 0.775498,-0.440829 0.32048,-0.24507 0.642013,-0.462795 0.713925,-0.48457 0.07195,-0.02179 0.27833,-0.105507 0.458695,-0.186045 l 0.327917,-0.146464 0.366054,0.374268 c 0.201312,0.205856 0.5461,0.601429 0.766166,0.879076 0.220055,0.277643 0.609809,0.679073 0.86612,0.892065 0.256339,0.212974 0.626596,0.551849 0.822847,0.753011 0.510855,0.523629 1.179016,0.901275 1.75007,0.989122 0.270821,0.04166 0.700665,0.110264 0.955198,0.152464 0.254552,0.04214 0.497577,0.04916 0.540069,0.01549 0.04244,-0.03367 0.168307,-0.04563 0.279621,-0.02651 0.590846,0.10144 2.05011,-0.773537 2.674224,-1.60346 0.170093,-0.226377 0.348197,-0.415976 0.395511,-0.42156 0.04741,-0.0056 0.06092,-0.04194 0.03061,-0.08031 -0.03059,-0.03861 0.01506,-0.12629 0.100982,-0.194924 0.08634,-0.06847 0.186224,-0.233972 0.221701,-0.36799 0.03571,-0.133875 0.115216,-0.35293 0.176757,-0.486794 0.06191,-0.13371 0.124589,-0.437821 0.139694,-0.675571 0.0154,-0.237688 0.07283,-0.467748 0.127704,-0.511231 0.05549,-0.04398 0.05291,-0.138063 -0.0055,-0.211846 -0.05794,-0.07305 -0.07476,-0.156946 -0.03747,-0.186517 0.03725,-0.02959 0.03769,-0.163672 9.39e-4,-0.297982 -0.131137,-0.478762 -0.08868,-0.597939 0.297852,-0.836178 0.242391,-0.14938 0.336631,-0.243341 0.295783,-0.294895 -0.03301,-0.0416 -0.01514,-0.111161 0.03987,-0.154512 0.05481,-0.04339 0.123301,-0.04904 0.152196,-0.01254 0.02898,0.03654 0.155406,-0.0151 0.281058,-0.114685 0.125656,-0.09958 0.270575,-0.16583 0.322087,-0.147203 0.0515,0.01863 0.236276,-0.07919 0.410601,-0.217363 0.174368,-0.138156 0.354198,-0.246929 0.399728,-0.241666 0.0454,0.0053 0.13875,-0.02282 0.20717,-0.06237 0.0685,-0.03953 0.20886,-0.09076 0.31206,-0.113753 0.10329,-0.023 0.34177,-0.133895 0.53012,-0.246429 0.18834,-0.112541 0.41274,-0.189816 0.49871,-0.171687 0.086,0.01821 0.22734,-0.02334 0.31413,-0.09214 0.0868,-0.0688 0.18151,-0.09525 0.21046,-0.05873 0.0289,0.0365 0.11365,0.01801 0.1883,-0.04116 0.0747,-0.05909 0.27541,-0.09669 0.4462,-0.08343 0.17081,0.01325 0.34671,-0.0046 0.39092,-0.0396 0.0441,-0.03506 0.13671,-0.04166 0.20566,-0.01465 0.26852,0.105187 1.25823,-0.226346 1.13607,-0.380475 -0.0236,-0.02985 0.0764,-0.230676 0.22238,-0.44626 0.18126,-0.267724 0.25146,-0.46756 0.22251,-0.629762 -0.0237,-0.130782 0.0242,-0.495162 0.10629,-0.809707 0.2596,-0.994605 0.2837,-1.162787 0.21813,-1.520202 -0.0252,-0.137629 -0.0175,-0.471281 0.0172,-0.74143 0.0599,-0.465878 0.0614,-0.752246 0.008,-1.582918 -0.0126,-0.198091 -0.006,-0.544149 0.0156,-0.769032 0.0212,-0.224868 0.002,-0.452934 -0.0425,-0.506786 -0.0984,-0.119288 -0.14687,-0.909193 -0.0834,-1.36396 0.0348,-0.249028 0.12085,-0.39813 0.34515,-0.597874 0.24882,-0.221642 0.28215,-0.288972 0.19882,-0.40309 -0.0547,-0.07555 -0.0553,-0.111609 -6.3e-4,-0.08048 0.15841,0.09008 0.28695,-0.06857 0.42827,-0.52859 0.0723,-0.235756 0.16362,-0.453926 0.20265,-0.484886 0.0389,-0.03097 0.0466,-0.08731 0.0157,-0.125877 -0.0304,-0.03829 -0.0342,-0.20549 -0.009,-0.371604 0.0259,-0.166047 0.0241,-0.284259 -0.003,-0.26249 -0.0274,0.02173 -0.0259,-0.120673 0.004,-0.316469 0.0294,-0.19583 0.0331,-0.381722 0.008,-0.413102 -0.0249,-0.03149 -0.0362,-0.25829 -0.0251,-0.504225 0.0111,-0.245933 -0.0253,-0.541092 -0.0808,-0.655911 -0.0555,-0.114798 -0.0916,-0.331225 -0.0801,-0.480918 0.0287,-0.375586 -0.0175,-0.865035 -0.0862,-0.913096 -0.0312,-0.02204 -0.0418,-0.159592 -0.0233,-0.305864 0.16449,-1.298167 -0.7069,-3.101506 -1.87761,-3.885627 z m 0.34924,0.44384 c -0.0437,-0.0052 -0.0752,-0.0448 -0.0701,-0.08852 0.005,-0.04378 0.0406,-0.03975 0.0794,0.0091 0.0387,0.04868 0.0344,0.08429 -0.009,0.07942 z m -5.433492,-2.227101 0.3531,0.663081 -0.212354,0.230027 c -0.11683,0.126492 -0.274298,0.305257 -0.350122,0.397167 -0.07584,0.0919 -0.237202,0.271465 -0.358744,0.39897 -0.121595,0.127486 -0.183257,0.24547 -0.136766,0.26236 0.04593,0.01714 0.02779,0.07477 -0.04086,0.129205 -0.06856,0.05438 -0.130567,0.219542 -0.136957,0.367502 -0.0075,0.16424 -0.108058,0.375047 -0.258776,0.542481 -0.135598,0.150636 -0.255439,0.350816 -0.266586,0.444735 -0.01081,0.09413 -0.07639,0.188521 -0.144804,0.210197 -0.221791,0.06949 -0.326984,0.438795 -0.47706,1.674223 -0.112076,0.922689 -0.148944,1.605569 -0.09568,1.772781 0.02637,0.08304 0.02022,0.173139 -0.0138,0.200218 -0.0341,0.02703 -0.03069,0.157947 0.0078,0.291088 0.06569,0.227763 0.100271,0.434236 0.131923,0.787214 0.0074,0.08326 0.02243,0.168681 0.03329,0.1898 0.01052,0.02138 0.05151,0.150147 0.09045,0.28667 0.03894,0.136533 0.09401,0.277678 0.122499,0.313618 0.02848,0.03588 0.07491,0.178405 0.103169,0.316561 0.168521,0.824341 1.447538,2.122125 2.374522,2.409373 0.354268,0.109837 0.483828,0.260436 0.668418,0.777475 0.18521,0.518796 0.76031,1.112062 1.08207,1.116258 1.28573,0.01675 1.41795,0.100131 1.3525,0.853003 -0.0264,0.304169 -0.0294,0.576564 -0.007,0.605286 0.0228,0.02877 0.005,0.08137 -0.0396,0.117078 -0.0448,0.03551 -0.12099,0.485067 -0.16934,0.99895 -0.0483,0.513892 -0.10603,0.948771 -0.12823,0.966404 -0.0225,0.01748 -0.057,0.129802 -0.0764,0.249683 -0.0909,0.550574 -0.10669,0.573421 -0.74342,1.078082 -0.34699,0.275016 -0.67109,0.488778 -0.72026,0.475027 -0.15217,-0.04261 -0.52708,0.0414 -0.55726,0.124826 -0.0162,0.04349 -0.10094,0.06394 -0.18902,0.04544 -0.0916,-0.0193 -0.27083,0.0537 -0.41782,0.1702 -0.141625,0.112199 -0.281099,0.174172 -0.310041,0.137656 -0.02896,-0.03655 -0.09499,-0.03288 -0.146655,0.0082 -0.05172,0.04098 -0.138866,0.04916 -0.193499,0.01824 -0.07476,-0.04221 -0.09733,-0.01784 -0.09093,0.0991 0.0047,0.08547 -0.01645,0.124958 -0.04684,0.08773 -0.0304,-0.03727 -0.227025,0.0072 -0.436907,0.09866 -1.356637,0.591342 -1.598943,0.629551 -1.781027,0.280905 -0.05965,-0.11421 -0.08208,-0.228645 -0.04984,-0.254187 0.03221,-0.02563 0.01131,-0.106173 -0.04662,-0.179247 -0.05792,-0.07306 -0.07536,-0.156441 -0.03886,-0.185384 0.03645,-0.02898 0.0191,-0.11231 -0.03887,-0.185393 -0.05793,-0.07307 -0.07766,-0.154651 -0.04403,-0.18129 0.03365,-0.02672 0.01,-0.188374 -0.05272,-0.359334 -0.06264,-0.17096 -0.15475,-0.499243 -0.204622,-0.729599 -0.187151,-0.864484 -1.293336,-2.531863 -2.023289,-3.049741 -1.266046,-0.898216 -1.485132,-0.98454 -2.91421,-1.148224 -0.874715,-0.100185 -1.097092,-0.103298 -1.206131,-0.01688 -0.05044,0.04001 -0.140679,0.04375 -0.200516,0.0083 -0.128007,-0.07565 -1.059253,0.125382 -1.238416,0.2674 -0.06792,0.05388 -0.173848,0.09289 -0.235261,0.08668 -0.225439,-0.02276 -1.711192,1.17563 -2.106791,1.699294 -0.20302,0.268861 -0.453895,0.581488 -0.557277,0.694803 -0.103438,0.113312 -0.166883,0.232644 -0.140749,0.265367 0.02577,0.03253 -0.0033,0.09883 -0.06447,0.147499 -0.161707,0.128146 -0.433366,0.588112 -0.384017,0.650337 0.02316,0.0292 0.0021,0.08467 -0.0467,0.123335 -0.07452,0.05898 -0.218972,1.27813 -0.215556,1.818845 0.0018,0.298013 0.1872,1.06574 0.323181,1.338676 0.07434,0.149173 0.134711,0.327418 0.134287,0.396006 -4.48e-4,0.06865 0.07206,0.188793 0.16105,0.267101 0.08899,0.0783 0.211964,0.289808 0.273262,0.470016 0.06129,0.180205 0.219664,0.466966 0.351986,0.637212 0.273,0.350881 0.275071,0.599136 0.0059,0.652498 -0.09323,0.01844 -0.396975,0.206818 -0.675123,0.41846 -0.524533,0.399285 -0.924482,0.639203 -2.087869,1.252644 -0.377378,0.198952 -0.816595,0.442627 -0.976096,0.541435 -0.159457,0.09885 -0.339596,0.175372 -0.40028,0.170059 -0.06066,-0.0052 -0.203899,0.06462 -0.318302,0.155307 -0.114415,0.09068 -0.245381,0.160542 -0.291042,0.155256 -0.07981,-0.0092 -0.6041,0.198544 -1.680886,0.666132 -0.278564,0.120991 -0.553419,0.203816 -0.610736,0.184108 -0.05737,-0.01966 -0.188075,-0.0035 -0.290539,0.03595 -0.102448,0.03951 -0.207447,0.04512 -0.233285,0.01254 -0.02584,-0.03261 -0.194842,-3.5e-4 -0.375593,0.07165 -0.180704,0.07204 -0.34855,0.105773 -0.372904,0.07505 -0.02435,-0.03074 -0.07546,-0.0313 -0.113486,-0.001 -0.03801,0.03012 -0.177855,0.04615 -0.310751,0.03549 -0.132875,-0.01069 -0.339659,0.02852 -0.459531,0.08702 -0.119812,0.05852 -0.28751,0.09167 -0.372562,0.07373 -0.08512,-0.01795 -0.211156,0.01217 -0.280206,0.0669 -0.119641,0.09486 -0.480381,0.184928 -0.619363,0.154677 -0.09497,-0.0206 -0.676348,0.101332 -0.648738,0.13617 0.02147,0.02704 -0.230729,0.01324 -1.453293,-0.07961 -0.239581,-0.0182 -0.59134,-0.03124 -0.781693,-0.02901 -0.190345,0.0022 -0.450185,0.0014 -0.577422,-0.0018 -0.127182,-0.0032 -0.264305,0.0199 -0.304624,0.05131 -0.04032,0.03139 -0.224404,0.01923 -0.409078,-0.02707 -0.184689,-0.04627 -0.515296,-0.107412 -0.734703,-0.135742 -0.23809,-0.03076 -0.437057,-0.112727 -0.493521,-0.203369 -0.05204,-0.08354 -0.17082,-0.201033 -0.26332,-0.261713 -0.125856,-0.08201 -0.177749,-0.227483 -0.204228,-0.573347 -0.05508,-0.71819 -0.126016,-0.98648 -0.328351,-1.241757 -0.102726,-0.129611 -0.162405,-0.254976 -0.132703,-0.278518 0.20077,-0.159124 -0.652377,-1.708343 -1.916588,-3.480326 -0.525729,-0.736879 -0.567259,-0.820512 -0.452605,-0.911384 0.06944,-0.05504 0.101511,-0.131233 0.07122,-0.169382 -0.03018,-0.03811 -0.01216,-0.09199 0.04019,-0.119783 0.565104,-0.299979 0.124535,-2.024997 -0.488223,-1.911615 -0.528059,0.09771 -0.672317,-0.01461 -1.186439,-0.923735 -0.186771,-0.33031 -0.759001,-0.524223 -1.214185,-0.411513 -0.209263,0.05182 -0.422848,0.0789 -0.474629,0.06017 -0.205868,-0.07441 -1.369408,0.313283 -1.581936,0.52715 -0.08428,0.08483 -0.830901,0.399626 -1.279861,0.539648 -0.28607,0.08922 -0.920048,0.611356 -1.104346,0.909528 -0.153263,0.248058 -0.170602,0.252513 -0.657938,0.170165 -0.275275,-0.04651 -0.551356,-0.09285 -0.613504,-0.103101 -0.331435,-0.05438 -0.745923,-0.05389 -0.784,8.46e-4 -0.02397,0.03433 -0.09647,0.03107 -0.161322,-0.0073 -0.06484,-0.03834 -0.176192,-0.02345 -0.247457,0.03299 -0.07124,0.05646 -0.134803,0.05821 -0.141185,0.0038 -0.0064,-0.05441 -0.04791,-0.07013 -0.09299,-0.03439 -0.04475,0.03548 -0.07753,0.03159 -0.07292,-0.0086 0.0046,-0.04019 -0.44304,-0.124291 -0.994872,-0.186887 -0.55183,-0.0626 -1.022083,-0.137481 -1.045017,-0.166413 -0.03676,-0.04637 -0.929529,-0.203137 -1.816495,-0.318977 -0.168065,-0.02192 -0.322406,-0.06122 -0.343015,-0.08716 -0.02061,-0.02599 -0.105752,-0.05666 -0.18915,-0.06821 -0.0834,-0.01156 -0.249909,-0.0527 -0.369903,-0.09166 -0.120015,-0.03889 -0.456911,-0.106175 -0.748673,-0.149497 -0.291764,-0.04332 -0.663943,-0.09865 -0.827075,-0.122938 -0.16313,-0.0243 -0.320306,-0.07413 -0.349302,-0.110626 -0.02898,-0.03657 -0.19326,-0.07513 -0.365108,-0.0856 -0.171825,-0.01053 -0.46487,-0.05804 -0.651197,-0.105583 -0.18633,-0.04755 -0.396592,-0.09726 -0.467253,-0.110436 -0.07067,-0.01317 -0.247567,-0.06488 -0.393107,-0.114908 -0.148764,-0.05117 -0.281088,-0.0454 -0.302229,0.01304 -0.02217,0.06147 -0.0429,0.0591 -0.05042,-0.0056 -0.01012,-0.08651 -1.008868,-0.489701 -1.604028,-0.647498 -0.05912,-0.0156 -0.196802,-0.06461 -0.306081,-0.108743 -0.109225,-0.04423 -0.288094,-0.116375 -0.397388,-0.160484 -0.109223,-0.04423 -0.30022,-0.09856 -0.424314,-0.120948 -0.12406,-0.02241 -0.296384,-0.09506 -0.382865,-0.161488 -0.08646,-0.06642 -0.18384,-0.09968 -0.216463,-0.07379 -0.03253,0.02578 -0.09638,-5.8e-5 -0.141872,-0.05739 -0.04547,-0.05737 -0.163029,-0.113615 -0.261216,-0.124948 -0.09817,-0.01142 -0.224208,-0.0782 -0.279981,-0.148717 -0.05583,-0.07041 -0.12774,-0.107211 -0.159818,-0.08176 -0.03205,0.0254 -0.154536,-0.01129 -0.27211,-0.08159 -0.117582,-0.07032 -0.499101,-0.290811 -0.847812,-0.490053 -0.34871,-0.199253 -0.772018,-0.447459 -0.940704,-0.551547 -0.168686,-0.104093 -0.379044,-0.204897 -0.467478,-0.223996 -0.08848,-0.01905 -0.415583,-0.148918 -0.726957,-0.288577 -0.311375,-0.139671 -0.63319,-0.261823 -0.715086,-0.271603 -0.08188,-0.0098 -0.215048,-0.06232 -0.295858,-0.116831 -0.08088,-0.05442 -0.174826,-0.077 -0.208864,-0.05001 -0.03409,0.02702 -0.109268,-0.01064 -0.167114,-0.08378 -0.05788,-0.07303 -0.130551,-0.112722 -0.161596,-0.0881 -0.03101,0.02452 -0.21147,-0.03556 -0.401127,-0.133564 -0.189705,-0.09794 -0.431791,-0.185764 -0.538057,-0.195087 -0.106273,-0.0093 -0.392793,-0.101937 -0.636693,-0.205888 -0.24395,-0.104012 -0.50401,-0.189723 -0.57792,-0.190642 -0.0739,-8.51e-4 -0.5218,-0.193112 -0.99525,-0.427252 -0.47347,-0.234116 -0.88513,-0.406424 -0.91485,-0.382866 -0.0296,0.02356 -0.0882,-5.12e-4 -0.13029,-0.05349 -0.0419,-0.05295 -0.14374,-0.08541 -0.22611,-0.07208 -0.0824,0.01324 -0.18994,-0.01331 -0.23907,-0.05906 -0.0491,-0.04582 -0.15367,-0.105222 -0.23239,-0.131979 -0.29667,-0.101062 -0.56084,-0.233328 -0.62346,-0.312394 -0.0356,-0.04497 -0.17916,-0.103442 -0.31897,-0.129739 -0.13976,-0.02637 -0.28156,-0.0825 -0.31507,-0.124901 -0.0337,-0.04236 -0.21182,-0.149852 -0.396,-0.239024 -0.87621,-0.42382 -1.99923,-1.321216 -2.88082,-2.302077 -0.26529,-0.295094 -0.53992,-0.549349 -0.61046,-0.564923 -0.0705,-0.01557 -0.16318,-0.112365 -0.20602,-0.215019 -0.0531,-0.127203 -0.0751,-0.142759 -0.0691,-0.04892 0.0113,0.17935 -0.92647,-0.824715 -1.27032,-1.360045 -0.17486,-0.272289 -0.2284,-0.325817 -0.17743,-0.177481 l 0.073,0.212377 -0.15193,-0.178823 c -0.084,-0.09801 -0.3943,-0.358261 -0.69005,-0.577926 -0.29581,-0.219631 -0.91517,-0.785806 -1.37646,-1.258132 -0.46125,-0.472323 -1.04413,-1.060732 -1.29524,-1.307579 -1.62091,-1.593327 -2.4135601,-2.648465 -2.9266301,-3.895841 -0.0922,-0.224192 -0.29681,-0.718703 -0.45463,-1.09895 -0.15784,-0.380251 -0.32305,-0.905983 -0.36714,-1.168299 -0.0441,-0.262331 -0.11495,-0.640698 -0.15749,-0.840838 -0.0425,-0.200137 -0.0683,-0.441906 -0.0573,-0.537266 0.0107,-0.09544 0.008,-0.290947 -0.006,-0.434704 -0.038,-0.378718 -0.0382,-0.391613 -0.0125,-1.297788 0.0129,-0.455403 0.0575,-1.15328 0.0991,-1.55087 0.0416,-0.397589 0.0958,-0.976263 0.12052,-1.285914 0.0395,-0.494717 0.0969,-0.846818 0.31079,-1.902517 0.029,-0.141479 0.0941,-0.319708 0.14519,-0.396092 0.0511,-0.07642 0.0716,-0.166394 0.0445,-0.20054 -0.027,-0.03405 -0.007,-0.09545 0.0454,-0.136313 0.0517,-0.04099 0.0862,-0.10485 0.0763,-0.142085 -0.0327,-0.126848 0.87455,-2.118587 1.01908,-2.237402 0.0541,-0.04433 0.12599,-0.226149 0.16044,-0.40365 0.0344,-0.177634 0.1106801,-0.338083 0.1699801,-0.356529 0.0592,-0.01856 0.10057,-0.06185 0.0919,-0.09632 -0.0812,-0.325666 1.13519,-1.666002 1.51211,-1.666163 0.066,2e-6 0.34404,-0.146776 0.61808,-0.3261144 0.80697,-0.528149 1.07881,-0.664151 1.3588,-0.679815 0.17253,-0.0097 0.28117,-0.06098 0.31252,-0.147646 0.029,-0.08065 0.0866,-0.118898 0.14606,-0.09739 0.054,0.01927 0.20658,-0.05053 0.33918,-0.155647 0.13264,-0.105097 0.27906,-0.177389 0.32542,-0.160623 0.0467,0.01625 0.15723,-0.02734 0.24634,-0.09797 0.0891,-0.07066 0.18326,-0.101697 0.20915,-0.06902 0.0261,0.03273 0.17209,-0.01295 0.3249,-0.101503 0.51755,-0.299757 0.81393,-0.438655 0.93584,-0.438574 0.0667,5.4e-5 0.1553,-0.05707 0.19664,-0.126944 0.0441,-0.0724 0.10153,-0.09379 0.13688,-0.04908 0.0386,0.04866 0.10058,0.02058 0.16473,-0.07471 0.0653,-0.09708 0.1817,-0.147505 0.31905,-0.138517 0.13458,0.0088 0.26041,-0.04477 0.3335,-0.141973 0.0647,-0.08582 0.16854,-0.156154 0.23105,-0.156211 0.0624,-1.6e-5 0.21724,-0.05352 0.34381,-0.11884 0.12649,-0.06536 0.34265,-0.176293 0.48015,-0.246605 0.13747,-0.07032 0.27097,-0.101357 0.29662,-0.06899 0.0257,0.03241 0.10456,0.01285 0.17549,-0.04328 0.0708,-0.05618 0.16676,-0.08843 0.21311,-0.07166 0.0462,0.01729 0.27088,-0.05643 0.49902,-0.162649 0.22813,-0.1062 0.47725,-0.206356 0.55356,-0.222571 0.0764,-0.01622 0.34381,-0.07766 0.59442,-0.136526 0.2506,-0.05886 0.48336,-0.09251 0.51724,-0.07477 0.0339,0.01767 0.091,0.0089 0.12695,-0.01952 0.10245,-0.08113 1.25834,-0.0457 1.75574,0.05386 0.24723,0.04948 0.56044,0.0911 0.69608,0.09249 0.1356,0.0014 0.64988,0.137693 1.14283,0.302851 0.49295,0.165179 0.950817,0.283207 1.01743,0.262351 0.06665,-0.02094 0.155451,0.0053 0.197381,0.05815 0.04186,0.05283 0.107058,0.08788 0.144851,0.07775 0.03771,-0.01002 0.331924,0.03881 0.653704,0.108766 0.32177,0.06996 0.679656,0.143908 0.795204,0.164455 0.115551,0.02058 0.396439,0.10264 0.624151,0.182383 0.22787,0.07943 0.41644,0.124546 0.419325,0.09955 0.0067,-0.05538 2.216289,0.228743 2.535213,0.326074 0.125433,0.03831 0.287377,0.08044 0.359792,0.09383 0.07233,0.01326 0.336089,0.06728 0.585947,0.119982 0.24986,0.05269 0.576186,0.101022 0.725184,0.107388 0.14899,0.0064 0.366968,0.02057 0.484395,0.03154 0.117417,0.01096 0.241343,-0.0021 0.275407,-0.02912 0.03411,-0.02706 0.128197,-0.0043 0.209306,0.05028 0.08113,0.05457 0.170371,0.08109 0.198383,0.05898 0.118019,-0.09356 2.220989,0.197716 2.318826,0.321139 0.02968,0.03745 0.08108,0.04652 0.114277,0.0204 0.06738,-0.05356 1.297367,-0.05482 1.395937,-0.0015 0.03459,0.01909 0.10707,-8.5e-4 0.161064,-0.04357 0.0539,-0.04276 0.103192,-0.03314 0.1096,0.02125 0.0064,0.05437 0.05807,0.06202 0.115091,0.01684 0.05689,-0.04515 0.1272,-0.05211 0.156105,-0.01564 0.029,0.03655 0.0974,0.03109 0.152201,-0.01254 0.05473,-0.04339 0.129373,-0.04128 0.165919,0.0047 0.07753,0.09782 0.664488,0.201895 0.751191,0.13314 0.03258,-0.02583 0.125562,-0.0022 0.206602,0.05243 0.08104,0.05464 0.187517,0.06779 0.23685,0.02848 0.04921,-0.03903 0.409546,-0.02518 0.800743,0.03071 0.391172,0.05594 1.036617,0.143893 1.434279,0.195541 0.397639,0.0517 0.849693,0.131028 1.004528,0.176346 0.154855,0.0453 0.377567,0.09613 0.494909,0.113027 0.11734,0.01683 0.236237,0.05945 0.264087,0.09485 0.02791,0.03525 0.135943,0.04842 0.239863,0.0299 0.10404,-0.01883 0.233098,0.0213 0.286851,0.08917 0.05375,0.06787 0.15622,0.105033 0.227744,0.08263 0.07155,-0.02245 0.263893,0.02489 0.427563,0.105072 0.163713,0.08016 0.336867,0.114628 0.384844,0.07669 0.04805,-0.0381 0.101536,-0.04402 0.118888,-0.01314 0.0866,0.153531 0.188489,0.2019174 0.277135,0.131634 0.05408,-0.0429 0.311874,0.0082 0.572981,0.1133294 0.653354,0.262979 0.811714,0.302463 0.908718,0.225594 0.04598,-0.03643 0.161589,-0.0065 0.256872,0.06664 0.165845,0.127293 0.207927,0.123513 0.445312,-0.03969 0.151203,-0.103971 0.686546,-0.224846 0.733487,-0.165616 0.02189,0.02759 0.1074,-0.0034 0.190006,-0.06889 0.08968,-0.07107 0.222594,-0.082 0.329859,-0.02707 0.09876,0.05066 0.263343,0.07823 0.365621,0.06152 0.102325,-0.01682 0.38325,1.53e-4 0.624327,0.03761 0.925441,0.143755 1.187725,0.171624 1.762574,0.187247 0.326345,0.0089 0.642124,-0.0068 0.701732,-0.03481 0.05959,-0.02803 0.135584,-0.01655 0.168879,0.02541 0.0678,0.08545 1.213872,0.194887 1.302876,0.124334 0.03133,-0.02481 0.07674,-0.02028 0.100831,0.01016 0.02412,0.03042 0.188208,0.06808 0.364302,0.08453 1.074971,0.09812 1.45474,0.113131 1.521541,0.06018 0.04135,-0.03279 0.159967,-0.02949 0.26345,0.0074 0.103561,0.03669 0.232737,0.0317 0.287181,-0.01143 0.05477,-0.0434 0.146077,-0.01918 0.204251,0.05431 0.07719,0.09735 0.149488,0.09774 0.271219,0.0012 0.14809,-0.117385 0.247298,-0.09495 0.344838,0.07803 0.01699,0.03114 0.06167,0.03191 0.09801,0.0034 0.186939,-0.148167 0.44136,-0.125055 0.582394,0.05289 0.05507,0.06946 0.206452,0.107127 0.336495,0.08355 0.130008,-0.0235 0.253015,-0.02175 0.273348,0.0039 0.02032,0.02568 0.303241,0.08167 0.628662,0.124548 0.325417,0.04291 0.588174,0.108382 0.583856,0.145669 -0.0043,0.03724 0.02915,0.03843 0.07437,0.0026 0.117401,-0.09305 0.361619,-0.0505 0.682511,0.118924 0.15292,0.08067 0.504472,0.182229 0.78131,0.22557 0.276832,0.04333 0.517211,0.09607 0.534196,0.117061 0.07945,0.09868 0.849943,0.155554 0.907758,0.0671 0.03941,-0.06046 0.08115,-0.0536 0.105114,0.01711 0.04291,0.12692 0.506219,0.34193 0.591341,0.274452 0.02869,-0.02273 0.08763,0.0035 0.131006,0.05838 0.04343,0.05472 0.108812,0.07586 0.145362,0.04684 0.03654,-0.029 0.101916,-0.0078 0.145359,0.04684 0.04343,0.05473 0.105191,0.07875 0.137208,0.05345 0.03204,-0.02538 0.169546,0.01572 0.305503,0.09137 0.135874,0.0758 0.314718,0.145359 0.397178,0.155096 0.180365,0.02086 0.818427,0.279835 1.990592,0.80782 0.478297,0.215408 0.903791,0.380853 0.945453,0.367879 0.04176,-0.01326 0.118494,0.02942 0.170407,0.09491 0.05193,0.06551 0.162727,0.120681 0.246215,0.122587 0.08351,0.0019 0.239702,0.07788 0.347094,0.16891 0.200004,0.16953 1.532773,0.930223 2.047889,1.168816 0.157919,0.07321 0.332661,0.175851 0.388237,0.228186 0.05561,0.05225 0.196023,0.14354 0.312145,0.202597 0.50567,0.257862 0.727874,0.391546 1.210408,0.728172 0.282008,0.196726 0.618674,0.47041 0.748199,0.608115 0.129558,0.137663 0.28944,0.269866 0.355312,0.293741 0.06587,0.02392 0.237272,0.168588 0.380882,0.321654 0.143547,0.153089 0.365862,0.322658 0.493978,0.376869 0.128182,0.054 0.395575,0.237157 0.594301,0.406674 0.198746,0.169476 0.591875,0.411545 0.873619,0.537964 0.281742,0.126394 0.588271,0.296907 0.681145,0.378953 0.09292,0.08195 0.219488,0.155198 0.281318,0.162686 0.06177,0.0074 0.147838,0.05839 0.191172,0.113146 0.10663,0.13449 1.363671,0.531315 1.599634,0.504471 0.103623,-0.0117 0.213871,0.01058 0.244664,0.04954 0.03081,0.03887 0.214675,0.112507 0.408481,0.163861 1.32706,0.349713 3.902032,2.290032 4.329928,3.262721 0.03901,0.08858 0.106642,0.156926 0.150413,0.151809 0.136398,-0.01601 2.024416,2.536792 2.405525,3.25255 z M 47.800317,10.554946 c -0.0051,0.0437 0.02649,0.08351 0.07016,0.08855 0.04366,0.0051 0.04775,-0.03067 0.0092,-0.07936 -0.03856,-0.04873 -0.07429,-0.05282 -0.07937,-0.0091 z M 82.166896,46.57804 c 0.132009,0.226113 0.210245,0.483432 0.197087,0.647854 -0.01202,0.149998 0.005,0.306539 0.03771,0.347841 0.0694,0.08756 1.99e-4,0.521477 -0.113983,0.714494 -0.0456,0.0771 -0.02264,0.204178 0.05437,0.301346 0.08759,0.110509 0.09644,0.197186 0.02588,0.253114 -0.08343,0.06618 -0.06541,0.117898 0.08131,0.232824 0.103719,0.08128 0.302752,0.241107 0.442291,0.355156 0.139528,0.114042 0.348584,0.22314 0.46454,0.242497 0.391579,0.06519 0.690701,1.081727 0.528216,1.794995 -0.03151,0.138377 -0.0665,0.34085 -0.07762,0.44998 -0.07444,0.727407 -1.445027,2.189683 -1.970463,2.102161 -0.123964,-0.02064 -0.258596,-0.01222 -0.299175,0.01872 -0.08033,0.06114 -0.935163,-0.225688 -1.461147,-0.490364 -0.493731,-0.248459 -1.364318,-1.059972 -2.53698,-2.364852 l -0.581502,-0.647067 0.497039,-0.39395 c 0.27338,-0.216674 0.491712,-0.439494 0.485188,-0.495184 -0.0064,-0.05568 0.167591,-0.232278 0.386965,-0.392463 0.696226,-0.508434 0.547951,-1.51396 -0.25007,-1.694932 -0.706795,-0.160258 -0.871337,-0.16876 -0.915345,-0.04702 -0.05451,0.149609 -0.122969,0.222985 -0.803519,0.85646 -0.509505,0.47414 -0.514093,0.476491 -0.634765,0.319423 -0.216399,-0.281079 -0.643935,-1.28531 -0.614778,-1.442765 0.0061,-0.03498 -0.02235,-0.229082 -0.06401,-0.431668 -0.122047,-0.593567 0.09354,-1.537453 0.408112,-1.786784 0.05322,-0.0422 0.08518,-0.111679 0.07076,-0.154664 -0.06097,-0.184624 0.905346,-1.098345 1.453045,-1.373969 0.507823,-0.255545 1.426605,-0.372216 1.725691,-0.219137 0.10659,0.05473 0.219,0.07938 0.249678,0.05502 0.03066,-0.02429 0.116477,0.0325 0.190753,0.126161 0.07425,0.09369 0.214311,0.204712 0.311207,0.246787 0.199117,0.08639 0.40672,0.23967 0.626156,0.462432 0.08223,0.08346 0.168244,0.161227 0.191086,0.172839 0.02297,0.01167 0.109109,0.113511 0.192002,0.226149 0.08291,0.112649 0.215485,0.226474 0.295399,0.25229 0.165956,0.05348 1.081239,1.194161 1.409057,1.755884 z m -27.417554,4.211361 c 0.07083,0.122227 0.161566,0.293516 0.201498,0.38077 0.03995,0.08725 0.122673,0.264889 0.183798,0.3948 0.131101,0.278587 0.296215,0.728286 0.506801,1.380359 0.08384,0.259694 0.156199,0.476828 0.160744,0.482566 0.205786,0.259638 -0.966554,0.254784 -1.492584,-0.0062 -0.471678,-0.234017 -0.597959,-0.333303 -1.206954,-0.948829 -0.346117,-0.349917 -0.739273,-0.719302 -0.873606,-0.820915 -0.5279,-0.399309 -1.831763,-1.919656 -2.069603,-2.413216 -0.540315,-1.121233 -0.539663,-1.246225 0.0065,-1.248236 0.150723,-5.66e-4 0.314822,-0.03334 0.364673,-0.07285 0.04984,-0.0395 0.12697,-0.02598 0.171409,0.03008 0.151509,0.191154 0.544393,0.256161 0.850062,0.14075 0.167832,-0.06339 0.354355,-0.111476 0.414486,-0.106866 0.06015,0.0046 0.160274,-0.03199 0.222548,-0.08135 0.19887,-0.157632 1.918684,1.7831 2.560221,2.889117 z m -8.432276,29.633258 c 0.01873,0.063 0.06653,0.11854 0.106342,0.12288 0.03943,0.005 0.02461,-0.0468 -0.03417,-0.11479 -0.06445,-0.0749 -0.09266,-0.0781 -0.07179,-0.009 z"
       id="path1579"
       sodipodi:nodetypes="csssccssssssscccsscsssssssssssscscsssssssssssssssssssssssssscssscssssssssssssssssssssscssssscsscsssssssssssssssssscscscsssssssssssssssssssssssssssssscssscssscssssssssssssssssccsssscscssssssssssssssssssssscssssscsssscsssssssssssssscsscscscccsccsssssssscsssscsssssssssssssssssssssscssscsssscsscsssssssssssscccsssssccsssssssscscssscssssssssssscsccsssscsssssssssssssscssscsssssscsscsccscssscsscsssssssssssssssccssssscsssssssscssssssssssssssssssssssccccsssssssssscsssscscssssscssssccssccccccsssssssssssssssscsscsssscssssssssssssssssssssssssssscsssscssssssssssscssssscssssssssscssssssssssssssssssssssscssssssssssscsssssssssssscssssscsssssssscssccssssscssssssssssscsscsssssccsssssssscssscccsssssscssssssssssccccc" />
    <path
       style="fill:#000000;stroke-width:0.0846408"
       d="m 12.828807,122.11192 c 0.0784,-0.16293 0.16606,-0.31529 0.19478,-0.33856 0.0287,-0.0233 0.0787,-0.12703 0.11096,-0.23056 0.0323,-0.10353 0.16122,-0.26885 0.28649,-0.36739 0.12527,-0.0985 0.22676,-0.20427 0.22555,-0.23497 -0.005,-0.11671 0.24776,-0.34107 0.32794,-0.29151 0.0478,0.0295 0.0628,-0.003 0.0349,-0.0758 -0.0279,-0.0727 0.0206,-0.17789 0.11257,-0.24418 0.0889,-0.0641 0.16282,-0.15566 0.16432,-0.20358 10e-4,-0.0479 0.17795,-0.2072 0.39212,-0.35397 0.40392,-0.27682 0.62388,-0.26828 1.29115,0.0501 0.25292,0.12068 0.40542,1.02084 0.17295,1.02084 -0.0374,0 -0.0926,0.11199 -0.12271,0.24886 -0.0301,0.13688 -0.17288,0.33684 -0.31737,0.44437 -0.3758,0.27965 -0.86214,0.76165 -1.03555,1.02631 -0.0819,0.12496 -0.18773,0.2272 -0.23523,0.2272 -0.0475,0 -0.17435,0.0949 -0.28189,0.21098 -0.11836,0.12771 -0.21716,0.17601 -0.25031,0.12236 -0.0361,-0.0584 -0.12436,-0.043 -0.25854,0.0449 -0.14427,0.0945 -0.20376,0.10329 -0.20376,0.03 0,-0.0766 -0.0247,-0.0788 -0.0951,-0.008 -0.11353,0.11353 -0.36402,-0.0898 -0.54831,-0.44496 -0.14236,-0.2744 -0.14305,-0.26191 0.035,-0.63198 z m 1.51122,-1.55175 c 0.031,-0.031 0.031,-0.0818 0,-0.11285 -0.031,-0.031 -0.0564,-0.006 -0.0564,0.0564 0,0.0621 0.0254,0.0875 0.0564,0.0564 z m -1.38952,-3.61138 c 0.10475,-0.15345 0.32316,-0.34953 0.48537,-0.43572 0.16221,-0.0862 0.25743,-0.158 0.2116,-0.15956 -0.19419,-0.007 0.94612,-0.3493 1.26256,-0.37943 0.19082,-0.0182 0.61253,-0.0662 0.93714,-0.10682 0.53631,-0.067 0.90826,-0.008 0.95284,0.15052 0.0577,0.20535 0.13553,0.3312 0.18575,0.30016 0.0333,-0.0206 0.0246,0.16056 -0.0194,0.40253 -0.089,0.48995 -0.64734,0.94517 -1.28648,1.04888 -0.1628,0.0264 -0.29599,0.077 -0.29599,0.11243 0,0.0919 -0.28508,0.15124 -1.04052,0.21681 -0.36905,0.032 -0.65361,0.0244 -0.64595,-0.0172 0.0321,-0.1745 -0.0146,-0.21537 -0.13331,-0.11682 -0.15205,0.12619 -0.41774,-0.0392 -0.32138,-0.20003 0.0317,-0.0529 -0.007,-0.0439 -0.0856,0.02 -0.12602,0.10222 -0.14321,0.0946 -0.14321,-0.0635 0,-0.10326 -0.054,-0.17965 -0.12696,-0.17965 -0.18462,0 -0.15551,-0.27169 0.0635,-0.59253 z m 0.78517,-0.27023 c 0.0261,-0.0261 -0.0209,-0.0734 -0.10439,-0.10517 -0.12063,-0.0459 -0.13035,-0.0362 -0.0474,0.0474 0.0574,0.0578 0.12571,0.0838 0.15177,0.0578 z m -0.31964,-5.52891 c 0.0582,0.0295 0.1058,0.0191 0.1058,-0.0231 0,-0.12717 0.32426,-0.45998 0.40159,-0.41218 0.0396,0.0245 0.12605,0.0111 0.1921,-0.0297 0.0709,-0.0438 0.16095,-0.0403 0.21981,0.009 0.0548,0.0455 0.13231,0.0769 0.17212,0.0698 0.1824,-0.0327 0.30553,0.0267 0.60115,0.29009 0.17471,0.15567 0.38127,0.31755 0.45903,0.35972 0.0778,0.0422 0.34809,0.26713 0.60075,0.49989 0.25265,0.23276 0.53183,0.48718 0.62039,0.56537 0.0886,0.0782 0.20517,0.19246 0.25915,0.25392 0.054,0.0615 0.29561,0.28316 0.53698,0.49264 0.647,0.56155 0.83406,1.06019 0.58156,1.55026 -0.13363,0.25938 -0.52207,0.60908 -0.66973,0.60295 -0.0681,-0.003 -0.20944,0.0248 -0.31418,0.0614 -0.11946,0.0417 -0.19045,0.0331 -0.19045,-0.0231 0,-0.0493 -0.0454,-0.0745 -0.10092,-0.056 -0.13878,0.0463 -2.09974,-1.9486 -2.09974,-2.13603 0,-0.0463 -0.0505,-0.0842 -0.11221,-0.0842 -0.11604,0 -0.48027,-0.34421 -0.48027,-0.45387 0,-0.0341 -0.10279,-0.15732 -0.22841,-0.27374 -0.12562,-0.11642 -0.23735,-0.27267 -0.24829,-0.34721 -0.0109,-0.0745 -0.0546,-0.15839 -0.0971,-0.18632 -0.11195,-0.0736 -0.21749,-0.54458 -0.10669,-0.4761 0.14596,0.0902 0.0989,-0.055 -0.0601,-0.18529 -0.0815,-0.0668 -0.10051,-0.0973 -0.0423,-0.0678 z m 5.14248,7.53432 c 0.0153,-0.0465 0.0519,-0.22853 0.0814,-0.4044 0.0294,-0.17586 0.0815,-0.30245 0.11576,-0.2813 0.0342,0.0212 0.0633,-0.0254 0.0645,-0.10345 0.002,-0.14725 0.44052,-2.07675 0.5223,-2.30024 0.0256,-0.0698 0.0396,-0.22219 0.0312,-0.33857 -0.0237,-0.32888 -0.0212,-0.35685 0.0679,-0.76176 0.0899,-0.40859 0.45556,-1.7372 0.53576,-1.94674 0.17389,-0.45437 0.32141,-1.03199 0.3314,-1.29759 0.006,-0.17083 0.0387,-0.31059 0.0718,-0.31059 0.0331,0 0.0844,-0.15183 0.11406,-0.3374 0.0548,-0.34296 0.29836,-0.93207 0.38541,-0.93238 0.0263,-9e-5 0.0571,-0.14293 0.0686,-0.3174 0.0114,-0.17448 0.0542,-0.39342 0.095,-0.48652 0.0408,-0.0931 0.1404,-0.47399 0.2213,-0.84641 0.0809,-0.37242 0.1832,-0.75493 0.22734,-0.85003 0.0441,-0.0951 0.0913,-0.2284 0.10488,-0.29624 0.0135,-0.0678 0.046,-0.18047 0.0721,-0.2503 0.0261,-0.0698 0.11555,-0.32693 0.19879,-0.57133 0.0832,-0.2444 0.1807,-0.44436 0.2166,-0.44436 0.0359,0 0.045,-0.0527 0.0203,-0.11708 -0.0247,-0.0644 0.0123,-0.25406 0.0823,-0.42148 0.0764,-0.18277 0.10796,-0.42285 0.0791,-0.60087 -0.0367,-0.22604 -0.0154,-0.30903 0.0897,-0.34934 0.0758,-0.0291 0.13779,-0.10594 0.13779,-0.17078 0,-0.0649 0.0286,-0.11821 0.0635,-0.11857 0.0349,-3.4e-4 0.10511,-0.0861 0.156,-0.19044 0.18156,-0.37243 0.41692,-0.7763 0.51558,-0.88471 0.0551,-0.0606 0.12436,-0.18612 0.15383,-0.27894 0.0295,-0.0928 0.0891,-0.16878 0.1325,-0.16878 0.0434,0 0.0789,-0.0637 0.0789,-0.14146 0,-0.0778 0.0509,-0.20159 0.11302,-0.27508 0.0622,-0.0735 0.16326,-0.26694 0.22467,-0.42987 0.0614,-0.16294 0.15338,-0.33521 0.20438,-0.38284 0.11185,-0.10443 0.25211,-0.32712 0.4386,-0.69633 0.0764,-0.1513 0.1727,-0.27509 0.21394,-0.27509 0.0413,0 0.075,-0.0774 0.075,-0.171928 0,-0.0946 0.0571,-0.19387 0.12696,-0.22066 0.0698,-0.0268 0.12696,-0.08 0.12696,-0.11832 0,-0.12224 0.67933,-1.09726 0.7645,-1.09726 0.0451,0 0.0819,-0.0452 0.0819,-0.10057 0,-0.15415 0.36801,-0.65997 0.48064,-0.66062 0.0549,-3.4e-4 0.15009,-0.0507 0.2116,-0.11192 0.20162,-0.20069 0.86877,-0.55487 1.10318,-0.58566 0.12626,-0.0166 0.25291,-0.0535 0.28145,-0.082 0.0285,-0.0285 0.1612,-0.0205 0.29481,0.0178 0.1336,0.0383 0.25452,0.0366 0.26871,-0.004 0.0262,-0.0746 1.05079,-0.37747 1.84558,-0.54561 0.0698,-0.0148 0.27931,-0.085 0.46552,-0.15611 0.34669,-0.13234 1.23897,-0.35556 1.69282,-0.42348 0.64156,-0.096 0.93584,-0.17281 0.99323,-0.25919 0.0418,-0.0629 0.0626,-0.0555 0.0635,0.0226 9.3e-4,0.0831 0.0314,0.0913 0.1071,0.0287 0.0582,-0.0481 0.26534,-0.0792 0.46033,-0.0692 0.19499,0.0101 0.33557,-0.0124 0.31241,-0.0498 -0.0232,-0.0375 0.0363,-0.0729 0.13215,-0.0787 0.0958,-0.006 0.20285,-0.0183 0.23776,-0.0277 0.16995,-0.0459 0.69572,-0.12889 1.03685,-0.16366 0.20949,-0.0214 0.4852,-0.0788 0.6127,-0.12759 0.2144,-0.0821 0.70667,-0.1436 1.6805,-0.21003 0.21382,-0.0146 0.43872,-0.0574 0.49976,-0.0951 0.0767,-0.0474 0.0907,-0.0357 0.0454,0.0376 -0.0524,0.0847 -0.0265,0.0852 0.12818,0.002 0.18194,-0.0974 0.51299,-0.10504 2.38707,-0.0553 0.31425,0.008 0.57135,-0.006 0.57132,-0.0313 -2e-5,-0.0256 0.13103,-0.0312 0.29123,-0.0125 0.1602,0.0187 0.40296,-0.0217 0.53948,-0.0898 0.16408,-0.0819 0.29509,-0.0976 0.38653,-0.0464 0.0761,0.0426 0.17531,0.0545 0.22053,0.0266 0.0452,-0.028 0.15919,-0.01 0.25326,0.0407 0.12521,0.067 0.17103,0.0656 0.17103,-0.005 0,-0.0584 0.0586,-0.073 0.14812,-0.0369 0.0815,0.0329 0.64327,0.074 1.24845,0.0914 0.60518,0.0174 1.30982,0.0505 1.56586,0.0737 0.25603,0.0232 0.73214,0.064 1.05801,0.0907 0.32586,0.0267 0.66866,0.0725 0.76176,0.10174 0.0931,0.0293 0.26451,0.0603 0.38089,0.0689 0.11638,0.009 0.55439,0.0407 0.97337,0.0712 0.41897,0.0306 0.96585,0.079 1.21529,0.10761 0.43424,0.0498 0.4511,0.0444 0.39634,-0.12815 -0.0352,-0.11102 -0.0206,-0.18018 0.0382,-0.18018 0.0524,0 0.0718,-0.0381 0.043,-0.0846 -0.0288,-0.0465 -0.012,-0.0846 0.0373,-0.0846 0.0493,0 0.0896,-0.0784 0.0896,-0.17428 0,-0.0958 0.0381,-0.15073 0.0846,-0.12196 0.0764,0.0472 0.13194,-0.39399 0.089,-0.70678 -0.009,-0.0629 0.0226,-0.0906 0.0694,-0.0617 0.0468,0.0289 0.12437,-0.0149 0.17237,-0.0973 0.048,-0.0825 0.0884,-0.12 0.0899,-0.0834 0.001,0.0366 0.0883,0.0202 0.19301,-0.0363 0.3963,-0.21393 1.67166,0.22819 1.67166,0.5795 0,0.0752 0.0491,0.1091 0.11901,0.0823 0.15489,-0.0594 0.40697,0.22038 0.3447,0.38264 -0.0265,0.0691 0.0106,0.1745 0.0826,0.23421 0.0719,0.0597 0.13211,0.15151 0.13369,0.204 0.004,0.13291 0.24905,0.61772 0.53665,1.06171 0.13317,0.20559 0.26171,0.51982 0.28565,0.69829 0.0239,0.17848 0.0766,0.3245 0.11702,0.3245 0.0404,0 0.0735,0.0952 0.0735,0.2116 0,0.11638 0.0324,0.2116 0.072,0.2116 0.0396,0 0.17805,0.24967 0.30774,0.55481 0.15033,0.35372 0.27483,0.53983 0.3435,0.51348 0.10753,-0.0413 0.21487,0.21214 0.26109,0.61636 0.0128,0.11188 0.0499,0.26423 0.0824,0.33856 0.0325,0.0743 0.071,0.19432 0.0857,0.26666 0.0636,0.315388 0.75005,1.422128 0.82127,1.324178 0.048,-0.066 0.0565,-0.0481 0.0243,0.0514 -0.0559,0.1726 0.0879,0.51569 0.4503,1.07444 0.13586,0.20949 0.25001,0.44437 0.25367,0.52195 0.004,0.0776 0.0496,0.15537 0.102,0.17286 0.0524,0.0175 0.10006,0.12429 0.10581,0.23735 0.006,0.12364 0.0887,0.24456 0.20678,0.30341 0.10799,0.0538 0.25406,0.18026 0.3246,0.28097 0.0866,0.12367 0.18071,0.16647 0.28981,0.13184 0.12954,-0.0411 0.15002,-0.0208 0.10335,0.10238 -0.0556,0.14667 -0.0514,0.14689 0.092,0.005 0.0826,-0.0819 0.19475,-0.12219 0.24919,-0.0896 0.0615,0.0369 0.0573,0.008 -0.0109,-0.0763 -0.0949,-0.11716 -0.0777,-0.1426 0.12696,-0.18714 0.56672,-0.12336 0.90378,-0.1333 0.97024,-0.0286 0.0493,0.0777 0.0684,0.0665 0.0694,-0.0409 8.5e-4,-0.0931 0.072,-0.15269 0.19174,-0.16041 0.64261,-0.0415 0.89106,-0.066 1.07917,-0.10664 0.81543,-0.17602 3.63287,-0.061 4.09692,0.16732 0.13517,0.0665 0.29494,0.12089 0.35504,0.12089 0.17329,0 1.39612,0.57843 1.68037,0.79486 0.14193,0.10806 0.33423,0.22163 0.42733,0.25238 0.0931,0.0307 0.37794,0.24258 0.63297,0.47075 0.25503,0.22817 0.49308,0.39669 0.52901,0.37449 0.0359,-0.0222 0.0653,0.0444 0.0653,0.14801 0,0.10361 0.0238,0.16463 0.0528,0.13559 0.029,-0.029 0.20043,0.0225 0.38088,0.11457 0.18045,0.0921 0.328077,0.14496 0.328077,0.11757 0,-0.0274 0.10475,0.0229 0.23277,0.11175 0.12801,0.0889 0.53746,0.32435 0.90988,0.52333 0.37242,0.19897 0.72474,0.40015 0.78293,0.44706 0.0582,0.0469 0.1058,0.0589 0.1058,0.0266 0,-0.0323 0.0599,0.001 0.13301,0.0743 0.0731,0.0731 0.18742,0.133 0.25392,0.133 0.0665,0 0.12092,0.0381 0.12092,0.0846 0,0.0466 0.0552,0.0846 0.12275,0.0846 0.0675,0 0.16158,0.0666 0.20903,0.14812 0.0479,0.0822 0.0874,0.10104 0.0889,0.0423 0.002,-0.0645 0.0687,-0.0397 0.17185,0.0635 0.0931,0.0931 0.20708,0.16929 0.25328,0.16929 0.12155,0 0.45729,0.29905 1.09278,0.97337 0.3071,0.32586 0.71271,0.7465 0.90135,0.93475 0.37868,0.37787 1.13823,1.40732 1.13823,1.54268 0,0.0473 0.0595,0.10885 0.13232,0.13678 0.0728,0.0279 0.10862,0.0891 0.0797,0.13601 -0.029,0.0469 -0.0188,0.0852 0.0226,0.0852 0.0414,0 0.12938,0.10444 0.19544,0.23209 0.0661,0.12764 0.20526,0.31243 0.30935,0.41064 0.10408,0.0982 0.24542,0.308 0.31409,0.4662 0.0687,0.15821 0.12648,0.24956 0.12847,0.20301 0.006,-0.13285 0.3481,0.45634 0.59027,1.01569 0.12093,0.27931 0.32181,0.67924 0.44639,0.88873 0.12459,0.20948 0.3565,0.76176 0.51536,1.22729 0.15886,0.46552 0.42295,1.17016 0.58687,1.56585 0.35439,0.85552 0.44756,1.23229 0.32365,1.30887 -0.0493,0.0305 -0.0917,0.11978 -0.0943,0.1985 -0.006,0.18506 -0.43477,0.52282 -0.73201,0.57672 -0.12728,0.0231 -0.27539,0.0785 -0.32912,0.12305 -0.0537,0.0446 -0.15105,0.0606 -0.21625,0.0356 -0.0652,-0.025 -0.2949,0.008 -0.51043,0.0724 -0.37398,0.11255 -0.39614,0.10973 -0.48511,-0.0618 -0.0922,-0.17774 -0.0927,-0.17778 -0.0491,-0.003 0.0465,0.18643 -1.1276,0.63106 -1.6596,0.62847 -0.12089,-5.9e-4 -0.30764,0.0751 -0.41499,0.16821 -0.10735,0.0931 -0.23697,0.17508 -0.28803,0.18217 -0.0511,0.007 -0.13094,0.0186 -0.1775,0.0256 -0.0465,0.007 -0.20653,0.0774 -0.35552,0.15639 -0.14898,0.079 -0.31244,0.14367 -0.36325,0.14367 -0.0508,0 -0.33949,0.11553 -0.64151,0.25674 -0.30203,0.14121 -0.69085,0.265 -0.86404,0.27509 -0.1732,0.0101 -0.38874,0.085 -0.47898,0.16646 -0.0902,0.0815 -0.25335,0.14812 -0.36244,0.14812 -0.1091,0 -0.3363,0.0576 -0.50489,0.12807 -0.16858,0.0704 -0.32547,0.10912 -0.34863,0.086 -0.0232,-0.0232 -0.084,0.0128 -0.13513,0.0799 -0.0511,0.0671 -0.18823,0.14199 -0.30461,0.16639 -0.74036,0.15526 -0.80452,0.18377 -0.8313,0.36932 -0.015,0.10371 -0.0626,0.16671 -0.1058,0.13999 -0.0432,-0.0267 -0.0786,0.035 -0.0786,0.13716 0,0.10215 -0.0952,0.27398 -0.2116,0.38184 -0.11638,0.10786 -0.2116,0.24894 -0.2116,0.31351 0,0.0646 -0.12379,0.2357 -0.27509,0.38029 -0.15129,0.14459 -0.31702,0.31259 -0.36828,0.37333 -0.15439,0.18294 -0.73139,0.68678 -1.09177,0.95333 -0.18621,0.13773 -0.35126,0.28056 -0.36678,0.3174 -0.0155,0.0368 -0.0981,0.067 -0.18352,0.067 -0.22928,0 -0.42849,0.092 -0.37757,0.17444 0.077,0.12462 -0.31718,0.3021 -1.01887,0.45871 -0.37242,0.0831 -0.81043,0.19636 -0.97337,0.25165 -0.40019,0.13578 -2.64103,0.16751 -3.17403,0.0449 -0.23276,-0.0535 -0.5262,-0.11119 -0.65208,-0.12813 -0.28649,-0.0386 -1.10669,-0.43594 -1.33087,-0.6448 -0.0926,-0.0862 -0.19847,-0.15891 -0.23533,-0.16149 -0.22324,-0.0156 -1.04039,-1.7101 -1.04039,-2.15742 0,-0.071 -0.0542,-0.21351 -0.12037,-0.31661 -0.0662,-0.10311 -0.14576,-0.36208 -0.17679,-0.57551 -0.0836,-0.57512 -0.11242,-0.59835 -0.66157,-0.53381 -0.26409,0.031 -0.48017,0.0881 -0.48017,0.12676 0,0.0387 -0.0533,0.0499 -0.1184,0.0249 -0.0651,-0.025 -0.14392,-0.004 -0.17513,0.0464 -0.0312,0.0505 -0.0873,0.0729 -0.1246,0.0498 -0.0373,-0.0231 -0.70991,0.0145 -1.49462,0.0835 -0.78471,0.069 -1.54186,0.10455 -1.68257,0.079 -0.67799,-0.12301 -0.88416,-0.10667 -1.07897,0.0855 -0.20615,0.2034 -0.75406,0.2817 -0.71965,0.10286 0.0106,-0.055 -0.0308,-0.0897 -0.0921,-0.0771 -0.0612,0.0127 -0.22442,-0.0575 -0.36265,-0.15597 -0.28602,-0.20367 -0.32024,-0.20994 -1.79882,-0.32974 -0.5983,-0.0485 -1.12308,-0.10994 -1.16619,-0.13659 -0.0431,-0.0266 -0.20109,-0.0638 -0.35108,-0.0826 -0.47027,-0.0589 -0.7662,-0.1306 -1.22277,-0.29629 -0.24322,-0.0883 -0.7955,-0.20337 -1.22729,-0.25578 -0.43179,-0.0524 -0.80412,-0.12371 -0.8274,-0.15845 -0.0233,-0.0347 -0.12802,-0.0563 -0.23276,-0.0478 -0.10474,0.008 -0.19044,-0.0205 -0.19044,-0.0643 0,-0.0438 -0.0984,-0.055 -0.2187,-0.0248 -0.12028,0.0302 -0.1981,0.0216 -0.17293,-0.0191 0.0252,-0.0407 -0.11448,-0.0778 -0.31032,-0.0824 -0.19583,-0.005 -0.81312,-0.0198 -1.37175,-0.0337 -1.67739,-0.0419 -2.25454,0.0452 -2.63504,0.39787 -0.21307,0.19746 -0.42017,0.25293 -0.8564,0.22939 -0.12799,-0.007 -0.19044,0.0377 -0.19044,0.13599 0,0.22911 -0.25358,1.14478 -0.33089,1.19485 -0.0382,0.0248 -0.0987,0.13853 -0.13445,0.25285 -0.0357,0.11432 -0.21226,0.42365 -0.3923,0.6874 -0.18003,0.26375 -0.32733,0.54382 -0.32733,0.62239 0,0.0786 -0.0381,0.11931 -0.0846,0.0905 -0.0465,-0.0288 -0.0846,0.0102 -0.0846,0.0867 0,0.0765 -0.0465,0.1235 -0.1034,0.10454 -0.0569,-0.019 -0.19191,0.054 -0.30009,0.16223 -0.10818,0.10818 -0.23387,0.1967 -0.2793,0.1967 -0.0454,0 -0.12441,0.0917 -0.1755,0.20386 -0.0785,0.17229 -0.85972,0.76713 -1.00986,0.76893 -0.0266,3.4e-4 -0.11097,0.0577 -0.1875,0.12754 -0.30455,0.27789 -0.39141,0.32929 -0.77865,0.46076 -0.22122,0.0751 -0.46815,0.17184 -0.54872,0.21496 -0.0806,0.0431 -0.35217,0.0971 -0.60356,0.11998 -0.25138,0.0229 -0.59037,0.0829 -0.75331,0.1335 -0.65218,0.20238 -1.59578,0.10277 -2.5695,-0.27123 -0.59752,-0.0812 -0.92838,-0.52849 -1.28413,-0.82782 -0.0765,0.018 -0.54692,-0.68469 -0.54741,-0.81763 -1.7e-4,-0.0543 -0.037,-0.11145 -0.0817,-0.12697 -0.10731,-0.0372 -1.10262,-1.99041 -1.107,-2.17238 -0.002,-0.0776 -0.0937,-0.35062 -0.20416,-0.60666 -0.20076,-0.46552 -0.20076,-0.46552 -0.91035,-0.47612 -1.23534,-0.0184 -2.39996,-0.30006 -2.6094,-0.63097 -0.0511,-0.0807 -0.40306,-0.13423 -1.39346,-0.21201 -0.37242,-0.0292 -0.70514,-0.0701 -0.73937,-0.0907 -0.0342,-0.0206 -0.54842,-0.0577 -1.14265,-0.0823 -1.70306,-0.0706 -2.0993,-0.42788 -1.76186,-1.58874 0.0496,-0.17058 0.0433,-0.22808 -0.0205,-0.18861 -0.0537,0.0332 -0.088,-0.006 -0.0825,-0.0932 0.005,-0.0825 -0.0128,-0.22613 -0.0399,-0.31923 -0.0271,-0.0931 -0.0368,-0.20737 -0.0214,-0.25393 z m 0.26743,1.62228 c 0.031,-0.031 0.006,-0.0564 -0.0564,-0.0564 -0.0621,0 -0.0875,0.0254 -0.0564,0.0564 0.031,0.031 0.0818,0.031 0.11286,0 z m 3.10266,-0.93977 c 0.75306,0.0402 1.86434,0.0819 2.46953,0.0925 1.40959,0.0249 1.38964,0.0229 1.71283,0.16737 0.32943,0.14724 0.44551,0.34166 0.44551,0.74617 0,0.28412 0.0158,0.30195 0.25171,0.28397 0.32193,-0.0245 0.35192,-0.10901 0.39181,-1.10384 0.0401,-0.99986 0.26544,-1.74487 0.74262,-2.45501 0.0857,-0.12762 0.18983,-0.21107 0.23129,-0.18545 0.0415,0.0256 0.0754,-0.0112 0.0754,-0.0818 0,-0.0706 0.13331,-0.23472 0.29624,-0.36472 0.16294,-0.13 0.29625,-0.26766 0.29625,-0.3059 0,-0.0727 0.21426,-0.31135 0.27956,-0.31135 0.0892,0 0.65149,-0.5713 0.65149,-0.66198 0,-0.0549 0.0286,-0.0943 0.0635,-0.0877 0.14906,0.0284 0.61365,-0.2076 0.61365,-0.31177 0,-0.0651 0.0669,-0.10094 0.15634,-0.0837 0.1362,0.0262 0.26964,-0.0559 0.74997,-0.46137 0.0562,-0.0475 0.14193,-0.0863 0.19044,-0.0863 0.0485,0 0.0882,-0.0356 0.0882,-0.0792 0,-0.0435 0.13331,-0.12737 0.29624,-0.18629 0.16293,-0.0589 0.29624,-0.14391 0.29624,-0.18887 0,-0.045 0.0208,-0.0609 0.0463,-0.0354 0.0255,0.0255 0.27644,-0.0253 0.55771,-0.11285 0.28127,-0.0875 0.60005,-0.15916 0.7084,-0.15916 0.10836,0 0.21117,-0.0425 0.22847,-0.0944 0.13828,-0.41484 2.00268,0.0681 2.73751,0.7091 0.2795,0.24381 0.56433,0.48975 0.63295,0.54652 0.59883,0.49538 1.00083,0.90684 0.95633,0.97883 -0.0302,0.0488 -0.0122,0.0612 0.041,0.0283 0.11188,-0.0691 0.43937,0.23358 0.43937,0.40616 0,0.066 0.0286,0.1326 0.0635,0.14812 0.17811,0.0792 0.80549,1.10583 0.89653,1.46711 0.0574,0.22783 0.45174,1.31342 0.49043,1.35012 0.0169,0.0161 0.46879,-0.0228 1.00414,-0.0863 0.53535,-0.0635 1.1689,-0.11675 1.40787,-0.11833 0.43451,-0.003 0.43451,-0.003 0.48789,-0.57421 0.0689,-0.7371 0.0671,-0.40597 0.0202,-3.68285 -0.0272,-1.8997 -0.0124,-2.84002 0.044,-2.80513 0.0531,0.0328 0.0784,-0.10136 0.0676,-0.35875 0.2249,-0.66387 0.1094,-0.5647 0.10043,-1.03343 0.0402,-0.10863 0.0717,-0.35587 0.0701,-0.54942 -0.002,-0.19354 0.0174,-0.75183 0.0424,-1.24063 0.0436,-0.85507 0.12196,-4.50746 0.11165,-5.20541 -0.026,-1.75968 0.008,-2.67976 0.10457,-2.79561 0.0587,-0.0707 0.0823,-0.15306 0.0523,-0.18297 -0.0299,-0.0299 -0.0555,-4.2e-4 -0.057,0.0655 -0.006,0.27847 -0.14739,-0.14729 -0.15696,-0.472578 -0.0332,-1.12757 -0.0581,-1.46051 -0.10725,-1.43052 -0.0304,0.0185 -0.0826,-0.20242 -0.11608,-0.49099 -0.14417,-1.24218 -0.34496,-1.42849 -1.48507,-1.37798 -0.48559,0.0215 -1.51135,0.0552 -2.27947,0.0748 -0.76811,0.0196 -1.4537,0.0551 -1.52353,0.0788 -0.0698,0.0238 -0.29836,0.0631 -0.50785,0.0874 -0.88606,0.10291 -2.00411,0.29455 -2.20066,0.3772 -0.11638,0.0489 -0.35397,0.11208 -0.52798,0.14033 -0.38807,0.063 -0.44648,0.16648 -0.57547,1.0197 -0.11086,0.73333 -0.18286,3.246118 -0.0969,3.383368 0.0694,0.11088 0.0728,0.13778 0.13979,1.10965 0.0315,0.45702 0.0729,0.85616 0.0919,0.88698 0.26476,0.42839 -0.0321,2.47749 -0.41949,2.89548 -0.10714,0.1156 -0.21694,0.26789 -0.244,0.3384 -0.0271,0.0705 -0.16637,0.15395 -0.30958,0.18541 -0.14321,0.0315 -0.24105,0.0885 -0.21742,0.12669 0.15088,0.24413 -2.36063,0.43482 -3.25752,0.24734 -0.6773,-0.14158 -0.80257,-0.16607 -0.9102,-0.17791 -0.0582,-0.006 -0.1058,-0.0456 -0.1058,-0.0872 0,-0.0415 -0.0381,-0.052 -0.0846,-0.0232 -0.0465,0.0288 -0.13225,0.0226 -0.19044,-0.0138 -0.0582,-0.0363 -0.14389,-0.0737 -0.19045,-0.083 -0.29422,-0.0587 -0.43822,-0.0954 -0.55016,-0.1402 -0.99584,-0.38002 -1.91372,-0.58139 -2.94136,-1.04967 -0.57509,-0.26778 -0.70544,-0.23418 -0.87529,0.22564 -0.0765,0.20702 -0.18218,0.39078 -0.2349,0.40835 -0.0527,0.0176 -0.0959,0.0691 -0.0959,0.11453 0,0.0454 0.0476,0.054 0.1058,0.019 0.0812,-0.0488 0.0835,-0.0352 0.01,0.0585 -0.0528,0.0671 -0.12374,0.25536 -0.15762,0.4183 -0.0682,0.32802 -0.35945,1.3015 -0.46847,1.56585 -0.0384,0.0931 -0.11643,0.37877 -0.17341,0.63481 -0.057,0.25604 -0.19301,0.71293 -0.30231,1.01532 -0.10931,0.30239 -0.19873,0.63869 -0.19873,0.74733 0,0.10865 -0.0919,0.43256 -0.20426,0.71982 -0.19005,0.48595 -0.39728,1.30497 -0.50693,2.00349 -0.0256,0.16294 -0.084,0.42421 -0.12994,0.58062 -0.0649,0.22105 -0.0559,0.31192 0.0403,0.40809 0.068,0.068 0.12372,0.087 0.12372,0.0422 0,-0.14433 0.62936,0.23412 0.69802,0.41973 0.0606,0.16372 0.0225,0.97371 -0.0652,1.38488 -0.0519,0.24366 -0.52599,0.52799 -0.99343,0.59581 -0.32056,0.0465 -0.41253,0.097 -0.45017,0.24693 -0.0582,0.23175 -0.25121,1.36879 -0.26622,1.56805 -0.01,0.12904 0.14244,0.15352 1.35825,0.21846 z m 2.17828,-13.5056 c 0.0493,0 0.0661,0.0381 0.0373,0.0846 -0.0288,0.0465 -0.0691,0.0846 -0.0896,0.0846 -0.0205,0 -0.0373,-0.0381 -0.0373,-0.0846 0,-0.0465 0.0403,-0.0846 0.0896,-0.0846 z m 0.94298,-2.36994 c 0.079,0 0.079,0.0226 0,0.10157 -0.22789,0.22789 0.33828,0.74484 0.81576,0.74484 0.10065,0 0.183,0.0298 0.183,0.0662 0,0.0611 0.38809,0.19234 0.95221,0.32192 0.12802,0.0294 0.23276,0.086 0.23276,0.12567 0,0.0397 0.16188,0.11548 0.35973,0.16838 0.19785,0.0529 0.40566,0.13383 0.46182,0.17983 0.0562,0.046 0.14832,0.0551 0.20482,0.0202 0.0714,-0.0441 0.0857,-0.0192 0.047,0.0817 -0.0331,0.0863 -0.0218,0.12425 0.0279,0.0935 0.046,-0.0284 0.0843,-0.002 0.085,0.0591 9.9e-4,0.0846 0.0168,0.0864 0.0667,0.008 0.0508,-0.0799 0.11539,-0.077 0.28897,0.013 0.12295,0.0638 0.23757,0.10196 0.2547,0.0848 0.0171,-0.0171 0.33406,0.0463 0.70427,0.14092 0.65256,0.16683 1.88496,0.23045 2.24574,0.11594 0.32263,-0.1024 0.42022,-1.50187 0.21528,-3.08724 -0.12627,-0.97675 -0.19652,-2.16573 -0.13206,-2.23479 0.0393,-0.0421 0.0309,-0.15214 -0.0186,-0.24465 -0.0495,-0.0925 -0.10955,-0.629438 -0.13342,-1.193168 -0.0515,-1.21604 0.0195,-1.08537 -0.51318,-0.94486 -0.24224,0.0639 -0.44043,0.10387 -0.44043,0.0888 0,-0.015 -0.19943,0.0455 -0.44317,0.13462 -0.24374,0.0891 -0.50819,0.16199 -0.58767,0.16199 -0.36326,0 -2.27015,0.71608 -2.27015,0.85249 0,0.0287 -0.0952,0.16289 -0.2115,0.29816 -0.11632,0.13526 -0.21155,0.29036 -0.2116,0.34467 -6e-5,0.0543 -0.029,0.111438 -0.0642,0.126958 -0.10152,0.0447 -0.59861,0.70266 -0.69951,0.92592 -0.20034,0.44327 -0.35072,0.66818 -0.44713,0.66873 -0.10245,5.9e-4 -0.48206,0.4989 -0.48206,0.6328 0,0.04 -0.0651,0.14472 -0.14476,0.23269 -0.116,0.12818 -0.12261,0.17364 -0.0333,0.22885 0.0795,0.0491 0.0842,0.0858 0.0164,0.12764 -0.0523,0.0323 -0.0766,0.0886 -0.054,0.12517 0.0226,0.0365 -0.053,0.10925 -0.1679,0.16161 -0.21692,0.0988 -0.28472,0.26812 -0.10738,0.26812 z m 4.03779,17.40204 c 0.17968,0.0582 0.24952,0.11631 0.18652,0.15525 -0.0554,0.0342 -0.0789,0.13106 -0.0522,0.21516 0.0362,0.1142 -0.0149,0.17502 -0.20195,0.24023 -0.2316,0.0807 -0.30877,0.43902 -0.0946,0.43902 0.0352,0 0.0875,0.14283 0.1162,0.3174 0.0287,0.17457 0.18595,0.57681 0.34938,0.89387 0.16343,0.31705 0.29714,0.61433 0.29714,0.66061 0,0.13035 0.63097,1.02183 0.901,1.27299 0.578,0.53762 1.46952,0.8138 2.11338,0.6547 0.18091,-0.0447 0.46685,-0.0954 0.63542,-0.11269 0.26068,-0.0267 1.21273,-0.41917 1.34401,-0.55402 0.12104,-0.12433 0.59735,-0.42435 0.6737,-0.42435 0.0484,0 0.0881,-0.0393 0.0881,-0.0873 0,-0.048 0.0646,-0.11209 0.14356,-0.14239 0.0789,-0.0303 0.35509,-0.27538 0.61364,-0.54463 0.66521,-0.69274 0.7645,-0.816 0.79148,-0.98261 0.0131,-0.0811 0.12344,-0.35698 0.24511,-0.61302 0.36693,-0.77216 0.45925,-2.36007 0.20612,-3.54531 -0.0734,-0.34386 -0.11423,-0.65641 -0.0906,-0.69456 0.0236,-0.0381 -0.015,-0.20779 -0.0857,-0.37699 -0.0855,-0.20457 -0.10253,-0.3562 -0.0509,-0.45265 0.0457,-0.0855 0.0466,-0.19529 0.002,-0.26742 -0.10217,-0.1657 -1.08886,-1.16103 -1.12004,-1.12985 -0.0137,0.0136 -0.0991,-0.0858 -0.18997,-0.22091 -0.53199,-0.79153 -2.02767,-0.94505 -3.22775,-0.3313 -0.24938,0.12753 -0.45341,0.19864 -0.45341,0.15801 0,-0.0406 -0.11493,0.0385 -0.2554,0.1758 -0.14047,0.13731 -0.37666,0.31236 -0.52487,0.389 -0.1482,0.0766 -0.32166,0.19154 -0.38545,0.25534 -0.0638,0.0638 -0.14183,0.11616 -0.17342,0.11639 -0.0912,6.7e-4 -0.69224,0.57511 -0.69224,0.66163 0,0.043 -0.13343,0.19216 -0.29651,0.33145 -0.55026,0.47002 -0.91362,1.22499 -1.02711,2.13409 -0.0201,0.16065 -0.0532,0.30885 -0.0737,0.32932 -0.0205,0.0205 -0.0285,0.25087 -0.0178,0.51199 0.0188,0.45891 0.0291,0.47786 0.3067,0.56775 z m 15.46165,-6.56802 c 0.0819,2.38669 0.19828,4.67675 0.23977,4.71824 0.0133,0.0133 0.17285,0.0378 0.35446,0.0544 0.18162,0.0166 0.5397,0.0873 0.79574,0.1571 0.25604,0.0698 0.65596,0.16914 0.88873,0.22072 0.23276,0.0516 0.69934,0.15474 1.03685,0.22926 0.3375,0.0745 0.61364,0.16222 0.61364,0.19488 0,0.0327 0.0987,0.0676 0.21937,0.0775 0.12065,0.01 0.43488,0.0725 0.69829,0.13899 0.2634,0.0665 0.91693,0.16479 1.45229,0.21853 0.53535,0.0537 1.0305,0.11856 1.10033,0.14403 0.0698,0.0255 0.26027,0.0582 0.4232,0.0726 0.27905,0.0248 0.54754,0.0643 1.14265,0.16826 1.11125,0.19411 3.45199,0.19018 3.76994,-0.006 0.0447,-0.0276 0.0812,-0.008 0.0812,0.0444 0,0.0551 0.0442,0.0666 0.1058,0.0275 0.0582,-0.037 0.13437,-0.0725 0.16928,-0.0791 0.0349,-0.007 0.073,-0.0196 0.0846,-0.0289 0.0746,-0.0601 0.31741,-0.0609 0.31741,-10e-4 0,0.04 0.10807,0.0351 0.24015,-0.011 0.24015,-0.0837 0.24015,-0.0837 0.21385,-0.8572 -0.0162,-0.47516 0.009,-0.81659 0.0665,-0.88525 0.051,-0.0615 0.0644,-0.11177 0.0297,-0.11177 -0.0347,0 -0.0203,-0.0515 0.0319,-0.11435 0.0522,-0.0629 0.10326,-0.21526 0.11347,-0.33857 0.0102,-0.12331 0.0483,-0.2242 0.0847,-0.2242 0.0364,0 0.069,-0.0666 0.0724,-0.14812 0.003,-0.0815 0.0701,-0.24719 0.14812,-0.36827 0.2655,-0.41181 0.47807,-0.71065 0.5852,-0.82275 0.0588,-0.0615 0.1069,-0.14142 0.1069,-0.17756 0,-0.0649 0.56876,-0.6408 1.2273,-1.24276 0.33561,-0.30678 1.39085,-0.84505 1.80327,-0.91984 0.11792,-0.0214 0.23986,-0.0801 0.271,-0.13046 0.0311,-0.0504 0.25591,-0.10643 0.4995,-0.12456 0.2436,-0.0181 0.49569,-0.0768 0.5602,-0.13032 0.0645,-0.0535 0.15704,-0.0728 0.20563,-0.0427 0.0486,0.03 0.0884,0.0155 0.0884,-0.0324 0,-0.0478 0.0476,-0.069 0.1058,-0.0471 0.0582,0.0219 0.46764,0.0538 0.90989,0.0709 0.44225,0.0171 0.99006,0.0754 1.21736,0.12961 0.2273,0.0542 0.43329,0.0786 0.45774,0.0541 0.0245,-0.0245 0.0873,-0.009 0.1397,0.0346 0.0524,0.0435 0.28442,0.10455 0.51563,0.13572 0.42652,0.0575 1.04629,0.3212 1.15971,0.49343 0.0342,0.0519 0.0628,0.0649 0.0635,0.0288 0.005,-0.25779 1.12197,0.66582 1.35317,1.119 0.085,0.16672 0.25804,0.40653 0.38441,0.5329 0.283667,0.28367 0.559747,0.78481 0.480717,0.87262 -0.0323,0.0358 -0.0142,0.0397 0.0401,0.009 0.0642,-0.0368 0.14905,0.0993 0.24235,0.38847 0.079,0.24476 0.1905,0.5212 0.24787,0.6143 0.26779,0.43464 0.46138,1.15942 0.48572,1.81846 0.0256,0.6932 0.0256,0.6932 0.36417,0.6342 0.18621,-0.0325 0.38617,-0.0612 0.44436,-0.0638 0.0582,-0.003 0.1058,-0.0304 0.1058,-0.0618 0,-0.0313 0.16188,-0.10754 0.35973,-0.16933 0.19785,-0.0618 0.56921,-0.2054 0.82525,-0.31915 0.25603,-0.11374 0.55122,-0.23974 0.65596,-0.27999 0.10475,-0.0403 0.19044,-0.11857 0.19044,-0.17403 0,-0.0555 0.0255,-0.0754 0.0566,-0.0442 0.0311,0.0311 0.1329,-0.0101 0.22615,-0.0917 0.0932,-0.0816 0.1417,-0.1007 0.10767,-0.0425 -0.0694,0.11866 -0.0411,0.12882 0.15232,0.0546 0.0734,-0.0281 0.11452,-0.0817 0.0915,-0.11907 -0.0231,-0.0373 0.0343,-0.0479 0.12745,-0.0236 0.12451,0.0326 0.16974,0.002 0.17069,-0.1137 10e-4,-0.13298 0.0143,-0.13789 0.0833,-0.031 0.0451,0.0698 0.0826,0.0864 0.0833,0.0368 0.002,-0.14981 0.58028,-0.37795 1.38422,-0.54623 0.41805,-0.0875 0.78735,-0.2032 0.82066,-0.25709 0.0458,-0.0741 0.0753,-0.0741 0.12099,-1.7e-4 0.21466,0.34732 0.37834,-0.31645 0.17821,-0.72268 -0.0666,-0.13517 -0.13443,-0.36003 -0.15075,-0.49969 -0.0316,-0.27072 -0.22902,-0.67468 -0.23344,-0.47774 -0.001,0.0631 -0.0978,0.2279 -0.21418,0.36622 -0.11638,0.13831 -0.2116,0.29881 -0.2116,0.35667 0,0.11927 -0.38062,0.4743 -0.50849,0.4743 -0.0462,0 -0.084,0.0361 -0.084,0.0803 0,0.0442 -0.21245,0.14728 -0.47211,0.22913 -1.48205,0.46718 -2.89788,-1.56862 -2.16923,-3.11911 0.10271,-0.21861 0.18675,-0.43761 0.18675,-0.48672 0,-0.0491 0.0503,-0.0893 0.11172,-0.0893 0.0614,0 0.2397,-0.11427 0.39613,-0.25392 0.15642,-0.13966 0.31564,-0.25393 0.35381,-0.25393 0.10684,0 0.16495,-0.0165 0.61956,-0.17596 0.52247,-0.18327 0.63103,-0.52797 0.25855,-0.82096 -0.11893,-0.0936 -0.21623,-0.1935 -0.21623,-0.22212 0,-0.0286 -0.0922,-0.15645 -0.20493,-0.28406 -0.6267,-0.7096 -0.73418,-0.84666 -0.84572,-1.07846 -0.13081,-0.27182 -1.53467,-1.73512 -1.66466,-1.73512 -0.0428,0 -0.0778,-0.0338 -0.0778,-0.0752 0,-0.0671 -1.05047,-0.77122 -1.15058,-0.77122 -0.0223,0 -0.39142,-0.22318 -0.82036,-0.49596 -0.78912,-0.50183 -1.460437,-0.85829 -1.616397,-0.85829 -0.0469,0 -0.18288,-0.0935 -0.30218,-0.20781 -0.2128,-0.20388 -0.77218,-0.54648 -1.18721,-0.72712 -0.11543,-0.0502 -0.2297,-0.11966 -0.25392,-0.15426 -0.0242,-0.0346 -0.1964,-0.1381 -0.38261,-0.23 -0.50009,-0.24682 -1.18108,-0.65457 -1.2116,-0.72546 -0.0146,-0.034 -0.0779,-0.0422 -0.14048,-0.0182 -0.0626,0.024 -0.23116,-0.017 -0.37453,-0.0911 -0.14337,-0.0741 -0.28964,-0.13888 -0.32504,-0.14386 -0.08,-0.0113 -0.14823,-0.0286 -0.57221,-0.1456 -0.2983,-0.0823 -1.12082,-0.1823 -1.60818,-0.19554 -0.16142,-0.004 -3.23811,0.0816 -3.35885,0.0938 -0.0318,0.003 -0.0699,0.11062 -0.0846,0.23864 -0.0192,0.16666 -0.0809,0.24045 -0.21722,0.25981 -0.10475,0.0149 -0.19045,0.0688 -0.19045,0.11991 0,0.0511 -0.0252,0.0677 -0.0559,0.0369 -0.0308,-0.0308 -0.0995,0.0296 -0.1528,0.13401 -0.10685,0.2095 -0.69758,0.23498 -0.82693,0.0357 -0.0475,-0.0731 -0.0863,-0.066 -0.1461,0.0271 -0.20998,0.32687 -0.54352,0.66727 -0.61222,0.62481 -0.0419,-0.0259 -0.14106,-0.019 -0.2203,0.0154 -0.0792,0.0344 -0.50591,0.0731 -0.94815,0.086 -0.989,0.0289 -1.91782,0.0901 -2.56039,0.16874 -0.41861,0.0512 -0.48668,0.0402 -0.48668,-0.079 0,-0.0762 -0.0408,-0.13862 -0.0907,-0.13862 -0.11595,0 -0.33252,0.21485 -0.33252,0.32987 0,0.0484 -0.061,0.0646 -0.1355,0.036 -0.0745,-0.0286 -0.16023,-0.016 -0.19044,0.028 -0.21935,0.31925 -1.56874,0.55041 -2.11052,0.36154 -0.32044,-0.1117 -0.51613,-0.75054 -0.32214,-1.05164 0.12289,-0.19074 0.30594,-0.71738 0.34708,-0.99857 0.0603,-0.4123 0.28005,-2.22611 0.28403,-2.34475 0.002,-0.0698 0.0117,-0.90777 0.0208,-1.86209 0.009,-0.95433 0.0372,-1.772098 0.0624,-1.817268 0.044,-0.0787 0.0908,-0.78101 0.12418,-1.86461 0.0143,-0.46231 -3.3e-4,-0.50865 -0.16252,-0.51686 -0.098,-0.005 -0.45984,-0.0388 -0.80409,-0.0751 -0.34425,-0.0364 -0.7973,-0.0773 -1.00679,-0.0909 -0.43888,-0.0286 -1.19144,-0.0962 -1.8621,-0.16727 -0.97803,-0.10363 -1.16646,-0.12183 -1.98905,-0.19209 -1.01323,-0.0865 -0.91294,-0.14871 -0.81056,0.50249 0.0467,0.29688 0.12713,0.97779 0.17878,1.51314 0.0517,0.53536 0.10521,1.07811 0.11899,1.20613 0.0138,0.12802 4.2e-4,0.23277 -0.0298,0.23277 -0.0302,0 -0.042,0.295178 -0.0263,0.655958 0.0371,0.85264 0.0382,0.77489 -0.0162,1.16381 -0.0363,0.25933 -0.0298,0.28904 0.0277,0.12697 0.0653,-0.18409 0.0761,-0.18905 0.0834,-0.0381 0.005,0.0954 -0.0289,0.2108 -0.0744,0.25637 -0.0476,0.0476 -0.0892,0.81226 -0.0978,1.79439 -0.008,0.94133 -0.0471,1.71152 -0.0864,1.71152 -0.0393,0 -0.0715,0.0403 -0.0715,0.0896 0,0.0493 0.0358,0.0675 0.0795,0.0405 0.0931,-0.0575 0.0485,1.08652 -0.0841,2.15655 -0.0491,0.39645 -0.0925,1.06299 -0.0964,1.48121 -0.004,0.41822 -0.0381,0.80024 -0.0761,0.84894 -0.0379,0.0487 -0.0643,0.16296 -0.0585,0.25392 0.006,0.091 -0.0178,0.38439 -0.0524,0.65206 -0.0489,0.37849 -0.0379,0.48698 0.0491,0.48799 0.0784,9e-4 0.0832,0.0199 0.0159,0.0635 -0.14055,0.091 -0.18643,0.34587 -0.14833,0.82395 0.0186,0.23276 0.0553,1.05166 0.0817,1.81978 z m 0.6066,-11.27437 c 0.0157,0.38627 0.0156,0.99568 -1.7e-4,1.35425 -0.0158,0.35858 -0.0287,0.0425 -0.0286,-0.7023 8e-5,-0.74484 0.013,-1.03822 0.0288,-0.65195 z m 7.89223,2.51345 c 0.048,0.0296 0.0622,-0.004 0.0333,-0.0797 -0.0563,-0.14663 -0.11693,-0.17346 -0.11693,-0.0517 0,0.0438 0.0376,0.10292 0.0837,0.13136 z m 0.19141,-2.41168 c 0.0825,2e-5 0.0685,0.10443 0.1476,-1.10032 0.0912,-1.38952 0.22929,-1.73338 0.63378,-1.57816 0.0647,0.0248 0.13173,0.003 0.14903,-0.0493 0.0474,-0.14227 0.41136,-0.14624 0.71169,-0.008 0.29152,0.13442 0.36521,0.30557 0.36696,0.85226 6.8e-4,0.19785 0.0297,0.36407 0.0646,0.36937 0.36698,0.0558 0.52901,0.0525 0.52901,-0.0107 0,-0.11527 -0.1836,-0.51315 -0.39905,-0.86479 -0.10639,-0.17365 -0.19344,-0.35079 -0.19344,-0.39364 0,-0.0872 -0.59779,-1.413858 -0.84359,-1.872188 -0.0874,-0.16293 -0.23947,-0.51178 -0.33797,-0.77522 -0.0985,-0.26343 -0.24209,-0.53005 -0.3191,-0.59248 -0.0992,-0.0804 -0.12147,-0.0827 -0.0764,-0.008 0.0435,0.0724 0.002,0.10581 -0.13187,0.10582 -0.17212,1e-5 -0.19648,0.0429 -0.20419,0.35972 -0.0125,0.51247 -0.10805,1.77434 -0.13655,1.80281 -0.0568,0.0567 -0.0179,3.762278 0.0395,3.762288 z m -0.0685,2.28532 c 0.0893,0 0.12687,-0.16244 0.0487,-0.21075 -0.0473,-0.0292 -0.086,0.006 -0.086,0.0788 0,0.0726 0.0168,0.13195 0.0373,0.13195 z m 0.70329,-0.11613 c 0.0815,-0.0236 0.47187,-0.0649 0.86756,-0.0918 2.08125,-0.14158 1.97688,-0.1106 1.67095,-0.49607 -0.29333,-0.3696 -0.4274,-0.57918 -0.56489,-0.88299 -0.0474,-0.10474 -0.13473,-0.19149 -0.19407,-0.19277 -0.0593,-0.001 -0.20312,-0.13354 -0.3195,-0.29391 -0.27658,-0.38112 -0.35938,-0.37043 -0.49159,0.0635 -0.19435,0.63786 -0.59333,1.3701 -0.85839,1.57538 -0.28429,0.22018 -0.34146,0.38572 -0.11007,0.31872 z m 0.6054,-10.850728 c 0.0223,-0.0223 -0.0282,-0.10623 -0.11206,-0.18659 -0.14574,-0.1396 -0.14755,-0.13779 -0.0405,0.0405 0.0616,0.10263 0.13027,0.16838 0.15254,0.14611 z m 6.00817,26.413808 c 0.0262,0.0466 0.0588,0.17986 0.0725,0.29624 0.0137,0.11638 0.0829,0.39497 0.15376,0.61907 0.0708,0.22411 0.1878,0.75082 0.25989,1.17046 0.1862,1.08402 0.43513,1.6011 0.937,1.94639 0.22339,0.1537 0.41499,0.27272 0.42578,0.2645 0.0108,-0.008 0.16315,0.0455 0.33857,0.11942 0.35094,0.14786 2.59714,0.1736 2.76895,0.0317 0.0491,-0.0405 0.23204,-0.10035 0.40661,-0.13298 0.17458,-0.0326 0.31741,-0.0932 0.31741,-0.13453 0,-0.0414 0.0968,-0.0752 0.21517,-0.0752 0.11835,0 0.27202,-0.0476 0.3415,-0.1058 0.3037,-0.25436 0.39269,-0.31717 0.90285,-0.63723 0.12772,-0.0801 0.23257,-0.18379 0.233,-0.23034 4.2e-4,-0.0466 0.11483,-0.16082 0.25422,-0.25392 0.13939,-0.0931 0.25354,-0.20849 0.25367,-0.2564 1.7e-4,-0.0479 0.0793,-0.14314 0.17585,-0.2116 0.2507,-0.17773 0.58481,-0.92693 0.61469,-1.37836 0.014,-0.21156 0.08,-0.45033 0.14658,-0.53061 0.0666,-0.0803 0.10873,-0.15978 0.0936,-0.17668 -0.0152,-0.0169 -0.003,-0.14211 0.0268,-0.27827 0.0299,-0.13615 0.0161,-0.31908 -0.0307,-0.40651 -0.0468,-0.0874 -0.0969,-0.35628 -0.11143,-0.59743 -0.0145,-0.24116 -0.0454,-0.43864 -0.0687,-0.43885 -0.0233,-1.7e-4 -0.0529,-0.18891 -0.0659,-0.41934 -0.013,-0.23043 -0.0978,-0.58259 -0.18858,-0.78257 -0.0936,-0.20634 -0.16582,-0.55188 -0.16688,-0.79891 -0.001,-0.30759 -0.0391,-0.4496 -0.12882,-0.48403 -0.0698,-0.0268 -0.12696,-0.10705 -0.12696,-0.17834 0,-0.0713 -0.0336,-0.12961 -0.0748,-0.12961 -0.0411,0 -0.0949,-0.077 -0.11951,-0.17109 -0.0246,-0.0941 -0.16236,-0.21209 -0.30611,-0.2622 -0.14376,-0.0501 -0.26138,-0.12548 -0.26138,-0.16748 0,-0.042 -0.0857,-0.0768 -0.19044,-0.0773 -0.10474,-5.1e-4 -0.37136,-0.0558 -0.59249,-0.12291 -0.22112,-0.0671 -0.40204,-0.10344 -0.40204,-0.0808 0,0.0227 -0.0703,0.004 -0.15619,-0.0423 -0.16054,-0.0859 -0.40442,-0.14329 -0.97486,-0.22934 -1.19409,-0.18011 -3.07572,0.6205 -3.90426,1.66122 -0.0926,0.11639 -0.24838,0.29289 -0.34606,0.39223 -0.60729,0.61764 -1.06158,2.68653 -0.72234,3.28965 z m 3.05664,-6.51735 c 0.0465,0.0288 0.0846,0.0333 0.0846,0.01 0,-0.0233 -0.0381,-0.0659 -0.0846,-0.0946 -0.0465,-0.0288 -0.0846,-0.0333 -0.0846,-0.01 0,0.0233 0.0381,0.0659 0.0846,0.0946 z m 12.810827,1.93079 c -0.0623,0.0623 0.12889,0.39684 0.22684,0.39684 0.0449,0 0.0817,-0.0571 0.0817,-0.12696 0,-0.0698 0.0381,-0.12697 0.0846,-0.12697 0.0465,0 0.0768,-0.0286 0.0672,-0.0635 -0.01,-0.0349 0.0489,-0.18795 0.12992,-0.34008 0.15772,-0.29613 0.17386,-0.26911 -0.23716,-0.39698 -0.0686,-0.0213 -0.17672,0.0356 -0.24036,0.12642 -0.0636,0.0909 -0.14323,0.13768 -0.17687,0.10404 -0.0336,-0.0336 -0.0231,0.0389 0.0233,0.16112 0.0465,0.12225 0.0648,0.24198 0.0407,0.26605 z M 55.644757,96.240042 c 0.031,0.031 0.031,0.0818 0,0.11285 -0.031,0.031 -0.0564,0.006 -0.0564,-0.0564 0,-0.0621 0.0254,-0.0875 0.0564,-0.0564 z m 1.16491,2.84957 c 0.0233,0 0.0831,0.0762 0.13292,0.16929 0.0498,0.0931 0.0716,0.16928 0.0483,0.16928 -0.0233,0 -0.0831,-0.0762 -0.13291,-0.16928 -0.0498,-0.0931 -0.0716,-0.16929 -0.0483,-0.16929 z m 22.903937,12.886568 c 0.0421,-0.10474 0.10975,-0.19044 0.15033,-0.19044 0.0406,0 0.11633,-0.0934 0.16834,-0.20753 0.052,-0.11414 0.21172,-0.26812 0.35491,-0.34217 0.1432,-0.074 0.23869,-0.16971 0.21219,-0.21259 -0.0265,-0.0429 0.0294,-0.15551 0.12419,-0.25031 0.0948,-0.0948 0.17237,-0.20912 0.17237,-0.25404 0,-0.0449 0.0772,-0.123 0.17165,-0.17352 0.0944,-0.0505 0.15048,-0.12614 0.12459,-0.16802 -0.0259,-0.0419 0.0312,-0.11805 0.12697,-0.16928 0.0957,-0.0512 0.15673,-0.12111 0.13559,-0.15531 -0.0211,-0.0342 0.22537,-0.3455 0.54779,-0.69177 0.32243,-0.34627 0.58623,-0.64285 0.58623,-0.65907 0,-0.094 0.26672,-0.27131 0.4081,-0.27131 0.0914,0 0.1882,-0.0571 0.215,-0.12696 0.0541,-0.14092 0.30795,-0.1758 0.30795,-0.0423 0,0.0465 0.0589,0.0846 0.131,0.0846 0.1856,0 0.534391,0.40101 0.49952,0.5743 -0.01607,0.0798 -0.05282,0.32773 -0.08168,0.55087 -0.0421,0.32551 -0.12636,0.48449 -0.42618,0.80409 -0.20555,0.2191 -0.37436,0.42693 -0.37515,0.46185 -7.9e-4,0.0349 -0.0411,0.0635 -0.0896,0.0635 -0.0485,0 -0.17229,0.0818 -0.27508,0.18173 -0.1028,0.1 -0.12978,0.15053 -0.0599,0.11241 0.0816,-0.0446 0.0694,-0.004 -0.0343,0.11451 -0.0887,0.10111 -0.20296,0.18503 -0.25393,0.18649 -0.12343,0.004 -0.42065,0.41703 -0.35032,0.48736 0.0304,0.0304 0.0817,0.0182 0.11412,-0.0271 0.0324,-0.0453 0.17314,-0.13939 0.3128,-0.20915 0.13966,-0.0698 0.29201,-0.16837 0.33857,-0.21914 0.15099,-0.16469 1.25396,-0.46701 1.319125,-0.36157 0.03219,0.0521 0.103914,0.0666 0.159391,0.0323 0.203553,-0.1258 0.612671,0.68689 0.531773,1.05634 -0.08201,0.37455 -0.539063,0.73286 -1.126939,0.88346 -0.29607,0.0759 -0.55881,0.17006 -0.58387,0.20935 -0.0395,0.0619 -0.68305,0.20729 -0.807,0.18232 -0.0244,-0.005 -0.15829,0.0499 -0.29746,0.1219 -0.13917,0.072 -0.25304,0.10839 -0.25304,0.0809 0,-0.0275 -0.15453,0.0369 -0.34341,0.1431 -0.27328,0.15359 -0.35755,0.17014 -0.41262,0.081 -0.0485,-0.0785 -0.0866,-0.0839 -0.12711,-0.0183 -0.0935,0.15127 -0.2931,0.10896 -0.60372,-0.12797 -0.27068,-0.20645 -0.39791,-0.54012 -0.20596,-0.54012 0.0466,0 0.0847,-0.0345 0.0847,-0.0767 0,-0.0422 -0.0727,-0.0577 -0.16146,-0.0345 -0.36034,0.0942 -0.61241,-0.42551 -0.42839,-0.88332 z m 1.15412,1.64344 c 0.031,-0.031 0.006,-0.0564 -0.0564,-0.0564 -0.0621,0 -0.0875,0.0254 -0.0564,0.0564 0.031,0.031 0.0818,0.031 0.11286,0 z m 0.85346,1.02563 c 0.53594,-0.4673 3.658313,-1.04949 4.035446,-0.75244 0.09321,0.0734 0.717708,0.21799 0.831408,0.19248 0.03491,-0.008 0.06348,0.0285 0.06348,0.0808 0,0.0694 0.03148,0.0689 0.116665,-0.002 0.300107,-0.24907 0.887984,0.24487 0.948778,0.79717 0.04793,0.43542 -0.249532,0.98287 -0.462524,0.85123 -0.04586,-0.0283 -0.102859,-0.02 -0.12667,0.0185 -0.064,0.10356 -0.473108,0.0516 -0.845853,-0.10746 -0.180006,-0.0768 -0.37997,-0.11942 -0.444365,-0.0947 -0.06439,0.0247 -0.117081,0.0149 -0.117081,-0.0218 0,-0.12103 -1.867054,-0.15604 -2.807024,-0.0526 -0.72673,0.0799 -0.96887,0.0135 -1.17341,-0.32195 -0.20465,-0.33564 -0.20745,-0.42288 -0.0189,-0.58733 z"
       id="path1921"
       sodipodi:nodetypes="sscscssscssssssssssssssssssssssssscscsssssscssssssssscsssssssssssssssssssscsssccccscccsscssscssccscssscsssssssscsssssssssssssssssssssscsssssscscssssssssssssssscssssccssccssscsscssssssscssscscsssccscscsssssssssssssssssssssscsssssscscsccssssscsssssssssssssscsscsscsssssssssssssssssssssssssssssssssssscssssssssscssssssssssssssccscccssssssscscccsccccssssscssssssssssssssssscscscscsssssssccccscccsscssssssscscscssssssssccsssscsssssssscsccsscccssssscssssssssssssssssscssssssssscsssccssscccscssssssssssssscscssccccsssssssscsscccsssssssssssssssccssccssssccsssscssssssscsssscssccssscsssssscsscscscsscsccssssssssssssscsssssssssscsssssccssccscsssssssscssscccccssssscssssscccsscscccsssccccssccccsccccscccssssssscsssccsssssssssssssssscssscscssssssssssssccssccsccsccssssssssscscsccssssscssscsscccccssssssssssscsssssscsccsssssssssssscscsssssssssssssscsssccccscccsscscssssssssss" />
    <path
       d="m 160.82218,14.912602 c 0.0208,-0.22112 0.0739,-0.40204 0.11791,-0.40204 0.044,0 0.0715,-0.0286 0.0611,-0.0635 -0.0283,-0.0951 0.21972,-0.61365 0.29348,-0.61365 0.0352,0 0.064,-0.0496 0.064,-0.11029 0,-0.26046 1.16133,-1.58671 1.6822,-1.92109 0.10877,-0.0698 0.31753,-0.24309 0.46391,-0.38501 0.23661,-0.22941 0.7466,-0.52652 0.92378,-0.53819 0.0358,-0.002 0.11201,-0.0431 0.16928,-0.0904 0.0573,-0.0474 0.35171,-0.26601 0.65431,-0.48586 0.30259,-0.21984 0.56921,-0.4229896 0.59248,-0.4514296 0.0233,-0.0284 0.16611,-0.10557 0.3174,-0.17139 0.1513,-0.0658 0.27509,-0.14847 0.27509,-0.18366 0,-0.0352 0.0416,-0.064 0.0924,-0.064 0.0508,0 0.19366,-0.0784 0.3174,-0.17413 0.49624,-0.38405 0.99684,-0.66928 1.1772,-0.67074 0.10475,-7.9e-4 0.19044,-0.0396 0.19044,-0.0862 0,-0.0465 0.0952,-0.0846 0.21161,-0.0846 0.11638,0 0.2116,-0.0381 0.2116,-0.0846 0,-0.0465 0.0739,-0.0846 0.16429,-0.0846 0.0904,0 0.18906,-0.0401 0.21935,-0.0891 0.0303,-0.049 0.0992,-0.0744 0.1531,-0.0564 0.0539,0.018 0.27497,-0.0562 0.49122,-0.16481 0.21626,-0.10862 0.44585,-0.19749 0.51019,-0.19749 0.0643,0 0.2019,-0.0595 0.30567,-0.13215 0.10377,-0.0727 0.36934,-0.16483 0.59016,-0.20477 0.22082,-0.0399 0.64906,-0.13641 0.95165,-0.21438 0.95181,-0.24527 4.53373,-0.137 4.70632,0.14226 0.024,0.0388 0.14607,0.0705 0.27136,0.0705 0.12529,0 0.4944,0.0583 0.82025,0.12944 0.66472,0.14524 1.43764,0.29682 1.69279,0.33197 0.0931,0.0128 0.21712,-0.0144 0.27559,-0.0605 0.098,-0.0773 1.50043,-0.0383 1.98704,0.0553 1.98929,0.3826 2.23301,0.45311 2.51929,0.72883 0.0725,0.0698 0.34981,0.23975 0.61622,0.3776 0.26642,0.13785 0.48439,0.29528 0.48439,0.34985 0,0.0546 0.0717,0.11797 0.15939,0.1409 0.26955,0.0705 0.27515,1.3323196 0.006,1.3323196 -0.0444,0 -0.0807,0.0739 -0.0807,0.16428 0,0.0904 -0.0381,0.18783 -0.0846,0.2166 -0.0465,0.0288 -0.0846,0.16567 -0.0846,0.30421 0,0.26326 -0.21493,0.66916 -0.35434,0.66916 -0.18677,0 -0.68164,0.83936 -0.78596,1.33309 -0.032,0.1513 -0.0932,0.27508 -0.13604,0.27508 -0.0429,0 -0.0779,0.0798 -0.0779,0.17738 0,0.0976 -0.0741,0.28145 -0.16468,0.40865 -0.0906,0.1272 -0.22773,0.49491 -0.30478,0.81715 -0.0771,0.32224 -0.1934,0.7059 -0.25853,0.8526 -0.0651,0.14669 -0.11842,0.32176 -0.11842,0.38904 0,0.11125 -0.15111,0.48503 -0.33779,0.83551 -0.22823,0.42851 -0.1854,1.29405 0.0791,1.59813 0.14172,0.16293 0.3436,0.39984 0.44863,0.52647 0.10502,0.12663 0.23539,0.23137 0.2897,0.23276 0.0543,0.001 0.11157,0.041 0.12724,0.088 0.0402,0.12043 0.40882,0.1789 0.40882,0.0648 0,-0.0516 0.0255,-0.0684 0.0567,-0.0372 0.0312,0.0312 0.14262,5.3e-4 0.2476,-0.0683 0.11187,-0.0733 0.20252,-0.0902 0.21899,-0.0407 0.0383,0.1148 0.49238,0.19064 0.49238,0.0822 0,-0.13545 0.15509,-0.10186 0.41422,0.0897 0.24211,0.17901 1.79295,0.19683 2.96301,0.0341 0.2581,-0.0359 0.39296,-0.0187 0.43915,0.056 0.0536,0.0867 0.20531,0.0878 0.77456,0.005 1.31931,-0.19075 2.9858,-0.0278 4.1131,0.40218 1.33483,0.50914 2.18022,0.71589 2.9959,0.7327 0.62327,0.0128 0.85634,0.0497 0.95825,0.15164 0.0741,0.0741 0.24893,0.13466 0.38859,0.13466 0.24923,0 0.53586,0.1856 0.43791,0.28356 -0.0274,0.0274 0.0704,0.0153 0.2172,-0.0268 0.30364,-0.0871 0.30581,-0.0875 0.46896,-0.0875 0.0663,0 0.23325,-0.0949 0.3711,-0.2109 0.22198,-0.18678 0.26299,-0.19602 0.35862,-0.0808 0.0594,0.0716 0.15901,0.11053 0.22138,0.0866 0.0624,-0.0239 0.1134,-0.0114 0.1134,0.0278 0,0.0392 0.12105,0.0465 0.26901,0.0163 0.32662,-0.0668 0.67855,0.23319 0.78469,0.66889 0.006,0.0233 0.0574,0.12707 0.11496,0.23064 0.13476,0.24254 0.11513,1.38797 -0.0285,1.66488 -0.12362,0.23829 -0.11091,1.23262 0.0234,1.82868 0.0472,0.20948 0.15117,0.74272 0.23107,1.18497 0.0799,0.44225 0.18057,0.82593 0.22374,0.85263 0.0983,0.0608 0.14792,0.2825 0.25431,1.13643 0.0526,0.42216 0.14618,0.76348 0.24853,0.90646 0.0903,0.12614 0.16416,0.25994 0.16416,0.29733 0,0.0374 0.0838,0.1056 0.1861,0.15155 0.16133,0.0724 0.18819,0.15679 0.2018,0.63372 0.009,0.30259 0.0549,0.70252 0.10278,0.88873 0.17742,0.68987 0.34657,1.28025 0.47507,1.65813 0.11172,0.32855 0.12469,0.72703 0.084,2.58155 -0.0265,1.20616 -0.0444,2.54246 -0.0399,2.96954 0.0104,0.97772 -0.5137,2.05895 -0.99792,2.05895 -0.0871,0 -0.25896,0.0791 -0.38183,0.17573 -0.16396,0.12897 -0.31901,0.16881 -0.58274,0.14972 -0.35934,-0.026 -0.35934,-0.026 -0.4063,0.31096 -0.0258,0.18533 -0.10014,0.43218 -0.16514,0.54856 -0.065,0.11638 -0.12898,0.27595 -0.14217,0.3546 -0.0302,0.18009 -0.37095,0.84459 -0.49091,0.95734 -0.28958,0.27219 -0.82372,0.64461 -0.86512,0.60321 -0.0592,-0.0592 -0.53268,0.21076 -0.53268,0.30376 0,0.0365 -0.0577,0.0664 -0.12811,0.0664 -0.0705,0 -0.19425,0.0381 -0.27508,0.0846 -0.21364,0.12298 -0.64451,0.28351 -0.7183,0.26763 -0.0349,-0.008 -0.0635,0.024 -0.0635,0.07 0,0.046 -0.0857,0.0813 -0.19045,0.0784 -0.24154,-0.007 -0.46494,0.0419 -0.54066,0.1176 -0.0324,0.0324 -0.22075,0.0589 -0.4186,0.0589 -0.19785,0 -0.37242,0.0372 -0.38794,0.0826 -0.046,0.13449 -1.84799,0.13349 -1.84799,-0.001 0,-0.0448 -0.0403,-0.0815 -0.0896,-0.0815 -0.0493,0 -0.0628,0.0476 -0.0299,0.1058 0.0478,0.0846 0.0369,0.0846 -0.0542,0 -0.0627,-0.0582 -0.22288,-0.1058 -0.35598,-0.1058 -0.13977,0 -0.21989,-0.0358 -0.18967,-0.0846 0.0288,-0.0465 -0.0239,-0.0846 -0.11697,-0.0846 -0.0931,0 -0.19283,-0.0381 -0.2216,-0.0846 -0.0288,-0.0465 -0.13687,-0.0846 -0.24023,-0.0846 -0.10336,0 -0.24283,-0.0762 -0.30993,-0.16928 -0.0671,-0.0931 -0.17074,-0.16929 -0.23029,-0.16929 -0.0596,0 -0.10828,-0.0381 -0.10828,-0.0846 0,-0.0466 -0.067,-0.0846 -0.14892,-0.0846 -0.0819,0 -0.19649,-0.0762 -0.25464,-0.16928 -0.0581,-0.0931 -0.15336,-0.16929 -0.2116,-0.16929 -0.0582,0 -0.15346,-0.0762 -0.2116,-0.16928 -0.0581,-0.0931 -0.16253,-0.16928 -0.23196,-0.16928 -0.0694,0 -0.12625,-0.0381 -0.12625,-0.0846 0,-0.0465 -0.0546,-0.0846 -0.12125,-0.0846 -0.0667,0 -0.1455,-0.0764 -0.17514,-0.16973 -0.0296,-0.0934 -0.13931,-0.27428 -0.24374,-0.40205 -0.10443,-0.12777 -0.28272,-0.44974 -0.3962,-0.71549 -0.22211,-0.52017 -0.36391,-0.59812 -1.30665,-0.71829 -0.18621,-0.0237 -0.37475,-0.0773 -0.41897,-0.11913 -0.0442,-0.0418 -0.31719,-0.076 -0.60659,-0.076 -0.2894,0 -0.53888,-0.0323 -0.5544,-0.0719 -0.0155,-0.0395 -0.73801,-0.0969 -1.60554,-0.12755 -1.76546,-0.0623 -1.56073,-0.14791 -1.73597,0.72559 -0.0559,0.27853 -0.24227,0.53793 -0.30559,0.42527 -0.0194,-0.0345 -0.0229,-0.0131 -0.008,0.0477 0.0941,0.3772 -1.24272,2.04706 -1.63933,2.04767 -0.10311,1.7e-4 -0.22658,0.0734 -0.27438,0.16268 -0.0478,0.0893 -0.21102,0.18895 -0.3627,0.22138 -0.15169,0.0324 -0.31539,0.0907 -0.36378,0.12943 -0.4729,0.37862 -2.73375,0.36607 -3.44339,-0.0191 -0.48611,-0.26386 -1.08154,-0.74395 -1.08154,-0.87204 0,-0.057 -0.0802,-0.17619 -0.17829,-0.26488 -0.32951,-0.298 -0.50561,-0.77526 -0.55753,-1.51095 -0.0497,-0.70397 -0.0497,-0.70397 -0.7361,-0.70797 -0.37753,-0.002 -0.81973,-0.0239 -0.98267,-0.0482 -0.16293,-0.0243 -0.47716,-0.07 -0.69828,-0.10166 -0.22113,-0.0316 -0.40205,-0.0906 -0.40205,-0.13112 0,-0.0405 -0.0576,-0.0736 -0.12811,-0.0736 -0.0705,0 -0.19424,-0.0333 -0.27508,-0.074 -0.0808,-0.0407 -0.31837,-0.1605 -0.52786,-0.26622 -0.20948,-0.10572 -0.45951,-0.26286 -0.55562,-0.3492 -0.0961,-0.0863 -0.21989,-0.15699 -0.27508,-0.15699 -0.0552,0 -0.10034,-0.0381 -0.10034,-0.0846 0,-0.0465 -0.0515,-0.0846 -0.11441,-0.0846 -0.0629,0 -0.23398,-0.11426 -0.38012,-0.25392 -0.14613,-0.13966 -0.30573,-0.25392 -0.35465,-0.25392 -0.0489,0 -0.17072,-0.0762 -0.27065,-0.16928 -0.0999,-0.0931 -0.233,-0.16929 -0.29569,-0.16929 -0.0627,0 -0.21273,-0.0647 -0.33344,-0.1438 -0.12071,-0.0791 -0.39524,-0.15853 -0.61008,-0.17653 -0.43266,-0.0363 -1.04023,-0.28405 -1.30785,-0.53337 -0.0956,-0.0891 -0.22382,-0.16199 -0.28487,-0.16199 -0.061,0 -0.111,-0.0381 -0.111,-0.0846 0,-0.0465 -0.049,-0.0846 -0.109,-0.0846 -0.0599,0 -0.24087,-0.11271 -0.40205,-0.25048 -0.16117,-0.13777 -0.33219,-0.25203 -0.38003,-0.25392 -0.10614,-0.004 -0.37854,-0.31191 -0.37854,-0.42761 0,-0.046 -0.0286,-0.0841 -0.0635,-0.0845 -0.0349,-5.2e-4 -0.26299,-0.19092 -0.50683,-0.4232 -0.24384,-0.23229 -0.47782,-0.42234 -0.51995,-0.42234 -0.0421,0 -0.0965,-0.052 -0.12091,-0.11548 -0.0604,-0.15731 -0.93143,-1.35874 -1.01065,-1.39394 -0.0349,-0.0155 -0.0635,-0.0981 -0.0635,-0.18339 0,-0.0853 -0.0301,-0.16787 -0.0668,-0.18339 -0.10485,-0.0443 -0.61031,-0.90573 -0.61031,-1.04017 0,-0.0664 -0.0381,-0.14425 -0.0846,-0.17302 -0.0465,-0.0288 -0.0846,-0.11776 -0.0846,-0.19777 0,-0.08 -0.0762,-0.21071 -0.16928,-0.29042 -0.0931,-0.0797 -0.17219,-0.21198 -0.17576,-0.29391 -0.01,-0.2209 -0.0334,-0.31773 -0.32746,-1.33335 -0.2645,-0.91347 -0.65372,-2.67537 -0.72,-3.25924 -0.0185,-0.16293 -0.06,-0.64803 -0.0923,-1.078 -0.0323,-0.42997 -0.0869,-0.76432 -0.1214,-0.743 -0.0345,0.0213 -0.0649,-0.2744 -0.0677,-0.65714 -0.005,-0.75947 -0.16202,-3.8008 -0.23414,-4.54705 -0.0247,-0.25604 -0.0585,-0.96067 -0.0749,-1.56586 -0.0165,-0.60518 -0.0491,-1.70974 -0.0725,-2.45458 -0.0234,-0.74484 -0.0255,-1.53517 -0.005,-1.7563 z m 1.80771,4.93336 c 0.0474,0.0886 0.1049,0.83839 0.12769,1.66609 0.0567,2.06205 0.20552,4.56658 0.29532,4.9719 0.0489,0.22044 0.0433,0.37263 -0.0162,0.44436 -0.0648,0.078 -0.0635,0.1091 0.004,0.1091 0.0522,0 0.0879,0.0286 0.0791,0.0635 -0.0261,0.10431 0.10405,0.79811 0.22629,1.20613 0.0628,0.20948 0.15989,0.6475 0.21584,0.97337 0.056,0.32586 0.15434,0.73609 0.21863,0.9116 0.0643,0.17551 0.1169,0.39494 0.1169,0.48761 0,0.0927 0.0717,0.32995 0.15926,0.52729 0.0876,0.19734 0.20648,0.48259 0.26419,0.63388 0.0577,0.1513 0.1384,0.27508 0.1793,0.27508 0.0409,0 0.0744,0.0525 0.0744,0.1166 0,0.0641 0.0552,0.16243 0.12273,0.21845 0.0675,0.056 0.20211,0.26585 0.29914,0.46628 0.097,0.20044 0.2536,0.45445 0.34793,0.56448 0.38833,0.45294 0.46378,0.54845 0.5984,0.75742 0.0775,0.1203 0.28698,0.37287 0.46552,0.56126 0.17854,0.18839 0.40115,0.47083 0.49468,0.62764 0.0935,0.15681 0.2554,0.32271 0.35972,0.36866 0.10432,0.046 0.18967,0.11286 0.18967,0.14868 0,0.0599 0.97521,0.73797 1.38871,0.96563 0.0974,0.0536 0.36758,0.11924 0.60035,0.14579 0.90348,0.10303 1.27972,0.20934 1.53525,0.43381 0.29375,0.25804 0.4635,0.38088 0.5263,0.38088 0.0388,0 0.13634,0.0727 0.21675,0.16155 0.0804,0.0888 0.25644,0.20721 0.39119,0.26302 0.13474,0.0558 0.26786,0.17356 0.29582,0.26166 0.028,0.0881 0.0864,0.16018 0.12978,0.16018 0.0434,0 0.15511,0.0762 0.24822,0.16928 0.0931,0.0931 0.24514,0.16928 0.33785,0.16928 0.0927,0 0.21613,0.0762 0.27428,0.16928 0.0581,0.0931 0.17001,0.16929 0.24859,0.16929 0.0786,0 0.19321,0.0476 0.25472,0.1058 0.18881,0.1786 0.98444,0.21443 1.38444,0.0623 0.12256,-0.0466 0.25451,-0.0651 0.29323,-0.0412 0.0695,0.043 0.25396,-0.66272 0.25396,-0.97146 0,-0.0875 0.0476,-0.2101 0.1058,-0.27247 0.0582,-0.0624 0.17942,-0.24601 0.26939,-0.40809 0.09,-0.16208 0.23345,-0.34491 0.31882,-0.40628 0.0854,-0.0614 0.13685,-0.14134 0.11438,-0.17769 -0.0865,-0.13989 1.08409,-0.58122 1.55339,-0.58567 0.67353,-0.006 0.66146,-0.40193 -0.0335,-1.09687 -0.57323,-0.57322 -0.68602,-1.06078 -0.37173,-1.60687 0.27433,-0.47666 1.08087,-0.71699 1.34364,-0.40036 0.0575,0.0693 0.13573,0.10678 0.1738,0.0833 0.0381,-0.0235 0.0898,-0.009 0.11498,0.0313 0.0252,0.0407 0.3227,0.0811 0.66116,0.0896 0.33846,0.009 0.65186,0.052 0.69644,0.0966 0.0446,0.0446 0.13091,0.0811 0.19183,0.0811 0.10545,0 0.41615,0.23988 0.84964,0.65597 0.10912,0.10474 0.2187,0.19044 0.24351,0.19044 0.0691,0 0.70897,0.68209 0.70897,0.75572 0,0.0356 0.0785,0.15631 0.17441,0.26818 0.0959,0.11187 0.24676,0.28764 0.33519,0.3906 0.0884,0.10297 0.2436,0.35055 0.34481,0.55017 0.10121,0.19962 0.21415,0.38249 0.25097,0.40636 0.11776,0.0764 0.43504,1.0178 0.38604,1.14549 -0.026,0.0677 -0.0103,0.12304 0.0348,0.12304 0.0451,0 0.082,0.0524 0.082,0.11651 0,0.0952 0.34198,0.11771 1.87023,0.12307 1.02862,0.004 1.99035,0.0436 2.13718,0.0889 0.14683,0.0453 0.53357,0.10401 0.85944,0.13051 0.32587,0.0265 0.74484,0.0855 0.93105,0.13112 0.46716,0.11446 0.4436,0.12316 0.62435,-0.23041 0.0892,-0.17457 0.28046,-0.44084 0.42492,-0.59172 0.14447,-0.15087 0.26266,-0.30964 0.26266,-0.35282 0,-0.0432 0.13644,-0.16282 0.30319,-0.26588 0.2396,-0.14809 0.29221,-0.22497 0.25082,-0.36663 -0.22202,-0.75993 -0.0536,-1.7451 0.29833,-1.7451 0.0784,0 0.18673,-0.0532 0.24065,-0.11811 0.0539,-0.065 0.23949,-0.14454 0.4124,-0.17686 0.17292,-0.0323 0.362,-0.0981 0.42019,-0.14618 0.0737,-0.0609 0.1058,-0.0586 0.1058,0.008 0,0.0523 0.0906,0.095 0.20124,0.095 0.11068,0 0.25074,0.0597 0.31124,0.13255 0.19279,0.23229 0.5673,0.37527 0.98569,0.3763 0.22344,5.3e-4 0.61574,0.0612 0.87178,0.13468 0.45129,0.12958 0.79295,0.19503 1.94674,0.3729 0.30259,0.0466 0.68347,0.10633 0.8464,0.13263 0.32015,0.0517 0.98888,0.35013 1.16986,0.52212 0.0615,0.0584 0.14722,0.10628 0.19044,0.10628 0.0432,0 0.0786,0.0797 0.0786,0.17721 0,0.10503 0.0678,0.19494 0.16648,0.22074 0.0916,0.0239 0.18935,0.1156 0.2173,0.20368 0.028,0.0881 0.0817,0.16014 0.1195,0.16014 0.0378,0 0.116,0.11426 0.17384,0.25392 0.0579,0.13966 0.13389,0.25392 0.16898,0.25392 0.0351,0 0.0905,0.12379 0.12327,0.27509 0.12087,0.55897 0.2335,-0.10828 0.32026,-1.89735 0.0921,-1.8996 0.11394,-1.71528 -0.40479,-3.41891 -0.11424,-0.37519 -0.20776,-0.73703 -0.20782,-0.80408 -6e-5,-0.0671 -0.0953,-0.23259 -0.2116,-0.36785 -0.11632,-0.13526 -0.2115,-0.29524 -0.2115,-0.35552 0,-0.0603 -0.0659,-0.14645 -0.14636,-0.1915 -0.12692,-0.071 -0.14294,-0.19937 -0.12056,-0.96592 0.0142,-0.4862 -0.0162,-1.04008 -0.0676,-1.23084 -0.10364,-0.38489 -0.14487,-0.72152 -0.25584,-2.08874 -0.1731,-2.13282 -0.35171,-3.00816 -0.60054,-2.94309 -0.20245,0.0529 -0.42338,-0.11658 -0.36163,-0.27749 0.0278,-0.0725 -0.0401,-0.15785 -0.17432,-0.219 -0.12094,-0.0551 -0.2199,-0.17025 -0.2199,-0.25589 0,-0.0856 -0.0408,-0.15569 -0.0907,-0.15569 -0.0499,0 -0.14781,-0.0571 -0.21764,-0.12696 -0.0698,-0.0698 -0.21629,-0.12696 -0.32547,-0.12696 -0.10917,0 -0.2112,-0.0367 -0.22671,-0.0815 -0.0248,-0.0717 -0.35565,-0.12458 -1.93264,-0.30889 -0.20948,-0.0245 -0.57132,-0.13474 -0.80408,-0.24502 -0.23277,-0.11028 -0.68983,-0.26526 -1.01569,-0.3444 -0.32587,-0.0791 -0.62867,-0.17674 -0.6729,-0.21688 -0.0442,-0.0401 -0.24419,-0.073 -0.44436,-0.073 -0.20018,0 -0.36396,-0.0334 -0.36396,-0.0742 0,-0.0408 -0.2853,-0.0797 -0.63401,-0.0864 -0.3487,-0.007 -0.72006,-0.0443 -0.82524,-0.0834 -0.10519,-0.0391 -0.26742,-0.0545 -0.36053,-0.0343 -0.61044,0.13304 -1.23842,0.19813 -1.56585,0.16229 -0.81985,-0.0897 -2.77048,0.18094 -2.96136,0.41093 -0.0484,0.0584 -0.1856,0.0857 -0.31043,0.0618 -0.15432,-0.0295 -0.20508,-0.0127 -0.16375,0.0542 0.0353,0.0571 0.005,0.0969 -0.0732,0.0969 -0.0732,0 -0.20993,0.0476 -0.30382,0.10581 -0.13992,0.0867 -0.18443,0.0838 -0.24671,-0.0163 -0.0623,-0.10005 -0.11654,-0.10368 -0.30001,-0.0201 -0.25576,0.11652 -0.39532,0.0675 -0.32553,-0.1144 0.0355,-0.0925 -0.0183,-0.12425 -0.2103,-0.12425 -0.14189,0 -0.28152,-0.0381 -0.31029,-0.0846 -0.0288,-0.0465 -0.12624,-0.0846 -0.2166,-0.0846 -0.0904,0 -0.16429,-0.0381 -0.16429,-0.0846 0,-0.0465 -0.11426,-0.0846 -0.25392,-0.0846 -0.13966,0 -0.25392,-0.0381 -0.25392,-0.0846 0,-0.0465 -0.0577,-0.0846 -0.12815,-0.0846 -0.21218,0 -0.6825,-0.35252 -0.89734,-0.67258 -0.25702,-0.38291 -0.50072,-0.63211 -0.68871,-0.70425 -0.0813,-0.0312 -0.1479,-0.10897 -0.1479,-0.17279 0,-0.0638 -0.0952,-0.15941 -0.2116,-0.21244 -0.11638,-0.053 -0.2116,-0.15436 -0.2116,-0.22519 0,-0.0708 -0.0594,-0.12878 -0.13196,-0.12878 -0.0726,0 -0.10911,-0.037 -0.0812,-0.0822 0.0279,-0.0452 -0.003,-0.18801 -0.0689,-0.3174 -0.12817,-0.2519 -0.0417,-1.03642 0.19204,-1.74321 0.0588,-0.17765 0.0874,-0.39733 0.0636,-0.48818 -0.0238,-0.0909 0.0174,-0.22576 0.0915,-0.29981 0.13016,-0.13017 0.28607,-0.38929 0.55378,-0.9204 0.0704,-0.13965 0.26469,-0.66242 0.43177,-1.16171 0.16708,-0.49928 0.37613,-1.0706 0.46455,-1.26961 0.0884,-0.199 0.30602,-0.68558 0.48356,-1.08127 0.2081,-0.46379 0.32281,-0.84546 0.32282,-1.07404 2e-5,-0.26922 0.0364,-0.36412 0.15117,-0.39412 0.38268,-0.10008 -0.0934,-0.7017396 -0.49461,-0.62505 -0.12716,0.0243 -0.29098,0.0139 -0.36405,-0.0231 -0.26133,-0.1324396 -1.42167,-0.2517696 -2.54511,-0.2617496 -0.63016,-0.006 -1.38941,-0.064 -1.69282,-0.13016 -0.30259,-0.066 -0.7787,-0.13969 -1.05801,-0.16372 -0.27931,-0.024 -0.75542,-0.10062 -1.05801,-0.17018 -0.97542,-0.22426 -1.3931,-0.28785 -1.55526,-0.23678 -0.0873,0.0275 -0.18574,0.006 -0.2188,-0.0473 -0.0438,-0.0709 -0.16149,-0.0739 -0.4338,-0.0111 -0.20553,0.0474 -0.53213,0.0871 -0.72578,0.0882 -0.19365,10e-4 -0.70175,0.11634 -1.12912,0.25599 -0.42737,0.13966 -0.83437,0.25393 -0.90446,0.25393 -0.0701,0 -0.22852,0.0694 -0.35209,0.15425 -0.31249,0.21455 -0.79724,0.4300196 -1.10664,0.4918996 -0.14337,0.0287 -0.26068,0.0855 -0.26068,0.12619 0,0.0407 -0.064,0.0741 -0.14221,0.0741 -0.19124,0 -0.95812,0.35081 -0.95812,0.43829 0,0.0383 -0.0571,0.0696 -0.12696,0.0696 -0.0698,0 -0.12696,0.0381 -0.12696,0.0846 0,0.0466 -0.0571,0.0846 -0.12696,0.0846 -0.0698,0 -0.12696,0.0381 -0.12696,0.0846 0,0.0465 -0.0571,0.0846 -0.12696,0.0846 -0.0698,0 -0.12696,0.0381 -0.12696,0.0846 0,0.0465 -0.0571,0.0846 -0.12697,0.0846 -0.0698,0 -0.12696,0.0381 -0.12696,0.0846 0,0.0466 -0.0911,0.0846 -0.20254,0.0846 -0.1114,0 -0.22292,0.0531 -0.24782,0.11798 -0.0249,0.0649 -0.21942,0.20495 -0.43226,0.31124 -0.21284,0.10631 -0.38699,0.21728 -0.38699,0.24662 0,0.0293 -0.16187,0.12398 -0.35972,0.21029 -0.19785,0.0863 -0.44076,0.23648 -0.53981,0.33369 -0.4123,0.4047 -0.71859,0.64228 -0.82801,0.64228 -0.0641,0 -0.13838,0.0572 -0.16519,0.12704 -0.0893,0.23264 -0.60276,0.882 -0.7001,0.88535 -0.0528,0.002 -0.11805,0.07 -0.14509,0.15142 -0.027,0.0815 -0.10345,0.2918 -0.16982,0.46741 -0.18838,0.49842 -0.22487,0.96272 -0.15121,1.9237 0.0375,0.4888 0.0382,0.92862 0.002,0.97738 -0.0366,0.0488 -0.0797,0.39155 -0.0957,0.76177 -0.016,0.37021 -0.0368,0.72323 -0.0462,0.78448 -0.009,0.0613 0.0218,0.1839 0.0692,0.27254 z m 15.90388,23.21622 c 0.39672,0.26254 1.42959,0.35984 1.80559,0.17009 0.31014,-0.1565 0.30413,-0.16499 -0.22582,-0.31905 -0.25222,-0.0733 -0.4748,-0.18077 -0.49462,-0.23877 -0.0287,-0.084 -0.0937,-0.0842 -0.31997,-8e-4 -0.15617,0.0576 -0.30495,0.0767 -0.33063,0.0423 -0.0257,-0.0344 -0.22734,-0.0744 -0.44814,-0.089 -0.48586,-0.0321 -0.4815,0.10743 0.0136,0.43507 z m 0.72038,-2.60316 c 0.0665,0.0665 0.18147,0.12092 0.25548,0.12092 0.074,0 0.32805,0.10117 0.56454,0.22482 0.43784,0.22895 1.25972,0.37385 1.25972,0.2221 0,-0.0453 -0.0762,-0.17029 -0.16928,-0.27764 -0.0931,-0.10735 -0.16928,-0.24921 -0.16928,-0.31524 0,-0.27662 -0.25257,-0.38608 -0.88393,-0.38309 -0.91423,0.004 -1.14919,0.1162 -0.85725,0.40813 z m 1.04956,-3.4632 c 0.0851,-0.077 0.19683,-0.14008 0.24822,-0.14008 0.0514,0 0.11699,-0.0742 0.14579,-0.16496 0.0317,-0.0998 0.10079,-0.14638 0.17498,-0.11791 0.0675,0.0259 0.12263,0.008 0.12263,-0.0397 0,-0.17803 -0.10634,-0.35455 -0.2136,-0.35455 -0.061,0 -0.1288,-0.0476 -0.15073,-0.1058 -0.0414,-0.10999 -0.46863,0.7352 -0.4772,0.94417 -0.004,0.0938 0.0278,0.0893 0.14991,-0.0212 z m 0.53821,6.09652 c 0.0675,-0.027 0.0475,-0.0471 -0.0511,-0.0511 -0.0892,-0.004 -0.13921,0.0163 -0.11109,0.0445 0.0281,0.0281 0.10113,0.0311 0.16223,0.007 z m 12.25675,-3.27417 c 0.0322,0.0698 0.10264,0.21214 0.15643,0.31625 0.17389,0.33659 0.12558,1.40982 -0.0715,1.58817 -0.0931,0.0843 -0.16928,0.18365 -0.16928,0.22087 0,0.11302 0.42297,0.49858 0.54696,0.49858 0.0638,0 0.12875,0.0286 0.14427,0.0635 0.0286,0.0643 0.59294,0.35052 1.02673,0.52074 0.57592,0.226 1.82235,0.0175 3.23353,-0.54096 0.18621,-0.0737 0.40518,-0.15609 0.4866,-0.18311 0.0814,-0.027 0.26354,-0.20618 0.4047,-0.39813 0.25665,-0.34899 0.25665,-0.34899 0.0341,-0.42316 -0.14142,-0.0471 -0.2981,-0.0397 -0.42984,0.0203 -0.34962,0.15929 -1.21503,-0.0691 -1.21503,-0.3206 0,-0.0402 -0.0762,-0.093 -0.16928,-0.11731 -0.359,-0.0939 -0.12978,-1.43295 0.30367,-1.77389 0.23073,-0.1815 0.10434,-0.39325 -0.23847,-0.39956 -0.0805,-10e-4 -0.3466,-0.15421 -0.59127,-0.3394 -0.58399,-0.442 -1.7902,-0.72057 -2.03971,-0.47105 -0.0718,0.0718 -0.17145,0.13063 -0.22132,0.13063 -0.0499,0 -0.0907,0.0381 -0.0907,0.0846 0,0.0466 -0.0691,0.0847 -0.15345,0.0847 -0.0844,0 -0.26292,0.11426 -0.39672,0.25392 -0.1338,0.13966 -0.29071,0.25392 -0.34869,0.25392 -0.058,0 -0.12992,0.0772 -0.15987,0.17154 -0.0299,0.0943 -0.14818,0.23296 -0.26276,0.30803 -0.20832,0.1365 -0.20832,0.1365 -0.023,0.23051 0.1019,0.0517 0.21166,0.15114 0.24391,0.22097 z m 5.12107,-0.76177 c 0.25604,0 0.46552,-0.0381 0.46552,-0.0846 0,-0.0465 -0.0571,-0.0846 -0.12696,-0.0846 -0.0698,0 -0.12696,-0.0381 -0.12696,-0.0846 0,-0.12058 -0.40731,-0.10492 -0.55052,0.0212 -0.20946,0.18442 -0.13907,0.23276 0.33892,0.23276 z"
       style="fill:#000000;stroke-width:0.0223945"
       id="path2882" />
  </g>
</svg>
