<?xml version="1.0" encoding="UTF-8" standalone="no"?>
<!-- Created with Inkscape (http://www.inkscape.org/) -->

<svg
   width="210mm"
   height="297mm"
   viewBox="0 0 210 297"
   version="1.1"
   id="svg6230"
   inkscape:version="1.2.2 (732a01da63, 2022-12-09)"
   sodipodi:docname="space.svg"
   inkscape:export-filename="space\star.png"
   inkscape:export-xdpi="45"
   inkscape:export-ydpi="45"
   xmlns:inkscape="http://www.inkscape.org/namespaces/inkscape"
   xmlns:sodipodi="http://sodipodi.sourceforge.net/DTD/sodipodi-0.dtd"
   xmlns="http://www.w3.org/2000/svg"
   xmlns:svg="http://www.w3.org/2000/svg">
  <sodipodi:namedview
     id="namedview6232"
     pagecolor="#ffffff"
     bordercolor="#666666"
     borderopacity="1.0"
     inkscape:showpageshadow="2"
     inkscape:pageopacity="0.0"
     inkscape:pagecheckerboard="0"
     inkscape:deskcolor="#d1d1d1"
     inkscape:document-units="mm"
     showgrid="false"
     inkscape:zoom="2.1719923"
     inkscape:cx="1431.1745"
     inkscape:cy="130.29512"
     inkscape:window-width="1920"
     inkscape:window-height="1137"
     inkscape:window-x="3112"
     inkscape:window-y="457"
     inkscape:window-maximized="1"
     inkscape:current-layer="layer1"
     inkscape:lockguides="false" />
  <defs
     id="defs6227">
    <inkscape:path-effect
       effect="simplify"
       id="path-effect10385"
       is_visible="true"
       lpeversion="1"
       steps="2"
       threshold="0.002"
       smooth_angles="0"
       helper_size="5"
       simplify_individual_paths="false"
       simplify_just_coalesce="false" />
    <pattern
       id="EMFhbasepattern"
       patternUnits="userSpaceOnUse"
       width="6"
       height="6"
       x="0"
       y="0" />
  </defs>
  <g
     inkscape:label="Layer 1"
     inkscape:groupmode="layer"
     id="layer1">
    <path
       style="fill:#ffffff;fill-opacity:1;stroke:#ffffff;stroke-width:0.268309;stroke-linecap:butt;stroke-linejoin:miter;stroke-dasharray:none;stroke-opacity:1"
       d="m 362.52587,54.327349 c -0.48722,-9.491053 -8.03953,-78.675842 -2.92346,-79.175371 5.11605,-0.499529 56.033,4.245998 57.25109,6.493879 1.21812,2.247881 29.96548,48.953858 25.09303,49.703152 -4.87243,0.749294 -79.42066,22.97834 -79.42066,22.97834 z"
       id="path16505"
       inkscape:export-filename="space\rocket1_fill1.png"
       inkscape:export-xdpi="45"
       inkscape:export-ydpi="45" />
    <path
       style="fill:#ffffff;fill-opacity:1;stroke:#ffffff;stroke-width:0.268309;stroke-linecap:butt;stroke-linejoin:miter;stroke-dasharray:none;stroke-opacity:1"
       d="m 334.46981,10.987155 c -0.48722,-9.4910534 -5.97224,-34.746028 -0.85617,-35.245557 5.11605,-0.499529 23.30098,-1.955858 24.51907,0.292023 1.21812,2.247881 8.08671,33.6214913 3.21426,34.370785 -4.87243,0.749294 -26.87716,0.582749 -26.87716,0.582749 z"
       id="path16505-38"
       sodipodi:nodetypes="csssc" />
    <path
       style="fill:#ffffff;fill-opacity:1;stroke:#ffffff;stroke-width:0.268309;stroke-linecap:butt;stroke-linejoin:miter;stroke-dasharray:none;stroke-opacity:1"
       d="m 337.57075,42.857801 c -0.48722,-9.49105 -1.6654,-31.81737 3.45067,-32.316899 5.11605,-0.499529 20.5446,-0.23312 21.76269,2.014761 1.21812,2.247881 3.26304,35.171956 -1.60941,35.921246 -4.87243,0.7493 -23.60395,-5.619108 -23.60395,-5.619108 z"
       id="path16505-5"
       sodipodi:nodetypes="csssc"
       inkscape:export-filename="space\rocket1_engines.png"
       inkscape:export-xdpi="45"
       inkscape:export-ydpi="45" />
    <path
       style="fill:#ffffff;fill-opacity:1;stroke:#ffffff;stroke-width:0.268309;stroke-linecap:butt;stroke-linejoin:miter;stroke-dasharray:none;stroke-opacity:1"
       d="m 440.6079,28.377534 c -0.48722,-9.491053 -28.88466,-43.015169 -23.76859,-43.514698 5.11605,-0.499529 9.02614,-4.752342 11.25399,-3.498 2.76859,1.558785 45.98694,21.0455049 41.11449,21.7947989 -4.87243,0.749294 -28.59989,25.2178991 -28.59989,25.2178991 z"
       id="path16505-3"
       sodipodi:nodetypes="csssc"
       inkscape:export-filename="space\rocket1_fill2.png"
       inkscape:export-xdpi="45"
       inkscape:export-ydpi="45" />
    <path
       id="path1895-8-9-8-6-5-6-3-34"
       d="m 411.14149,18.663454 c -0.52268,5.499868 -1.32304,9.912309 -5.24075,13.342691 -3.91842,3.430381 -11.61316,5.636507 -17.07273,5.372515 -5.45921,-0.264372 -9.67914,-2.783763 -12.27296,-6.492729 -2.59346,-3.708777 -4.63226,-7.561395 -4.11811,-13.061642 0.51307,-5.500437 3.48953,-10.8583593 7.67141,-14.5550076 4.18184,-3.69683761 10.05028,-5.8220408 15.5102,-5.5654396 5.45993,0.2567906 8.84429,2.86167708 11.96946,6.6559246 3.12515,3.7942476 4.07982,8.8502506 3.57321,14.3508766"
       style="display:inline;fill:#ffffff;fill-opacity:1;stroke-width:1.45456"
       sodipodi:nodetypes="cssscsssc"
       inkscape:export-filename="space\rocket1_window.png"
       inkscape:export-xdpi="45"
       inkscape:export-ydpi="45"
       inkscape:label="Window" />
    <path
       id="path4532"
       style="fill:#212123;fill-opacity:1;stroke-width:0.0490984;stroke:none;stroke-opacity:1"
       d="m 359.18251,-28.017121 c -2.00714,0.36228 -4.0116,0.74068 -6.02563,1.06305 -3.32904,0.57577 -6.71687,0.64464 -10.08988,0.61106 -3.59798,0.16959 -7.2336,0.49193 -10.6763,1.61411 -0.15026,0.0701 -0.31326,-0.0138 -0.47203,-0.002 -0.84643,-0.0452 -1.73065,0.35441 -2.17079,1.0952 -0.39115,0.62468 -0.38171,1.43981 -0.0683,2.09417 0.14316,0.31862 0.38184,0.58152 0.5492,0.88728 1.11859,1.83983 1.69786,3.9813 1.7501,6.11433 -0.005,0.15264 0.002,0.30241 0.0619,0.44464 0.18783,0.71692 0.18284,1.50241 -0.0923,2.19644 -0.15602,0.39152 -0.48558,0.75726 -0.92697,0.79798 -0.32159,0.0376 -0.6408,-0.0624 -0.92944,-0.19632 -3.83916,0.22071 -7.68841,0.12131 -11.52801,0.33043 -3.34883,0.082 -6.66688,0.7605 -10.02155,0.5974 -0.33219,-0.0292 -0.68358,0.003 -1.01762,-0.0717 -1.01964,-0.19199 -1.96722,-0.6886 -3.01198,-0.77826 -0.52426,-0.049 -1.08941,0.10026 -1.44853,0.50345 -0.20317,0.22331 -0.36995,0.49186 -0.45889,0.7788798 -0.0735,0.70193 0.1442,1.4323 0.61847,1.95933 0.65327,0.73625 1.59039,1.13272 2.51075,1.42064 0.35744,0.11488 0.72775,0.18973 1.08722,0.29239 1.09529,0.55572 2.34938,0.69543 3.5625,0.63774 1.41486,-0.0663 2.81024,-0.34033 4.22333,-0.42941 5.34774,-0.61365 10.74583,-0.51945 16.1225,-0.64627 0.23502,0.008 0.4383,-0.0878 0.66956,-0.0903 0.45512,-0.0465 0.9421,0.11588 1.2228,0.48932 0.22585,0.2856 0.34916,0.63089 0.43424,0.97039 0.21925,0.89682 0.18878,1.81691 0.24299,2.73026 0.37243,2.55898998 0.62053,5.14058 0.69349,7.72727 -0.0294,1.44004 -0.13858,2.91287 0.24612,4.31899 0.2329,0.8593202 0.70641,1.6670002 1.41424,2.2188602 0.68778,0.11275 1.34053,0.50434 1.69616,1.11369 0.49351,0.8232 0.51811,1.84519 0.31288,2.76063 -0.0656,0.36606 -0.26435,0.69953 -0.26939,1.07738 -0.0326,0.83461 0.3409,1.60686 0.56032,2.39391 0.13591,0.48743 0.253,1.05155 -0.0184,1.5153 -0.14924,0.24546 -0.38537,0.43882 -0.64442,0.55431 -2.58145,0.20026 -5.09939,0.83178 -7.6534,1.21297 -4.46379,0.53698 -8.97468,0.57477 -13.45459,0.95943 -1.39565,0.2079 -2.82698,0.0616 -4.21251,0.37789 -0.48705,0.11097 -0.96216,0.28833 -1.38692,0.55351 -0.0527,-0.11565 -0.20375,-0.0359 -0.25698,0.0456 -0.11435,0.068 0.0668,0.14892 -0.0879,0.19949 -0.267,0.20723 -0.50024,0.45976 -0.64747,0.76662 -0.25405,0.46425 -0.29614,1.05512 -0.0335,1.52529 0.35024,0.64573 1.01629,1.04037 1.6754,1.31276 0.6962,0.27029 1.44874,0.43449 2.19783,0.38346 1.9941,-0.59377 4.0708,-0.70811 6.13716,-0.82867 2.90875,-0.33666 5.8502,0.23749 8.76435,-0.10366 0.69419,-0.0761 1.39137,-0.23148 2.05366,-0.41283 1.96613,-0.48535 3.99671,-0.54506 5.9898,-0.8747 0.38667,-0.0896 0.86442,-0.12442 1.16921,0.18115 0.3223,0.35192 0.33479,0.86385 0.32181,1.31466 -0.01,0.31525 -0.0679,0.64955 -0.1087,0.9745 0.33326,1.7721 -0.0217,3.55976 -0.11642,5.340959 -0.0267,0.36406 0.002,0.73191 -0.0782,1.09036 -0.25295,1.65611 -0.23376,3.3867 0.3094,4.98559 0.0617,0.21127 0.16542,0.41237 0.22109,0.62236 0.0152,0.58455 0.0351,1.17054 0.11353,1.75046 -0.0929,0.0667 -0.13279,0.23548 -0.0448,0.31739 0.11375,0.0205 0.11569,0.0899 0.13072,0.19799 0.15855,0.775 0.47954,1.5755 1.13851,2.05673 0.39733,0.29632 0.88851,0.44405 1.37862,0.4818 1.80297,1.12041 3.88029,1.75866 5.98714,1.96442 2.13653,0.5336 4.39365,0.50303 6.47388,1.26433 0.72784,0.28634 1.45324,0.60388 2.21571,0.80277 0.8689,0.23009 1.80985,0.3746 2.68702,0.10574 0.65981,-0.19671 1.20052,-0.70309 1.4842,-1.32506 0.19188,-0.44051 0.3162,-0.94542 0.19607,-1.42223 -0.11938,-0.47154 -0.55695,-0.77729 -1.00132,-0.91097 -0.89089,-0.28003 -1.83755,-0.23584 -2.75623,-0.34146 -0.53978,-0.0622 -1.1026,-0.22387 -1.65642,-0.32549 -1.48083,-0.30372 -2.97289,-0.55331 -4.47228,-0.74641 -0.75906,-0.35021 -1.59805,-0.47455 -2.42255,-0.54764 0.0144,-0.131 -0.15771,-0.20755 -0.23922,-0.0993 -0.0539,0.12278 -0.18661,0.0529 -0.2887,0.0577 -1.07095,-0.0819 -2.1596,-0.14877 -3.13586,-0.63786 -0.18022,-0.11206 -0.40418,-0.0801 -0.6025,-0.14332 -0.83233,-0.17698 -1.57971,-0.70216 -2.02654,-1.42675 -0.56683,-0.9006 -0.74647,-1.99675 -0.68849,-3.04647 0.0639,-0.0501 0.0682,-0.17524 0.0379,-0.23696 -0.0294,-0.0823 -0.0323,-0.20758 -0.0629,-0.30527 -0.28988,-1.45234 -0.15832,-2.9397 0.073,-4.384929 0.16347,-1.02604 0.36429,-2.04657 0.51934,-3.07355 0.19239,-0.62206 0.0846,-1.28337 0.0199,-1.91693 -0.0617,-0.61025 -0.16885,-1.22097 -0.0304,-1.82793 0.0767,-0.35666 0.35017,-0.66104 0.70639,-0.75351 0.20764,-0.0565 0.42939,-0.1041 0.63748,-0.028 0.4931,0.11354 1.04943,-0.004 1.40839,-0.37414 0.48794,-0.49143 0.65566,-1.21104 0.67433,-1.88346 0.01,-0.69606 -0.13087,-1.42849 -0.55535,-1.99592 -0.75343,-0.42616 -1.61475,-0.6656 -2.29352,-1.21833 -0.379,-0.30128 -0.62104,-0.77273 -0.60409,-1.26098 -0.002,-0.42869 0.17508,-0.83388 0.17467,-1.26312 0.057,-1.14976 -0.24727,-2.28705 -0.11633,-3.43149 0.0574,-0.54129 0.30063,-1.09312 0.77365,-1.39334 0.1324,-0.0998 0.31496,-0.045 0.47034,-0.0733 2.43177,-0.13655 4.85987,-0.35174 7.29795,-0.28077 2.10191,-0.11296 4.20112,-0.28848 6.29336,-0.51943 0.95618,-0.13785 1.89159,-0.4211 2.86734,-0.37383 0.49477,0.0205 1.03071,0.19919 1.30372,0.64034 0.0985,0.15895 0.18188,0.33812 0.20835,0.52224 -0.37411,1.88085 -0.14469,3.80545 -0.18169,5.70672 -0.1316,4.87335 -0.0359,9.74928 -0.12355,14.62315 0.4661,3.692319 0.55623,7.425829 0.43987,11.147509 -0.29741,2.71182 -0.34876,5.44431 -0.64174,8.15673 -0.33253,0.92654 -0.0816,1.98628 0.50298,2.75614 0.59885,0.81511 1.59703,1.38021 2.62562,1.30066 0.14718,0.005 0.22959,-0.15132 0.35516,-0.21016 0.56021,-0.38828 1.24464,-0.49519 1.88432,-0.68544 -0.0602,0.0845 -0.004,0.15052 0.0721,0.19571 0.12102,0.0855 0.23885,-0.0768 0.17722,-0.18992 -0.0936,-0.0929 0.0275,-0.0975 0.10191,-0.1368 0.35577,-0.15329 0.65752,-0.43217 0.82164,-0.78487 2.24825,-0.98494 4.56412,-1.80382 6.87436,-2.62813 2.07857,-0.45666 4.15482,-0.97258 6.12599,-1.78734 2.2768,-0.68648 4.61352,-1.19992 6.81127,-2.12591 3.04233,-0.94957 6.10044,-1.84768 9.14801,-2.7802 -0.0773,0.0978 0.11244,0.10584 0.18302,0.11706 0.10454,0.002 0.17083,-0.12246 0.12323,-0.21166 0.62788,-0.19753 1.25625,-0.39314 1.89572,-0.55021 4.57212,-1.22041 9.0783,-2.67935 13.52414,-4.29697 2.95956,-0.92006 5.86169,-2.01514 8.71634,-3.2202 6.86653,-2.40459 13.91487,-4.468519 21.16987,-5.240309 0.96997,0.0479 1.9311,-0.36011 2.61636,-1.03916 0.70795,-0.68879 1.17198,-1.60883 1.36425,-2.57363 1.07627,-2.06211 2.58362,-3.86136 3.82591,-5.83202 1.54242,-1.81765 2.80747,-3.8773 4.5663,-5.49952 2.21018,-2.26735 4.43575,-4.52166 6.5562,-6.87392 1.85221,-1.8260602 3.33314,-4.0105502 5.33923,-5.6838402 0.61004,-0.50918 1.2692,-0.96189 1.97557,-1.32706 0.78406,-0.0505 1.58152,-0.50981 1.87663,-1.26185 0.18522,-0.45096 0.0773,-0.99691 -0.2633,-1.34526 -0.33418,-0.36763002 -0.81366,-0.54266002 -1.27479,-0.68987002 -3.2359,-1.1524 -6.05512,-3.15109998 -8.97967,-4.91464998 -0.54574,-0.34571 -1.1389,-0.60572 -1.71273,-0.89993 -2.51736,-1.24609 -5.06342,-2.4349 -7.57737,-3.68841 -2.90416,-1.2550598 -5.63357,-2.8560498 -8.44857,-4.2966598 -2.55079,-0.98544 -5.04387,-2.15039 -7.37709,-3.59105 -1.34844,-0.61727 -2.34413,-1.77734 -3.65803,-2.46731 -0.6415,-0.33858 -1.37937,-0.54014 -2.10658,-0.45478 -2.01775,0.59436 -4.00312,1.29251 -5.98531,1.99498 -0.59614,0.23155 -1.15571,0.55603 -1.784,0.67321 -0.3038,0.0637 -0.67109,0.004 -0.85227,-0.27297 -0.17318,-0.24554 -0.22787,-0.55049 -0.26361,-0.84278 -0.35926,-0.46394 -0.92129,-0.74801 -1.50409,-0.78866 -1.06545,-0.0917 -2.10363,0.31816 -3.15332,0.33288 -0.16262,0.0126 -0.31798,-0.0187 -0.46694,-0.0818 -1.05396,-0.34228 -2.17428,-0.1855 -3.25944,-0.16429 -0.59193,0.0109 -1.16038,-0.0185 -1.72637,-0.19316 -0.26858,-0.11303 -0.56578,-0.096 -0.84928,-0.14358 -1.95597,-0.23301 -3.91743,-0.55728 -5.89399,-0.45616 -1.24952,-0.499 -2.6137,-0.50356 -3.92662,-0.68601 -0.66445,-0.0877 -1.30572,-0.24199 -1.92593,-0.49834 -1.69205,-0.61475 -3.52333,-0.54042 -5.28453,-0.7322 -0.53853,-0.0589 -1.06836,-0.14372 -1.5907,-0.28056 0.13738,-0.0512 0.2078,-0.24697 0.0699,-0.33996 -0.24711,-0.16204 -0.56242,-0.17461 -0.84948,-0.1708 -0.13702,-0.008 -0.26417,0.0587 -0.39318,0.0748 -1.88651,-0.0118 -3.65414,-0.69884 -5.49494,-1.06128 -0.4995,-0.10672 -0.99856,-0.12719 -1.50066,-0.21797 -1.50848,-0.24163 -3.00365,-0.61539 -4.53612,-0.69926 -2.07136,-0.32009 -4.14635,-0.65235 -6.24135,-0.76511 -2.15449,-0.0213 -4.30204,-0.30996 -6.46035,-0.25235 -0.48375,0.0946 -0.99032,-0.0548 -1.37687,-0.33639 -0.81897,-0.57443 -1.37049,-1.48641 -2.29174,-1.92272 -0.30232,-0.14202 -0.6381,-0.21438 -0.97221,-0.20072 z m 2.02785,4.41813 c 0.9076,-10e-4 1.81758,0.2362 2.73558,0.1446 0.20137,-0.01 0.38976,-0.11179 0.59228,-0.071 2.29008,0.15132 4.57834,0.33894 6.86182,0.56616 2.5065,0.46532 5.07299,0.58257 7.54012,1.23405 3.47534,0.33948 6.80521,1.50709 10.27589,1.88868 3.20161,0.9054 6.49345,1.47251 9.80543,1.77124 2.31913,0.52797 4.70876,0.61129 7.04437,1.02208 0.66985,0.24897 1.39844,0.2104 2.1008,0.24062 0.59064,0.0246 1.20778,0.0268 1.76462,0.26686 0.36015,0.14735 0.62359,0.49221 0.66253,0.88066 0.0336,0.19768 0.0152,0.39576 -0.0398,0.58701 -0.14763,0.68808 0.0961,1.4303 0.59975,1.91663 0.7827,0.78204 2.08632,1.01461 3.066,0.47489 0.4784,-0.19005 1.05775,-0.2261 1.50262,0.0692 0.56221,0.37071 0.87027,1.00033 1.14898,1.59113 0.35688,0.76852 0.61227,1.5903798 1.0792,2.3033598 0.1617,0.2537 0.24891,0.54887 0.38147,0.81885 1.38711,3.11691 3.03578,6.11646 4.91501,8.96369 -0.0524,0.077 -0.0562,0.17314 0.029,0.22761 0.0917,0.0471 0.17975,-7.4e-4 0.19651,0.14549 0.74591,1.81687 1.77169,3.49688 2.62436,5.26029 0.21198,1.12606 0.85935,2.09979 1.51562,3.01462 0.58748,0.8246202 1.2058,1.6528802 1.53866,2.6202302 0.98167,1.3808 2.13781,2.67029 2.79441,4.25214 0.13016,0.30278 0.22102,0.62317 0.32148,0.934 1.07677,1.34408 1.68867,2.99437 2.77959,4.32764 0.72252,0.68643 1.08236,1.64318 1.37842,2.57188 0.3241,1.00789 0.63317,2.06036 1.31802,2.89291 0.24518,0.31395 0.47681,0.67391 0.41941,1.08619 -0.0801,0.44932 -0.52558,0.71444 -0.89486,0.8858 -0.11148,0.0414 -0.20746,0.0821 -0.31703,0.12663 -0.68379,0.24368 -1.40382,0.34121 -2.11201,0.5167 -1.86997,0.43631 -3.71766,0.96504 -5.58381,1.41659 -2.07693,0.70508 -4.21879,1.19412 -6.34736,1.72395 -0.11387,-0.066 -0.18795,0.0783 -0.30014,0.0743 -1.40255,0.35144 -2.80214,0.721809 -4.17128,1.188009 -0.0449,-0.13268 -0.23212,-0.093 -0.25986,0.0312 -0.0279,0.12273 -0.19464,0.10366 -0.28765,0.15993 -0.51194,0.18822 -1.00303,0.38071 -1.51869,0.55651 -1.54368,0.55555 -3.07101,1.15518 -4.60196,1.74489 -0.0289,-0.12953 -0.19228,-0.09 -0.24986,-10e-4 -0.0869,0.0897 -0.052,0.15107 -0.20609,0.1771 -1.47676,0.57176 -2.96429,1.11634 -4.46524,1.62132 -0.10016,-0.0531 -0.14588,0.0871 -0.2462,0.085 -0.52483,0.17607 -1.05055,0.36057 -1.57869,0.5199 -0.091,7.4e-4 -0.16388,0.0803 -0.25913,0.0889 -2.94591,0.94369 -5.92667,1.78494 -8.88636,2.68822 -2.07606,0.40661 -3.99725,1.37645 -6.08856,1.70698 -0.0525,-0.0881 -0.17744,-0.0381 -0.22943,0.0326 -0.28734,0.0427 -0.57977,0.0534 -0.86768,0.0761 -3.19732,1.23245 -6.51842,2.12084 -9.78658,3.15358 -0.1053,-0.002 -0.18922,0.0807 -0.2965,0.0937 -2.10529,0.60892 -4.31529,0.88176 -6.33257,1.77441 -1.73875,0.74843 -3.48253,1.50914 -5.22705,2.22886 -0.067,-0.12217 -0.23592,-0.0465 -0.24465,0.0768 -0.0601,0.0884 -0.20704,0.097 -0.30196,0.15334 -0.87646,0.3643 -1.75683,0.71916 -2.63923,1.0688 -0.50447,-0.26539 -0.75179,-0.83074 -0.83449,-1.37 -0.14887,-0.91032 -0.0269,-1.83822 -0.14324,-2.75167 -0.22153,-2.67215 0.0715,-5.35688 0.0861,-8.03422 -0.14049,-2.15404 -0.0719,-4.3281 0.19212,-6.468059 -0.60312,-2.59271 -0.61961,-5.26367 -0.76217,-7.913 -0.0768,-1.13978 -0.0926,-2.28292 -0.11358,-3.42503 -0.0212,-1.37445 0.002,-2.74967 0.0832,-4.12195 0.0405,-1.24259 -0.24553,-2.47514 -0.0702,-3.71282 0.0982,-0.75869 0.47143,-1.48133 1.06017,-1.97474 0.13411,-0.14575 0.34399,-0.19584 0.44901,-0.37145 0.27411,-0.43172 0.30466,-0.95968 0.39403,-1.45041 0.0285,-0.14457 0.0416,-0.31869 0.11034,-0.45251 0.16513,0.19336 0.18672,0.46432 0.34072,0.66677 0.19695,0.33184 0.59409,0.55251 0.98192,0.46671 0.56938,-0.118 0.99674,-0.60835 1.19009,-1.13723 0.19418,-0.5114202 0.1193,-1.1230302 -0.23154,-1.5500302 0.0379,-0.67773 -0.30268,-1.41028 -0.9336,-1.70795 -0.35956,-0.17947 -0.81659,-0.0881 -1.08982,0.20322 -0.19303,0.19917 -0.34512,0.44989 -0.41752,0.71576 -0.003,0.30899 -0.0854,0.70255 -0.41702,0.8142 -0.38833,0.10158 -0.77446,-0.12437 -1.0582,-0.37034 -0.39189,-0.34341 -0.68848,-0.89667 -0.52405,-1.42381 0.0401,-0.15544 0.14665,-0.2827 0.22505,-0.41513 0.31824,-1.39659 0.12896,-2.8349 0.0154,-4.24362 -0.0299,-0.43653 -0.0718,-0.89465 -0.056,-1.31802 0.12724,0.0623 0.19857,-0.11164002 0.1457,-0.21094002 -0.005,-0.1188 -0.17468,-0.0452 -0.14705,-0.13791 0.009,-0.3021 0.036,-0.6184 0.0833,-0.92476 0.15885,0.0466 0.19469,-0.21823 0.0765,-0.2885 -0.0902,-0.0537 0.004,-0.20352 -0.01,-0.29878 0.0948,-0.91785998 0.15792,-1.84520998 0.20683,-2.76274998 0.12326,0.0528 0.18931,-0.1141 0.12604,-0.20645 -0.0579,-0.0639 -0.0813,-0.12445 -0.10825,-0.20782 -0.004,-0.0891 0.0854,-0.18749 0.0542,-0.26838 -0.0878,-0.0601 -0.0201,-0.1896 -0.0355,-0.28309 -0.003,-0.28473 0.0177,-0.56729 0.0766,-0.84626 0.0971,-0.60275 0.20499,-1.20363 0.28852,-1.80841 0.10869,-0.0564 0.0574,-0.19265 0.0374,-0.2819 0.0442,-0.35001 0.0808,-0.70121 0.10168,-1.05332 0.10311,0.0745 0.16238,0.016 0.1631,-0.0979 0.004,-0.0983 -0.0531,-0.21867 -0.14787,-0.22834 0.0245,-0.82223 -0.0302,-1.6573998 -0.26179,-2.4496098 -0.60923,-1.63745 -1.365,-3.25342 -1.57221,-5.00642 -0.0581,-0.4063 -0.045,-0.81734 -0.0644,-1.22564 -0.13859,-1.65857 -0.87921,-3.18169 -1.40565,-4.73157 -0.068,-0.20083 -0.13208,-0.4029 -0.19205,-0.60627 0.15955,-0.3853 0.5583,-0.61124 0.95833,-0.66229 0.16449,-0.0289 0.33198,-0.0355 0.49868,-0.038 z m -6.73485,0.4469 c 0.90428,-0.007 1.81141,0.40223 2.36521,1.12457 0.28654,0.35799 0.47746,0.783 0.60607,1.22041 0.61866,1.06068 0.98077,2.25368 1.24978,3.43216 0.27764,1.20012 0.47434,2.42539 0.79165,3.61805 0.4559,1.6266 1.24983,3.151 1.55008,4.8219098 0.13831,2.50835 -0.18142,5.00424 -0.38038,7.50046 -0.0757,3.27439 -0.45968,6.5379 -0.41056,9.81756 -0.34103,0.15912 -0.70779,0.23274 -1.08924,0.23632 -2.95988,0.16413 -5.88541,0.68993 -8.84414,0.84919 -2.23023,0.34394 -4.49884,0.17972 -6.73557,0.48131 -0.49402,0.1631502 -1.08206,0.1873702 -1.52129,-0.13173 -0.5457,-0.39032 -0.83093,-1.02234 -1.16802,-1.58007 -0.20104,-0.34151 -0.41786,-0.67673 -0.67425,-0.97887 -0.30831,-0.33988 -0.79926,-0.42364 -1.23573,-0.36127 -0.51936,0.0548 -1.00278,0.26436 -1.52449,0.25318 -0.26585,-5.5e-4 -0.49587,-0.19554 -0.56797,-0.44695 -0.0652,-0.14719 -0.0725,-0.30459 -0.0413,-0.46054 0.13735,-1.31542 -0.19136,-2.61554 -0.35483,-3.91077 0.0277,-0.13696 -0.054,-0.25621 -0.0497,-0.3918 0.10179,0.0669 0.21783,-0.0452 0.17542,-0.15331 -0.0165,-0.0912 -0.11017,-0.18486 -0.20296,-0.13665 -0.0591,-0.91948002 -0.0763,-1.85553002 -0.0739,-2.7828 0.10804,0.0262 0.24301,-0.074 0.16962,-0.18593 -0.0459,-0.0819 -0.20251,-0.0681 -0.17053,-0.18115 -3.7e-4,-0.31875 -0.003,-0.6375 -0.01,-0.95618 0.0534,-0.0497 0.13742,-0.16923 0.0589,-0.22388 -0.0761,-0.0412 -0.0738,-0.11198 -0.0713,-0.19105 0.002,-0.10004 -0.0222,-0.23986 -0.003,-0.31612 0.1007,0.0882 0.14061,-0.0324 0.14026,-0.12032 -3.7e-4,-0.0976 -0.0489,-0.18144 -0.13881,-0.22254 -0.0653,0.0502 -0.0264,-0.19725 -0.0503,-0.26566 -0.031,-0.29394 -0.0399,-0.59429 -0.1053,-0.88214 -0.21297,-0.59359 -0.2153,-1.2588 0.0127,-1.84849 0.20022,-0.55174 0.52048,-1.04986 0.75679,-1.58413 0.15243,-0.54435 0.027,-1.13621 -0.27519,-1.60642 -0.42003,-0.6965498 -1.09231,-1.2475898 -1.32777,-2.0487398 -0.0755,-0.30205 -0.0949,-0.61462 -0.14977,-0.92096 -0.0194,-0.16056 -0.0548,-0.34179 -0.0584,-0.49088 0.19873,0.0183 0.18797,-0.31004 0.009,-0.33054 -0.10617,0.027 -0.0459,-0.16831 -0.0766,-0.23843 -0.1435,-1.47539 -0.18633,-2.95867 -0.33334,-4.43377 -0.28533,-0.45728 -0.47953,-0.98191 -0.3799,-1.52422 0.099,-0.5516 0.51323,-0.99725 0.97419,-1.26964 0.30387,-0.18387 0.61517,-0.30841 0.96329,-0.39935 0.47721,-0.12918 0.97738,-0.15824 1.46805,-0.12456 0.84243,-0.21976 1.6991,-0.34101 2.56572,-0.4237 0.0838,0.0917 0.15912,-0.0454 0.25409,-0.0228 1.44106,-0.12284 2.89068,-0.1627 4.32359,-0.36688 2.74183,0.0694 5.47869,-0.20552 8.19214,-0.57156 0.44492,-0.17259 0.91985,-0.27151 1.39793,-0.27037 z m -14.02857,1.09565 c -0.0831,0.14816 -0.18263,-0.079 -0.0418,-0.0287 0.0139,0.01 0.0279,0.0192 0.0418,0.0287 z m 50.67372,2.09055 c -0.0656,0.0471 0.001,-0.0744 0,0 z m 3.63165,1.16198 c 0.0397,0.16256 -0.21782,-0.0299 0,0 z m 32.26108,2.04235 c 1.0893,0.021 2.09319,0.50298 3.06576,0.94438 0.33357,0.14352 0.65606,0.30844 0.97117,0.48864 1.9504,1.04812 4.04895,1.78694 5.99675,2.84085 2.84634,1.26883 5.66216,2.6047098 8.4656,3.9654498 0.0244,0.0733 0.10814,0.18937 0.21058,0.16564 0.0452,0.0771 0.14363,0.0473 0.20263,0.0341 0.38857,0.18996 0.78389,0.3768 1.16774,0.56963 -0.0502,0.0852 0.0786,0.15432 0.14832,0.17544 0.0993,-0.0529 0.16852,-0.0436 0.27221,0.0276 0.1107,0.0255 0.12642,0.11974 0.21823,0.17559 0.0594,0.0696 0.14008,0.004 0.19849,0.0273 1.50122,0.73481 3.00713,1.4622 4.5075,2.20004 0.71245,0.38352 1.42726,0.76241 2.1418,1.14205 -0.11366,0.0596 -0.064,0.15403 0.0257,0.20405 0.0733,0.0417 0.1665,-0.0133 0.19644,-0.0859 1.57888,0.83629 3.15575,1.67688 4.70919,2.5599 0.49501,0.50465998 1.18264,0.74008998 1.82323,0.99955998 0.22789,0.0907 0.45353,0.17634 0.67216,0.27298 -0.0395,0.14974 0.2209,0.28118 0.28705,0.13337 0.4327,0.21518 0.90494,0.51136 1.0329,1.01042002 0.0517,0.21891 0.0452,0.46039 -0.0292,0.67095 -0.42999,0.53593 -0.84408,1.08456 -1.26313,1.62915 -0.0559,-0.11776 -0.21853,-0.051 -0.22394,0.0654 -0.0351,0.10607 0.11823,0.16641 -0.0235,0.25356 -0.0662,0.0777 -0.12797,0.1801 -0.19728,0.24278 -0.13613,-0.079 -0.23036,0.10038 -0.27037,0.20695 -0.082,0.10737 0.0461,0.15496 -0.0813,0.24274 -0.44969,0.55665 -0.93244,1.08618 -1.43797,1.59205 -1.35645,1.67439 -2.84432,3.2234 -4.32256,4.7886902 -0.52156,0.52884 -1.04974,1.05127 -1.58818,1.56294 -0.077,-0.1108 -0.2372,-0.0347 -0.25299,0.0844 -0.0178,0.10082 0.0648,0.14632 -0.0706,0.22284 -0.0922,0.0814 -0.18698,0.18299 -0.27765,0.25233 -0.048,-0.11205 -0.20566,-0.0667 -0.22073,0.045 -0.0321,0.0866 0.0633,0.21072 -0.0798,0.2084 -0.0737,-0.10114 -0.15935,0.0283 -0.16245,0.11052 0.0285,0.10629 -0.11464,0.14728 -0.17057,0.22418 -0.32985,0.29716 -0.66697,0.59597 -1.00401,0.8889 -0.0962,-0.11409 -0.24164,0.009 -0.26955,0.12101 -0.055,0.0889 0.12858,0.12846 -0.0185,0.21115 -0.0878,0.0909 -0.15269,0.20902 -0.27371,0.25173 -0.10092,0.0694 -0.0485,0.15208 -0.15269,0.22045 -0.37959,0.39593 -0.79475,0.79786 -1.20429,1.13616 -0.002,-0.11217 -0.15112,-0.18971 -0.21637,-0.0819 -0.0547,0.0766 -0.06,0.17581 0.0268,0.23087 -0.0284,0.0716 -0.15775,0.14234 -0.2276,0.21246 -0.63226,0.52604 -1.28526,1.02634 -1.93216,1.53413 -0.73078,1.44336 -1.59417,2.81945 -2.41421,4.2159 -0.0595,-0.0983 -0.15917,-0.0777 -0.19029,0.0293 -0.0425,0.0812 0.0414,0.15991 0.04,0.22732 -0.0963,0.20097 -0.24265,0.36537 -0.38389,0.53479 -0.57239,0.72162 -0.98186,1.55883 -1.54036,2.28745 -0.0926,0.1175 -0.18055,0.24938 -0.28783,0.36126 -0.31507,0.35887 -0.68652,0.6715 -1.13004,0.87511 -0.16221,0.0876 -0.34531,0.14019 -0.5285,0.0887 -0.42217,-0.089 -0.64779,-0.50373 -0.81424,-0.86332 -0.18887,-0.41721 -0.34246,-0.85706 -0.62506,-1.22364 -0.95106,-1.44197 -1.31249,-3.19144 -2.32022,-4.6014 -0.8459,-1.63813 -2.01315,-3.08764 -2.9047,-4.68997 -0.86109,-2.01164 -2.17076,-3.78388 -3.10962,-5.7537102 -1.70602,-2.63116 -2.92548,-5.52442 -4.44205,-8.2629 -1.47387,-3.51727 -3.72234,-6.6361 -5.42572,-10.03305 -0.2275,-1.3629 -1.11145,-2.4825498 -1.54738,-3.7724398 -0.14562,-0.43568 -0.23102,-0.89884 -0.18798,-1.35897 1.86498,-1.093 4.05231,-1.51754 5.91356,-2.63059 0.45831,-0.27843 0.99435,-0.4155 1.5295,-0.40883 z m -63.88138,7.6427498 c -0.0229,0.14262 -0.20472,-0.003 -0.0365,-0.01 0.0122,0.003 0.0243,0.007 0.0365,0.01 z m -26.40624,1.00034 c 0.0446,0.0346 0.0238,0.0467 0,0 z m 85.31931,1.56138 c 0.0824,0.0526 -0.15343,-0.0227 -0.002,0 z m -60.5995,0.18412 c -0.008,0.14998 -0.20965,-0.0384 -0.0197,-0.004 l 0.0182,0.003 z m 1.24353,0.75533 c 0.0218,0.13722 -0.21755,-0.009 -0.031,-0.007 l 0.0182,0.003 z m 28.55298,2.21631 c -0.54949,0.0124 -1.09761,0.0586 -1.63986,0.14902 -1.69245,0.23639 -3.42814,0.41364 -5.00947,1.10611 -1.39028,0.29016 -2.62224,1.07248 -3.6782,1.99713998 -0.70381,0.61509 -1.35259,1.29076002 -1.9878,1.97519002 -0.63079,1.04885 -1.32328,2.05838 -1.99524,3.08074 -0.0946,-0.0947 -0.22676,0.0243 -0.20441,0.13817 0.0406,0.11229 0.0211,0.17241 -0.0672,0.27921 -0.82989,1.28545 -1.61997,2.61225 -2.15343,4.05143 -0.81151,2.9598402 -1.14157,6.0500602 -0.98986,9.1153602 0.43527,3.83372 1.62377,7.61751 3.70832,10.88117 0.27781,0.42619 0.51407,0.87846 0.81356,1.291 1.28218,1.83469 3.01017,3.290219 4.7301,4.696529 1.99233,1.27151 3.95204,2.64348 6.16869,3.50337 0.41359,0.15899 0.83438,0.29945 1.26131,0.41823 1.41837,-0.49914 2.97738,-0.61394 4.3964,-1.17394 2.5367,-0.67097 5.03298,-1.50512 7.4387,-2.55556 1.22136,-1.04562 2.84411,-1.47914 4.04306,-2.555639 0.37662,-0.34348 0.711,-0.7551 0.9046,-1.22786 0.0803,-0.97556 -0.27591,-1.93648 -0.81348,-2.7371 -0.64505,-0.97628 -1.50261,-1.7814 -2.30531,-2.6241 -0.26617,-0.0716 -0.58073,-0.17651 -0.83687,-0.021 -0.22041,0.15936 -0.16274,0.47054 -0.0882,0.69195 0.22826,0.65606 0.64881,1.21878 0.98059,1.82302 0.0577,0.49533 -0.10038,1.00366 -0.41724,1.37793 -0.56441,0.6781 -1.3783,1.06386 -2.09336,1.55468 -0.30594,0.19632 -0.58634,0.43088 -0.84969,0.67856 -2.30878,1.433979 -4.95184,2.190039 -7.59539,2.760399 -1.14018,0.28072 -2.22488,0.82437 -3.41309,0.88258 -0.60705,0.0341 -1.21865,-0.11279 -1.74665,-0.41356 -1.64467,-0.84911 -3.12992,-1.982319 -4.62211,-3.076909 -1.37531,-1.1997 -2.69723,-2.49329 -3.70358,-4.02558 -0.68082,-1.09856 -1.20715,-2.30319 -1.5824,-3.53139 0.0782,-0.0913 0.0253,-0.26881 -0.0928,-0.28886 -0.52054,-1.75577 -0.80078,-3.55749 -0.99993,-5.3736 -0.002,-2.23657 0.16354,-4.4894 0.71997,-6.65459 0.36086,-1.4092 0.89837,-2.78394 1.64672,-4.0402002 0.97617,-1.55759 1.97467,-3.16975 3.21374,-4.54426 0.58805,-0.64605 1.21627,-1.24461 1.93503,-1.74429 2.13772,-1.37128 4.67698,-2.07132002 7.202,-2.11085002 2.88626,-0.0465 5.80011,0.75645002 8.1719,2.42785002 2.03897,1.47444 3.66625,3.45107 4.90418,5.62811 1.28865,2.2613602 2.18738,4.7199502 2.86528,7.2188002 0.21507,0.77414 0.3847,1.55981 0.5899,2.33632 0.53134,2.18926 0.44945,4.45923 0.21405,6.68812 -0.15509,1.48025 -0.38075,2.96238 -0.53576,4.44617 0.0188,1.41142 -0.45191,2.81799 -0.25954,4.23803 0.0272,0.19845 0.0718,0.39406 0.12751,0.586329 0.3724,0.26218 0.8755,0.37721 1.30409,0.18553 0.56829,-0.24651 0.9276,-0.798869 1.17612,-1.342829 0.2983,-0.68021 0.4581,-1.43464 0.3821,-2.1772 0.20792,-3.05372 0.63796,-6.08132 1.07197,-9.1095 -0.19961,-2.58211 -0.49258,-5.19092 -1.36924,-7.64301 -0.15078,-0.41138 -0.30388,-0.82637 -0.4995,-1.21753 -0.56418,-0.6737 -0.77853,-1.54777 -0.99749,-2.37395 -0.22156,-0.8454102 -0.47445,-1.7342502 -1.09994,-2.3783602 -0.0748,-0.0887 -0.18329,-0.15634 -0.24927,-0.24451 -0.12632,-0.93905 -0.63119,-1.77818 -1.24233,-2.48353 -0.51115,-0.60906 -1.09644,-1.16217 -1.58028,-1.78407 -1.2416,-2.06098 -3.0528,-3.81680002 -5.26015,-4.80957 -0.37455,-0.181 -0.77941,-0.29013 -1.14548,-0.48878 -2.12364,-1.01969 -4.49115,-1.51732 -6.84531,-1.45489 z m 65.0122,0.0315 c -0.011,0.15079 -0.20894,-0.0409 -0.0154,-0.003 z m -120.11639,1.03513 c -0.0678,0.15349 -0.16707,-0.0557 0,0 z m 122.18373,0.0699 c 0.0742,0.0824 -0.13993,0.11784 -0.0641,-0.013 0.0237,-0.007 0.0433,0.003 0.0641,0.013 z m -96.10297,1.00033 c -0.024,0.14244 -0.20587,-0.005 -0.0375,-0.01 0.0125,0.003 0.025,0.007 0.0375,0.01 z m 60.55347,1.19821998 c 0.0403,0.16141 -0.21819,-0.0304 0,0 z m -86.5893,0.0301 c 0.0964,0.1018 -0.0618,0.16545 -0.0569,0.004 0.0163,-0.0109 0.039,-0.0109 0.0569,-0.004 z m 0.0413,0.25154 c -0.10706,0.0859 -0.12503,-0.035 0,0 z m 26.03873,0.28668 c 0.0146,0.13687 -0.21662,-0.0124 -0.0336,-0.008 l 0.0182,0.004 z M 336.22413,1.4846488 c 0.0514,0.16064 -0.22444,-0.023 0,0 z m 0.42767,2.87813 c -0.0154,0.14687 -0.20537,-0.002 -0.0346,-0.009 l 0.0179,0.004 z m -0.0442,0.77779 c 0.0218,0.13748 -0.21738,-0.009 -0.031,-0.007 l 0.0182,0.003 z m 123.86438,0.3657 c 0.0932,0.1249 -0.13034,0.0199 -0.0186,-0.004 l 0.0179,0.004 z m -80.74062,1.13408 c 0.0545,0.15781 -0.22928,-0.022 0,0 z m 77.81319,2.23009 c -0.12316,0.0892 -0.0115,-0.086 0,0 z m -79.12595,0.78359 c -0.003,0.15783 -0.15155,0.003 0,0 z m -36.62269,0.5802702 c 0.0348,0.16459 -0.21344,-0.0332 0,0 z m 34.86014,3.77734 c -0.0129,0.14292 -0.20825,-0.003 -0.0307,-0.009 l 0.0178,0.005 z m 75.19675,0.826 c -0.0155,0.15017 -0.2078,-0.042 -0.0219,-0.004 l 0.0182,0.003 z m -75.29206,1.57118 c -0.0645,0.12933 -0.14864,-0.0316 0,0 z m -1.06703,2.15469 c -0.002,0.12218 -0.10971,-0.0369 0,0 z m 71.70717,0.51286 c 0.028,0.15377 -0.19627,0.0183 0,0 z m -70.74779,1.84808 c -0.0571,0.0641 0.0771,0.0268 -0.0737,0.0721 -0.055,-0.0513 0.0281,-0.0907 0.0737,-0.0721 z m 0.34794,0.63317 c 0.0356,0.16529 -0.21341,-0.0337 0,0 z m 0.14896,1.02498 c 0.0356,0.16529 -0.21341,-0.0337 0,0 z m 0.50887,2.3102 c 0.0224,0.13684 -0.21797,-0.009 -0.031,-0.007 l 0.0182,0.003 z m 65.53955,0.66906 c 0.0991,0.12996 -0.0974,0.12749 -0.0439,-0.002 0.0143,-0.008 0.0301,-0.002 0.0439,0.002 z m -38.86547,1.46679 c 0.0391,0.11781 -0.21463,0.0251 -0.0493,-0.01 0.0164,0.003 0.0328,0.007 0.0493,0.01 z m -0.16781,1.25005 c 0.0741,0.0709 -0.13355,0.12515 -0.067,0.003 -0.0109,-0.0375 0.0556,-0.0111 0.067,-0.003 z m 33.23751,1.18736 c 0.0247,0.14875 -0.17575,-0.0109 -0.0177,-0.002 z m 13.76836,1.29825 c -0.0907,0.0151 -0.1614,0.17514 -0.0833,0.24013 0.0568,0.10859 0.23341,0.0782 0.22787,-0.0524 0.007,-0.0819 -0.0434,-0.21704 -0.14461,-0.18774 z m -110.86587,5.054949 c 0.074,0.0706 -0.13276,0.12486 -0.0663,0.003 -0.0109,-0.0376 0.0549,-0.0109 0.0663,-0.003 z m 48.49584,1.66396 c -0.0312,0.14228 -0.20329,-0.009 -0.0397,-0.0111 0.0132,0.003 0.0265,0.008 0.0397,0.0111 z m -0.0594,0.19969 c 0.0783,0.0912 -0.103,-0.0186 0,0 z m -48.04242,0.92133 c -0.13285,0.0537 7.4e-4,-0.03 0,0 z m 66.36772,0.14208 c -0.003,0.16808 -0.20721,-0.05 -0.0197,-0.004 l 0.0183,0.003 z m -62.12858,5.12996 c -0.0688,0.015 -0.0717,-0.0183 0,0 z m 5.89762,0.94271 c 0.0391,0.16157 -0.21809,-0.0294 0,0 z m 0.90646,0.18666 c 0.0742,0.0824 -0.13993,0.11785 -0.0641,-0.013 0.0237,-0.007 0.0434,0.003 0.0641,0.013 z m 27.92124,1.9887 c 0.0218,0.13607 -0.21747,-0.009 -0.031,-0.007 l 0.0182,0.003 z m -0.53423,0.13917 c 3.7e-4,0.0125 -0.007,-0.0113 0,0 z"
       inkscape:export-filename="space\rocket_outline.png"
       inkscape:export-xdpi="45"
       inkscape:export-ydpi="45" />
  </g>
  <g
     inkscape:groupmode="layer"
     id="layer9"
     inkscape:label="Stars">
    <path
       id="path10383"
       style="fill:#ffffff;fill-opacity:1;stroke-width:0.0205359"
       d="m 246.42773,1.5253906 c -0.68027,0.05021 -1.04921,0.7957098 -0.91406,1.3984375 -0.80095,1.7024936 -1.25698,3.5409431 -1.99668,5.2714187 -0.69085,2.1232652 -1.98537,3.9811192 -2.65371,6.1133472 -0.4408,-1.042042 -1.11597,-1.970177 -1.37339,-3.083721 -0.14196,-0.384691 -0.52942,-0.668188 -0.46645,-1.101826 -0.18549,-0.3899808 -0.44238,-0.7211675 -0.42969,-1.1777345 -0.16872,-0.4396719 -0.0664,-0.827872 0.19531,-1.1933594 0.3235,-0.7971622 -0.50394,-1.4171235 -1.23038,-1.4437667 -0.52847,-0.1316423 -0.50549,0.5923643 -0.73075,0.8962386 -0.86346,1.2396819 -0.50909,2.905207 0.20137,4.129559 0.48961,1.048407 0.77055,2.182945 1.33398,3.197266 -1.14391,-0.552424 -2.43855,-0.722139 -3.54717,-1.360164 -0.97237,-0.285292 -2.40576,-0.308084 -2.88642,0.782039 -0.26547,0.469255 -0.1161,1.049751 0.45117,1.179687 0.57263,0.168513 1.19143,-0.175426 1.69187,0.257786 1.29628,0.638388 2.78256,0.828905 3.97842,1.687264 0.51022,0.337532 1.03875,0.649461 1.52502,1.021747 -2.39882,1.059951 -4.83817,2.119756 -7.42383,2.615235 -0.82591,0.211675 -1.40671,1.373922 -0.60546,1.966797 0.44376,0.517617 1.09534,-0.09163 1.64451,-0.143255 2.0599,-0.581157 4.04953,-1.378218 6.00783,-2.235652 -0.49834,2.552353 -0.36226,5.183973 -0.95334,7.725086 -0.11252,0.99351 -0.45331,1.961133 -0.50072,2.954601 -0.006,0.583543 -0.065,1.44062 0.70546,1.564895 1.02145,0.195321 2.13349,-0.908426 1.68219,-1.930128 -0.11436,-1.929682 0.58338,-3.776975 0.67844,-5.692656 0.21154,-1.747999 0.15402,-3.543436 0.63797,-5.248751 1.63093,2.596923 2.88006,5.532196 5.27283,7.556477 1.05641,0.919795 1.85034,2.106145 2.8717,3.048992 0.99127,0.691357 2.27032,-0.741951 1.55859,-1.675781 -0.98134,-1.231433 -2.02636,-2.423879 -3.22439,-3.447373 -0.76454,-0.852056 -1.45954,-1.677585 -2.04709,-2.626846 2.57623,1.596124 5.2656,2.991618 7.90945,4.467642 1.60451,0.756322 3.14783,1.629745 4.73183,2.426471 0.6822,0.225824 1.27986,0.787769 2.01497,0.775809 0.59946,-0.05584 1.00101,-0.551075 1.47851,-0.845703 0.52799,-0.604227 -0.0824,-1.425796 -0.78515,-1.460938 -2.08599,-0.723034 -3.87996,-2.070469 -5.9375,-2.865234 -1.66132,-0.856697 -3.26245,-1.823942 -4.91902,-2.690017 -2.24108,-1.270774 -4.47317,-2.575397 -6.57707,-4.065842 4.08374,-1.95252 8.50143,-3.0287 12.73464,-4.588063 0.6901,-0.171145 1.6638,-0.521053 1.5134,-1.415844 -0.18006,-0.859971 -1.31027,-1.012772 -1.91179,-0.495512 -3.27545,1.350165 -6.74523,2.153577 -10.03922,3.459904 -1.19637,0.445825 -2.35664,0.979224 -3.51579,1.512171 0.22256,-1.296954 0.78826,-2.494053 1.20704,-3.730469 -0.0588,-0.705585 0.55043,-1.148945 0.72774,-1.794069 0.50921,-0.99899 0.85231,-2.0653556 1.30546,-3.0867904 0.30173,-1.1367822 0.92232,-2.1584253 1.15789,-3.318992 0.3199,-0.7825326 0.8462,-1.5972027 0.72297,-2.4739767 -0.15539,-0.5419268 -0.71949,-0.8886318 -1.27149,-0.8164063 z"
       inkscape:export-filename="space\star.png"
       inkscape:export-xdpi="45"
       inkscape:export-ydpi="45"
       inkscape:label="Star1" />
  </g>
</svg>
